<?xml version="1.0" standalone="no"?>
<!DOCTYPE svg PUBLIC "-//W3C//DTD SVG 1.1//EN" "http://www.w3.org/Graphics/SVG/1.1/DTD/svg11.dtd" >
<svg xmlns="http://www.w3.org/2000/svg">
<metadata></metadata>
<defs>
<font id="rather_loudbold" horiz-adv-x="375" >
<font-face units-per-em="1000" ascent="800" descent="-200" />
<missing-glyph horiz-adv-x="192" />
<glyph horiz-adv-x="1000" />
<glyph horiz-adv-x="1000" />
<glyph unicode="&#xd;" horiz-adv-x="1000" />
<glyph unicode=" "  horiz-adv-x="192" />
<glyph unicode="&#x09;" horiz-adv-x="192" />
<glyph unicode="&#xa0;" horiz-adv-x="192" />
<glyph unicode="!" horiz-adv-x="189" d="M154 660q8 -1 8 -8q2 -6 2 -18v-50v-14l-1 -8q1 -29 1 -86v-50q0 -47 -2 -74t-2 -63v-161q0 -16 -12 -17h-102q-4 4 -4 12v50l1 121l-1 24v39v55v15v2q0 6 4 10v33v6q-4 56 -4 82v50q0 21 4 47q3 3 6 3h102zM156 50v-75q0 -9 -2 -17q0 -5 -1 -8t-1.5 -3h-1.5h-91 q-9 0 -9 9q0 1 -4 15v72q0 3 1 7t1 5l5 5h94q7 0 7 -7q1 -3 2 -3z" />
<glyph unicode="&#x22;" horiz-adv-x="227" d="M202 553v-5v-105q0 -8 -0.5 -12t-0.5 -4.5t-1 -0.5h-59q-8 0 -8 27v157v1v49l4 8h57q6 0 6 -9q1 -5 2 -3v-103zM100 656v-73v-35v-105q0 -8 -0.5 -12t-1.5 -4.5t-2 -0.5h-63q-6 0 -6 27v31q-2 29 -2 76v97q0 11 6 11h63q4 0 4 -9q1 -5 2 -3z" />
<glyph unicode="#" horiz-adv-x="623" d="M301 396l-15 -45l-2 -5h67q12 25 19 50h-69zM391 679q4 0 4 -6l-15 -50l-14 -45q-2 -7 -8 -21t-6 -15q-2 -4 -6 -15.5t-6 -16.5l71 -1l54 156q0 8 6 14q0 2 4 2h1h48h2l61 -2q4 0 4 -6l-15 -50l-14 -45q-2 -7 -8 -21t-6 -15q-1 -3 -12 -33h50q12 0 12 -7v-96 q-4 -6 -10 -8q-5 0 -6 -1h-84l-16 -46l-2 -5h86h9t6 -0.5t3 -0.5h2q12 0 12 -7v-96q-5 -6 -10 -8q-3 -1 -5 -1h-1h-20q-3 -1 -126 -1q-64 -174 -82 -216l-8 -17q-7 -17 -12 -24h-114q-10 1 -10 6l21 50v1l18 41q2 4 6 12.5t7 14.5t3 7q26 69 30 85l8 27l6 13h-69 q-64 -174 -82 -216l-8 -17q-7 -17 -12 -24h-114q-10 1 -10 6l21 50v1l18 41q2 4 6 12.5t7 14.5t3 7q26 69 30 85l8 27l6 13h-16h-13h-16.5h-13.5l-6 -1h-1h-2q-10 0 -10 10v96l1 2q1 2 1 3q6 2 15 2h5l60 2h38q12 25 19 50h-55h-32.5t-27 -0.5t-11.5 -0.5h-1h-2 q-5 0 -7.5 3.5t-2.5 5.5v97l1 2q1 2 1 3q6 2 15 2h5l85 2h73q12 32 32.5 92.5t21.5 62.5q0 8 6 14q0 2 4 2h1h48h2z" />
<glyph unicode="$" horiz-adv-x="380" d="M164 446l8 -17q8 -9 45.5 -40t43.5 -38q10 -14 25.5 -32.5t23.5 -29t17 -30.5t15 -46q4 -20 4 -37q3 -21 3 -45q-2 -69 -24 -94q-6 -7 -25 -22q-34 -18 -37 -19l-6 -2q-6 -1 -16.5 -3t-20.5 -4v-27v-21q0 -5 -1 -8l-1 -3h-37q-4 0 -4 11v45q-20 0 -69 7q-64 10 -83 93 l-2 59v48q0 3 1 19v13q0 10 6 10h110q2 0 3 -3t1 -6v-3v-26l-1 -45q1 -12 3 -21q4 -17 11 -26q1 0 10 -3.5t11 -3.5h1l9 3q10 3 18 9.5t8 9.5q5 6 8 16l4 10l1 4q0 4 -0.5 9.5t-0.5 7.5q-1 12 -11 38t-21 37q-13 19 -37 41t-29 27q-13 12 -14 13q-6 3 -6 5l-3 3v1q0 1 -1 1 q-4 5 -26 24q-7 8 -14.5 14t-11.5 11t-10 19q-17 41 -17 73q0 12 1 19q1 8 4 19.5t5.5 20.5t2.5 10l5 10l1 1v1q5 5 8 15q6 13 19.5 24t16.5 15t6 5l2 2q23 21 83 27v12v18q0 11 3 11h34l1 -1q2 -3 3 -13v-28q55 -3 77 -17q20 -10 21 -12q11 -8 18 -20q5 -9 8 -18 q4 -6 4 -33v-12q2 -10 2 -20v-28v-6q0 -16 -4 -24q-5 -13 -22 -13l-77 3h-8q-9 0 -11 2.5t-2 13.5v8l-2 8v16l-2 8q-2 2 -6 11.5t-7 11.5q-7 7 -16 7q-15 0 -26 -18q-7 -13 -7 -27q0 -5 1 -14.5t1 -13.5q-1 0 -1 -1z" />
<glyph unicode="%" horiz-adv-x="526" d="M459 -6h-6l-3 -1h-1h-93q-12 0 -20 4q-3 1 -4 3l-1 1q-11 4 -11 9v4h-2q-15 26 -15 81q0 46 10.5 87.5t26.5 49.5q5 2 6.5 3t3.5 1h9q2 1 4 1h92q4 0 6 -1h1q11 -1 22 -12q17 -25 17 -123q0 -70 -12 -87q-3 -4 -4 -6l-1 -1q-1 0 -1 -2l-1 -1v-1q-9 -2 -11 -3 q-3 -6 -12 -6zM184 401l-1 -1h-1h-93q-4 0 -7 2h-2l-15 3q-20 6 -30 42.5t-10 82.5q0 68 17 93h3v4q0 2 3.5 4t5.5 6q3 1 8.5 4t10 5t8.5 2h96q11 -1 20 -10l10 -6v-1l6 -7q12 -24 12 -92q0 -118 -41 -131zM426 643q4 0 4 -6l-29 -95q-2 -7 -8 -21t-6 -15q-8 -19 -28 -85 l-24 -70q-20 -47 -61.5 -162.5t-66.5 -172.5l-7 -17q-8 -17 -13 -24h-114q-10 1 -10 6l21 50v1l18 41q37 85 46 119q0 7 1 9.5t3 6.5t4 11q35 77 46 122q16 34 22 58q5 25 20 60q11 26 60 170q0 8 6 14q0 2 4 2h51zM103 508q0 -13 12 -13h1h1h23q7 1 9 15v23q0 5 -1 8l-1 7 l-1 2q0 4 -7 4h-23q-9 0 -9 -5v-1h-1q-1 -1 -3 -15v-1v-24zM377 101q0 -13 11 -13h1h2h22q7 2 10 15v23q0 1 -0.5 3.5t-0.5 4.5l-2 7l-1 2q0 4 -7 4h-23q-9 0 -9 -5v-1h-1q-1 -2 -1.5 -4t0 -4.5t-0.5 -6.5v-1v-24z" />
<glyph unicode="&#x26;" horiz-adv-x="407" d="M246 186q-1 1 -20 1q-3 0 -7.5 -0.5t-6.5 -0.5q-20 0 -20 21l2 91h156h20l14 -1q14 -1 14 -7v-97q-3 -3 -8 -4l-2 -1h-8.5h-9.5l-4 -1h-14v-163q0 -19 -2 -37v-2q0 -5 -3 -9t-3 -5q-12 -2 -36 -2h-153q-38 0 -60 8q-33 26 -38 35q-2 5 -5 9.5t-5 10.5l-4 16q-5 9 -6 15 q-1 3 -1.5 5.5t-1 4l-1 3t-0.5 2.5q-8 23 -8 71v97q0 45 13 84q0 1 2 3t3 4q1 1 1 6v6q14 36 33 50q-25 42 -25 112v6q0 2 2 6.5t2 6.5v16q4 28 18 46q34 45 121 53h15q2 0 9.5 1t9.5 1h38h79q4 0 4 -6q4 -16 4 -25v-70q0 -2 -0.5 -4t-0.5 -3t-1 -1q-1 -8 -6 -8l-59 4 l-20 -4h-27q-20 0 -33 -3q-26 -6 -35 -30q-3 -5 -1.5 -14.5t1.5 -10.5q1 -3 1 -5q2 -11 11 -20t19 -9h1q4 -2 11 -2h7q3 0 7 -1h1h30h1h33q6 0 6 -6v-2v-50v-2v-33l-1 -6h-1h-18h-24q-16 0 -39 1q-30 0 -39 -3.5t-20 -21.5q-4 -7 -6.5 -18t-3.5 -20l-2 -9v-2q0 -5 1.5 -36 t1.5 -37v-2v-15l3 -31q2 -6 3 -11l1.5 -7.5t1 -4.5t1.5 -4q7 -21 43 -21q7 0 17.5 1t18.5 1l8 1v89z" />
<glyph unicode="'" horiz-adv-x="126" d="M100 653q1 -19 1 -40t-1 -30q0 -3 -2.5 -8t-2.5 -9t2.5 -9t2.5 -9q1 -9 1 -30l-1 -39q0 -17 -3 -17h-1h-63q-6 0 -6 27v12v11.5v7.5q-2 29 -2 40v97q0 11 6 11l63 -3q4 0 4 -9q1 -5 2 -3z" />
<glyph unicode="(" horiz-adv-x="274" d="M117 677q2 2 10 2h72l44 -3l6 -4v-1l-29 -50v-1l-16 -25q-1 -7 -8 -20q-23 -36 -37 -91q-1 -8 -1 -14l-1 -1q0 -4 -4 -6v-16q-3 -12 -10 -69q-4 -18 -6 -52q-1 -15 -2 -16q0 -1 -0.5 -4t-0.5 -5q0 -41 8 -59v-21q2 -13 4.5 -21.5t6.5 -16.5t7 -16v-3v-12q2 -6 6 -9.5 t4 -4.5q4 -10 9.5 -27.5t8.5 -23.5l13 -31l13 -31l22 -50h-72l-13 2h-37q-2 0 -8 3q-14 19 -45 102v10h-2q-2 0 -2 1q-11 42 -12 57q-20 120 -20 181q0 26 3 50q0 1 6 53q18 166 83 243z" />
<glyph unicode=")" horiz-adv-x="274" d="M157 677q65 -77 83 -243q6 -52 6 -53q3 -24 3 -50q0 -61 -20 -181q-1 -15 -12 -57q0 -1 -2 -1h-2v-10q-14 -37 -25 -62.5t-16 -32.5l-4 -7q-6 -3 -8 -3h-37l-13 -2h-72l22 50l13 31l13 31q3 6 8.5 23.5t9.5 27.5q0 1 4 4.5t6 9.5v12v3q3 8 7 16t6.5 16.5t4.5 21.5v21 q8 18 8 59q0 2 -0.5 5t-0.5 4q-1 1 -2 16q-2 34 -6 52q-7 57 -10 69v16q-4 2 -4 6l-1 1q0 6 -1 14q-14 55 -37 91q-7 13 -8 20l-16 25q1 0 0 1l-29 50v1q0 3 6 4l44 3h72q8 0 10 -2z" />
<glyph unicode="*" horiz-adv-x="307" d="M201 502h-1l-3 -1l32 -55q11 -17 3 -22l-34 -15q-7 -2 -14 9l-31 55l-31 -54q-8 -14 -10 -14q-3 0 -4 1l-30 16q-10 6 -8 9q0 2 3 9l3 6l32 55l-64 -1q-19 0 -19 14v26q0 11 6 12q4 2 14 2h60h2v1h-1q0 2 -2.5 6t-4.5 9q-10 13 -16 27q-13 22 -13 26q0 3 5 6l26 17 q8 5 15 -8l37 -60l30 52q11 21 16 21q1 0 2 -1l26 -17q9 -6 8 -10q-3 -13 -13 -26q-4 -10 -15 -27l-3.5 -7t-4.5 -8l-1 -1h60q24 0 24 -12v-34q0 -3 -6 -4t-16.5 -1.5t-11.5 -0.5h-10.5h-12h-8.5h-16z" />
<glyph unicode="+" horiz-adv-x="236" d="M196 310h-1h-37v-41q-4 -13 -6 -13h-69q-2 2 -3 6l-1 4v43h-44q-10 0 -10 6v67l2 4v1q4 2 20 2h32v37q0 4 1.5 6t3.5 2l1 1h65q2 0 4 -2q2 -5 2 -24v-11v-9h4h27h17q7 0 7 -4v-72l-5 -3h-10z" />
<glyph unicode="," horiz-adv-x="151" d="M114 98h10q2 -4 2 -5l-1 -50v-19l-2 -17q-2 -13 -4 -13l-3 -15l-6 -14q0 -10 -5 -15q-4 -15 -4 -20q-4 -11 -10 -11l-50 9q-4 0 -6 4l15 37l9 24h-22q-6 0 -10 11q-2 5 -2 16v59q0 12 2 14q3 6 4 6h79q3 0 4 -1z" />
<glyph unicode="-" horiz-adv-x="236" d="M193 273h-160q-4 0 -6 2.5t-2 4.5v2v84q0 4 1 6v1h1q6 3 16 3h102q6 0 9.5 -0.5t4.5 -0.5h18q5 0 9 -0.5t6.5 -0.5h3.5h1q12 -2 14 -9v-84q-1 -4 -2 -5.5t-1.5 -1.5h-1.5h-10q-1 -1 -3 -1z" />
<glyph unicode="." horiz-adv-x="145" d="M118 90l2 -31q0 -1 -0.5 -6.5t-0.5 -6.5t0.5 -2t0.5 -2v-15v-18q1 -13 -4 -13h-79q-6 0 -10 11q-2 5 -2 16v59q0 12 2 14q2 4 7 4l74 2q2 0 4 -1t3 -2.5t2 -2.5l1 -2v-4z" />
<glyph unicode="/" horiz-adv-x="417" d="M388 643q4 0 4 -6l-15 -50l-14 -45q-2 -7 -8 -21t-6 -15q-8 -19 -28 -85l-24 -70q-20 -47 -61.5 -162.5t-66.5 -172.5l-7 -17q-8 -17 -13 -24h-114q-10 1 -10 6l21 50v1l18 41q2 4 6 12.5t7 14.5t3 7q26 69 30 85l8 27q35 77 46 122q16 34 22 58q5 25 20 60q11 26 60 170 q0 8 6 14q0 2 4 2h1h48h2z" />
<glyph unicode="0" horiz-adv-x="387" d="M186 93q10 -5 15 -5t7 4q5 0 10.5 13.5t5.5 20.5v1q9 41 12 75t3.5 84t1.5 73q-1 14 -3 39.5t-2 39.5l-2 50v2q-4 20 -9 26q-13 26 -29 26q-10 -1 -23 -11t-14 -25q-14 -56 -14 -175v-1q-1 -7 -1 -14.5v-12.5q0 -3 0.5 -6.5t0.5 -4.5q3 -46 7 -73q2 -6 3.5 -21.5t3 -28 t2.5 -13.5v-7q3 -6 8.5 -22.5t7.5 -20.5v-3l2 -2l5 -5zM356 446q1 -10 3 -32.5t3 -35.5l3 -78q0 -3 0.5 -8.5t0.5 -7.5q0 -18 -3 -35q-1 -8 -1.5 -27.5t-0.5 -27.5q-2 -11 -5 -41q0 -6 -1.5 -15t-5.5 -28.5t-8 -38.5l-2 -9h1v-1q-10 -45 -48 -68t-94 -23q-70 0 -105 30 t-47 92v10q-4 2 -5.5 4.5t-2 9t-1.5 10.5q0 2 -1 8l-1 7l-1 16q-5 29 -7 75l-2 179l-1 6q5 72 15 117.5t38 73.5q3 2 3 3v1h1q2 1 6 1q25 33 88 43q6 0 20 1t20 1q59 -3 85 -29l21 -14q18 -26 22 -60l11 -50l1 -10l1 -48v-1z" />
<glyph unicode="1" horiz-adv-x="212" d="M177 1q-1 -3 -3 -5t-4 -2h-1q-17 0 -28 1q-1 0 -3 3q-1 2 -3 2q-1 0 -2.5 -2t-2.5 -2l-65 -2q-4 0 -4 13v96q1 22 1 58l1 1v1q5 129 5 271q0 3 1 12t1 12q0 4 -0.5 14t-0.5 14l-48 -1l-4 4v109q0 3 4.5 6.5t10.5 6.5l5 3q1 1 14 11q3 1 12 9.5t10 8.5v3q0 1 2 1h102 q1 0 3 -1h1q6 -1 6 -4v-50v-1v-56q-1 -23 -2 -60.5t-2 -60.5v-15v-192v-1q-1 -25 -2 -62v-7v-25q0 -10 -1 -25.5t-1 -21.5v-1l-1 -9q0 -9 -0.5 -21t-0.5 -17v-16z" />
<glyph unicode="2" horiz-adv-x="366" d="M254 -12l-55 -5h-161q-8 1 -11 6q-1 1 -1 2v58q0 1 1 1q1 1 1 2q0 17 2 33v30v12q0 24 8.5 40t26.5 34.5t26 30.5q10 15 54 60q7 10 13 17t13 14t12 13q11 12 18 32t12 28q3 5 4.5 14t2 16.5t1.5 7.5v5v6l2 38q-3 15 -14 37q-11 19 -26 20h-1q-10 0 -19.5 -12t-13.5 -24 l-4 -11v-5v-23v-50q-1 -5 -1 -10q0 -7 -5 -7h-108q-6 1 -6 5v50v1v1q5 87 15 118q11 36 37.5 52.5t80.5 20.5q26 2 40 2q73 0 103 -34t36 -101q1 -14 3 -38q0 -5 0.5 -17t0.5 -18q0 -19 -2 -51q-2 -28 -5.5 -40t-14.5 -27.5t-14 -20.5q-7 -13 -18 -23.5t-16 -19.5 q-19 -20 -65 -84q-7 -9 -18.5 -21.5t-19 -20.5t-7.5 -12l-5 -12q7 2 47 2q16 1 32 1q18 0 25 -1q3 0 8 -1t8 -1q5 0 11 1.5t9 1.5h9l27 -1q3 -1 4.5 -3t1.5 -3v-2l2 -3v-1v-103q0 -2 -6 -5z" />
<glyph unicode="3" horiz-adv-x="339" d="M101 106h-1v1h7q6 0 18.5 0.5t16.5 0.5t12 1.5t11 4t7.5 7t7 11t5.5 15.5l5 17v13l3 10q-1 8 1 15.5t2 8.5q-1 26 -3 43l-4 16l-10 20q-4 9 -4 14q-2 5 -13 12t-11 8l-29 1h-23q-3 0 -7.5 0.5t-6.5 0.5h-26q-11 1 -12.5 1.5t-1.5 4.5v93q0 6 2 6h63q8 2 14 2q4 0 12 -0.5 t10 -0.5h4h2q7 0 11.5 5.5t6 12t2.5 15t1 9.5q1 5 2 6q-2 6 -8 27q-2 5 -11 7l-8 1q-54 7 -58 7l-55 -7q-6 3 -6 8q-1 7 -2.5 9t-1.5 4v81q0 8 2 18q2 6 4 6h1h73h87q31 0 42 -11q8 -7 10 -10q3 -4 6.5 -7t6 -5t3.5 -3q1 -2 1.5 -4.5t0.5 -4t0.5 -2.5t1.5 -1q8 -8 16 -33 q7 -26 7 -56q0 -87 -35 -115l4 -1q3 -1 9 -3.5t11.5 -5t10.5 -7.5t6 -10h2q1 0 1 -1q7 -14 10 -26v-5q0 -4 4 -16q6 -28 6 -44v-13v-97q0 -48 -6 -71q-1 -3 -1.5 -6t-1 -4l-1 -2t-0.5 -2v-1l-6 -15q-1 -6 -6 -16q-1 -5 -2 -8t-2 -4.5t-2 -2.5l-2 -2t-2 -3q-5 -13 -38 -35 q-19 -8 -60 -8h-117q-19 0 -37 2q-5 0 -5 5v115q0 8 12 8z" />
<glyph unicode="4" horiz-adv-x="360" d="M202 355l2 165h-10l-66 -166zM308 636l3 -5q3 -5 3 -9v-98q-2 -40 -2 -47q0 -24 1 -61t1 -57q6 -1 13 -2t10 -1.5t3 -1.5v-100q0 -6 -8 -6h-1h-9q-3 -1 -4 -1q-2 -5 -2 -76v-84l-2 -84v-1v-1l-1 -5q-1 -6 -2.5 -9.5t-4.5 -3.5h-104q-6 0 -6 5v108q3 27 3 47q0 9 -0.5 23 t-0.5 21v38v6v13q-5 1 -7 1h-106l-7 1h-53q-8 3 -8 8v101l28 68q51 129 64 155l20 42q0 10 6 16h173z" />
<glyph unicode="5" horiz-adv-x="345" d="M165 323q-13 0 -20 -7v-10q0 -4 -0.5 -6t-1 -3t-2 -1.5l-3 -1t-4.5 -0.5h-5h-84q-15 0 -17.5 3t-2.5 18v115q2 22 2 24q0 7 -2 23v144q0 4 1 6v1h1v0q-1 12 4 12q5 2 13 2h7l139 -5q9 0 26 2t21 2h57q5 0 6 -1q8 -1 8 -7v-20l-4 -14l2 -10l2 -42q0 -6 -6 -6q-2 -1 -4 -1 l-45 -2h-7t-6 0.5t-4 0.5q-3 -1 -4 -1q-18 -1 -30 1q-2 0 -8 1.5t-10 1.5q-3 0 -7 -1.5t-6 -1.5l-26 -1v-53l-2 -28q2 -20 2 -23h79q4 0 10.5 -0.5t8.5 -0.5h1q3 0 5.5 -0.5t3.5 -1t2 -0.5h1l18 -8q10 -4 19 -12t9 -14q2 -6 6 -12.5t4 -8.5q0 -3 2 -17t2 -20q4 -36 4 -75 v-87q0 -54 -8 -81q-4 -14 -6 -16v-10q-10 -26 -26 -54q-20 -15 -20 -17q-10 -10 -26 -11q-9 0 -33 -4t-36 -4q-7 0 -22.5 1t-24.5 1q-43 0 -65 9q-18 7 -23 17t-5 30v23l2 84v5.5v5t0.5 3t2.5 2t6 0.5l89 -1h4h5t2.5 -1t2 -2.5t0.5 -5.5l1 -55q2 1 12 1h17q18 0 19 5 q1 3 2.5 6t2.5 4.5t1 2.5l4 14q4 5 5 12t1 8q2 6 2 13.5t1 8.5v20l5 44l-7 65q-3 23 -40 23z" />
<glyph unicode="6" horiz-adv-x="370" d="M33 82q-4 27 -4 72q0 28 -2 85t-2 80v86q0 1 4 55q2 39 4 54q1 5 3 23.5t4.5 30t7.5 19.5q18 37 29 46q5 4 11 8q40 24 107 24q49 -1 74 -8.5t41 -27.5q7 -14 11 -26q9 -35 9 -91v-22q0 -21 -3.5 -25.5t-20.5 -4.5h-9h-58h-14q-9 0 -12 3t-3 15v7v9q-2 4 -3.5 15.5 t-2.5 16.5l-2 15q0 3 -7.5 10.5t-14.5 8.5h-2l-2 1q-3 0 -5.5 -1t-4.5 -3.5t-3.5 -4t-3.5 -5.5l-3 -6q-2 -3 -6 -25q-3 -12 -3 -22q-2 -11 -2 -43v-2q0 -10 2 -30.5t2 -24.5v-3l-1 -10h13q17 10 58 10q66 0 83 -24q15 -20 22 -36v-7q4 -1 5 -2.5t1.5 -5t1.5 -5.5t2 -3 t1.5 -2t0.5 -2v-14q10 -35 10 -58v-118q0 -10 -12 -88q0 -6 -1.5 -10t-6 -8.5t-4.5 -5.5q-9 -8 -16 -11q-29 -23 -103 -25h-13q-54 0 -92 15q-30 11 -44.5 34.5t-20.5 66.5zM147 194q1 -7 2.5 -23t2 -22.5t2.5 -19t4.5 -19t7 -14.5t10.5 -13q3 -2 15 -2q2 0 5 1l3 2 q15 12 21 26q4 14 6 37v43q-2 6 -2 30q-4 32 -7 42t-13 23q-3 4 -31 4q-17 0 -17 -8q-7 -7 -7 -28q0 -12 -1 -29t-1 -30z" />
<glyph unicode="7" horiz-adv-x="322" d="M78 636q2 0 7 1t6 1h152h9l3 -1h50q1 0 3 -1h1v-2h1v-50l-1 -1v-46v-4q-5 -33 -16 -61q-6 -12 -19 -61q-3 -12 -10 -33t-10 -31q-8 -23 -18 -58l-6 -20q-4 -15 -6 -29t-4 -21q0 -4 -4 -5q-1 0 -8.5 -33.5t-7.5 -35.5q-4 -14 -7 -20t-5 -14q-29 -111 -30 -114l-2 -2h-1 h-49q-12 0 -14 2h-13h-1l-49 1q-4 0 -4 4l15 50l12 45q0 3 0.5 6.5t1 6t0.5 3.5l15 42l1 7q2 7 4 13.5t4 8.5v1l1 6q1 6 2.5 13.5t2.5 10.5q0 2 4 8t4 7q11 33 11 43h1v0q16 74 22 96q17 47 37 128l2 17q2 2 4 3t2 3l2 4h-92q-7 1 -13 1h-31q-4 0 -6 5.5t-3 11.5l-1 7v78 q3 10 16 10h8q7 0 16 -0.5t11 -0.5z" />
<glyph unicode="8" horiz-adv-x="386" d="M83 361q-5 1 -21 24.5t-17 28.5q-4 4 -4 7q-1 4 -1.5 8t-0.5 5q-3 14 -3 44q0 64 11 107q3 12 14 25q6 5 13.5 13t10.5 11q13 11 38 18q1 1 4 1h2h8q6 6 49 6q64 0 94 -6q14 -6 23.5 -12.5t12.5 -11t6.5 -11t5.5 -8.5q5 -6 9 -13.5t6.5 -17.5t3.5 -16.5t2.5 -20.5 t2.5 -20q4 -8 4 -24q0 -13 -3 -34t-3 -22q-2 -5 -2.5 -10t-1 -9t-0.5 -6l-2 -1v-1q0 -7 -12.5 -30t-18.5 -27q1 -2 7.5 -12.5t13 -20t6.5 -10.5v-8q7 -1 7 -8q0 -3 1 -5q4 -4 4 -6v-14q9 -28 9 -78q0 -11 -0.5 -33.5t-0.5 -34.5v-1v-5q0 -4 -0.5 -10t-0.5 -9l-1 -1 q-2 -66 -40.5 -101.5t-109.5 -36.5h-2q-61 0 -114 30t-59 74q-1 13 -4 36q-4 40 -4 65q0 44 6 77q2 5 2.5 10t1 8.5t0.5 5.5v1v2q0 17 24 53zM228 459l1 5q0 1 0.5 2.5t0.5 2.5v1q-1 8 -2.5 22.5t-3 22.5t-5.5 13q-2 3 -7 8q-7 11 -18 11q-1 0 -3 -1h-2q-14 -4 -26 -34 q-9 -29 -10 -41v-7q1 -3 4 -15l4 -5q4 -6 8.5 -11.5t10.5 -11.5t10 -8t9.5 1t8.5 6l4 4zM155 247q-6 -34 -6 -45v-4v-2v-11q0 -1 0.5 -1.5t-0.5 -2.5v-3v-4v-1l-2 -10v-1q1 -15 4 -34q2 -36 16 -42q8 -9 14 -12l17 -3q17 4 18 5q5 4 7 13l1 2q2 4 3 7t2 4.5t1 2.5q2 6 2 22 q3 10 4 31t2 25q0 3 -10 49q-1 4 -2.5 9.5t-2.5 8.5l-1 4q-2 2 -2 3v1q-1 2 -3.5 6.5t-4.5 6.5q-7 13 -18 14q-1 0 -3.5 0.5t-3.5 0.5q-4 0 -10 -2q-14 -6 -22 -37z" />
<glyph unicode="9" horiz-adv-x="348" d="M189 523l-9 8q-3 4 -8 4q-2 0 -6 -1l-3 -1q-4 -4 -6 -7.5t-3.5 -8.5t-2.5 -8q-4 -14 -6 -37v-33q0 -32 7 -53q5 -17 23 -35l2 -1q12 -3 17 5q7 7 7 28q0 12 0.5 34t0.5 35q0 51 -13 71zM317 537q4 -36 4 -72v-84v-6v-3v-2q0 -6 1 -12l1 -6v-24q3 -35 3 -59 q0 -15 -1.5 -45t-1.5 -44v-10q0 -8 0.5 -22.5t0.5 -18.5q0 -59 -9 -76q-2 -4 -5.5 -11.5t-4.5 -10t-4 -7.5t-5 -7.5t-5.5 -6t-7 -6t-8.5 -5.5q-43 -24 -99 -24q-49 1 -74 8.5t-41 27.5q-7 14 -11 26q-9 35 -9 91v22q0 21 3.5 25.5t20.5 4.5h9h58h14q9 0 12 -3t3 -15v-7v-5 q0 -34 8 -64q1 -3 7 -7.5t12 -4.5q8 0 13 17.5t5 28.5v116v3l1 10l-18 -4q-27 -7 -55 -7q-47 0 -65 24q-44 55 -44 135v108q2 43 29 85q10 15 25.5 29t22.5 15q2 1 24.5 9.5t41.5 9.5h13q71 0 100.5 -26t35.5 -90z" />
<glyph unicode=":" horiz-adv-x="145" d="M120 470v-54v-27q-1 -5 -1 -10q0 -2 -2 -3h-1q-18 -3 -39 -3l-38 2q-6 0 -10 11q-2 5 -2 16v58q0 12 2 14q3 6 4 6l77 2q2 0 4 -1t3 -2.5t2 -2.5l1 -2v-4zM120 213v-63v-18q-2 -13 -4 -13h-79q-6 0 -10 11q-2 5 -2 11v5v59q0 12 2 14q3 6 4 6h79q2 0 4 -1t3 -2.5t2 -3.5 l1 -1v-4z" />
<glyph unicode=";" horiz-adv-x="151" d="M120 376v-63v-18q-2 -13 -4 -13h-79q-6 0 -10 11q-2 5 -2 16v59q0 12 2 14q3 6 4 6h79q2 0 4 -1t3 -2.5t2 -2.5l1 -2v-4zM114 98h10q2 -4 2 -5l-1 -50v-19l-2 -17q-2 -13 -4 -13l-3 -15l-11 -24q0 -13 -2 -15q-4 -15 -4 -20q-4 -11 -10 -11h-58q-4 0 -6 4l15 37l19 43 h-22q-6 0 -10 11q-2 5 -2 16v59q0 12 2 14q3 6 4 6h79q3 0 4 -1z" />
<glyph unicode="&#x3c;" horiz-adv-x="255" d="M120 622l8 6h94q8 -1 8 -10l-37 -96q-11 -26 -12 -27l-34 -98l-10 -17l-10 -29l-1 -5l11 -31l6 -26l10 -17l34 -98q7 -16 12 -32l31 -96l-4 -7h-90l-6 3q-6 6 -8 13q-5 15 -8.5 22.5t-4.5 9t-3 8.5t-6 23q-2 8 -10 30l-8 15q0 2 -1 6l-1 4q-4 11 -5 17q0 2 -3 6 q-8 12 -12 24t-7 25t-5 19q-1 2 -3 8t-3.5 11.5t-3.5 10.5t-2 6q-3 12 -5.5 20.5t-3 10.5t-1.5 5t-1 8q0 10 17 61q1 4 8 30.5t16 38.5l4 10t4 12q1 6 8 9v7q0 7 2 9q3 8 10 30q6 23 8 28.5t5 11t9 23.5z" />
<glyph unicode="=" horiz-adv-x="236" d="M107 268h22l17 -2h9l40 2l4 -1q8 -1 12 -4v-72q0 -3 -2.5 -4.5t-6.5 -2.5h-3q-3 0 -11 -0.5t-9 -0.5h-136q-18 0 -18 7v72q0 3 1.5 4.5t4.5 2t5.5 0.5t8 -0.5t8.5 -0.5h54zM195 340h-160q-10 0 -10 6v71q0 1 2 5q10 3 16 3h102q7 0 11 -1h4h1h18h12l6 -1h2q12 0 12 -7 v-71q-3 -3 -8 -4h-2q-6 0 -6 -1z" />
<glyph unicode="&#x3e;" horiz-adv-x="255" d="M135 622l4 -8q6 -19 10.5 -27t11.5 -36q7 -22 10 -30q2 -2 2 -9v-7q7 -3 8 -9q2 -7 4 -12l4 -10q9 -12 16 -38.5t8 -30.5q17 -51 17 -61q0 -5 -1 -8t-1.5 -5t-3 -10.5t-5.5 -20.5l-3 -8q-2 -9 -5 -17t-4 -11q-2 -6 -5 -19t-7 -25t-12 -24q-2 -3 -2 -3.5t-0.5 -1.5 t-0.5 -2.5t-1.5 -5.5t-3.5 -10l-1 -4q-1 -4 -1 -6l-8 -15q-8 -22 -10 -30q-4 -16 -6 -23t-3 -8.5t-4.5 -9t-8.5 -22.5q-3 -7 -8 -13l-6 -3h-90l-4 7l31 96q5 16 12 32l34 98l10 17l6 26l11 31l-1 5l-10 29l-10 17l-34 98q-1 1 -12 27l-37 96q0 9 8 10h94z" />
<glyph unicode="?" horiz-adv-x="394" d="M40 518l2 56q2 10 2 24q0 32 39 54.5t71 22.5h89q10 0 40 -5q0 -2 2 -4h2q5 0 30 -13q24 -17 26 -23q4 -2 5 -4q0 -2 1 -2q20 -28 20 -83q-1 -109 -42 -173q-11 -17 -21.5 -27t-18.5 -23q-9 -13 -28.5 -31.5t-24.5 -23.5q-57 -66 -60 -70q-6 -12 -6 -19v-76q0 -4 -2 -9.5 t-4 -5.5h-96q-12 0 -12 11q-2 12 -2 14v31v9q0 8 1 20.5t1 22.5q1 52 10 69q9 14 22 26q28 24 63 63t47 51q7 7 12.5 12t8 7t5.5 5.5t5.5 9t6.5 15.5q7 20 7 35q0 4 -0.5 11t-0.5 12q-3 7 -3 10q-5 8 -12 18l-10 6q-4 1 -4 2q-2 1 -8 7l-31 1q-2 -4 -4 -11t-2 -8 q-2 -16 -2 -24v-60q0 -14 -4 -13h-112q-6 0 -6 11v14q0 14 -1 26.5t-1 16.5v15zM169 39v-48v-19q-1 -10 -2 -12h-100q-7 0 -10 10q-2 5 -2 11v5v44q0 12 2 14l4 6h96q3 0 10 -7q0 -2 2 -4z" />
<glyph unicode="@" horiz-adv-x="536" d="M422 106q-12 -6 -26 -6q-3 0 -10.5 0.5t-11.5 0.5q-3 0 -57 9q-4 0 -10 1q-11 1 -11 6l-3 9l-2 4q-13 -12 -38 -12q-9 0 -15.5 1t-9.5 2t-10.5 4.5t-11.5 5.5q-13 6 -16 9q-4 3 -14 22q-8 20 -8 23q0 4 -0.5 9.5t-0.5 8.5v4l4 57q3 42 9 81q1 9 4 31.5t4.5 30t5 23.5 t7.5 24t11 19t16 20q34 16 47 16h7q8 0 16 -5.5t16 -13.5l7 -8l1 25l48 -5q13 -1 13 -4l-1 -4v-7q-7 -118 -19 -232q0 -8 -2 -17t-3 -18l-1 -10l-1 1v-16q0 -12 20 -12q12 0 20 4q11 5 18 18t8 21q1 1 1 12q7 77 7 147q0 48 -10 81q0 22 -7 37t-13.5 21.5t-6.5 8.5v1l-41 24 q-2 1 -7.5 2t-10.5 2l-4 2q-2 -1 -5 -1t-23.5 1t-33.5 1q-29 0 -38 -3q-13 -4 -25.5 -11t-18.5 -11.5t-7 -6.5q0 -1 -2 -5q-6 -6 -10 -12t-6 -10.5t-3 -5.5q-1 0 -3.5 -7t-5.5 -14t-3 -8v-7q0 -6 -1 -6q-4 -11 -8 -37.5t-6 -51.5t-3 -27l-2 -30q-4 -16 -7 -74t-3 -59 q-1 -3 -1 -10q0 -37 42 -75q23 -23 116 -23h16h5q4 0 17 -1.5t22 -1.5q7 0 16 1t16 1q10 0 26.5 0.5t22.5 0.5q8 0 24 -0.5t26 -0.5q3 0 8.5 0.5t7.5 0.5q7 0 12 -4q3 -2 3 -8q0 -2 -0.5 -6t-0.5 -7v-2v-3v-50q0 -13 -4 -15q-2 -4 -9 -4h-3h-142h-7q-115 0 -170 12 q-16 3 -29.5 10t-16.5 8q-12 5 -19.5 9.5t-15.5 12t-11 9.5q-42 28 -42 108v96q0 7 8 106q4 21 11.5 78t14.5 85q24 89 102 128q5 2 14.5 6t13.5 6q38 6 85 6q114 0 151 -33q12 -5 38 -31q3 -2 4 -5.5t2 -3.5q9 -4 12 -12q5 -10 9 -20.5t6.5 -23l4 -20t3.5 -24t3 -22.5 q4 -27 4 -50v-97q0 -89 -16.5 -134t-72.5 -70zM284 203q3 25 4.5 43l2 24t2 15.5t3.5 24.5v9q0 12 3 36t3 31q0 24 -1 25q-5 10 -11 14l-1 1h-2q-4 0 -16 -8q-2 -2 -5.5 -16.5t-7.5 -34t-5 -24.5q-1 -9 -6 -51q0 -2 -1.5 -3t-1.5 -2t0.5 -1t0.5 -1l-3 -33q0 -59 14 -59 q1 0 6 -0.5t8 -0.5q12 0 14 6v5z" />
<glyph unicode="A" horiz-adv-x="399" d="M174 280l52 2q-9 72 -13 118v5v9q0 3 -0.5 5t-1.5 4.5t-1 4.5q-1 3 -1.5 7t-0.5 7l-6 52zM382 -7l-4 -3h-117q-5 4 -7 12t-3 18t-1 12v11q0 1 -6 46.5t-6 56.5v1l-60 1q-4 -2 -9 -4q-5 0 -5 -3l1 -2l-1 -1v-8q-1 -5 -4.5 -29.5t-3.5 -26.5l-4 -27q-1 -15 -5 -33l-2 -13 q0 -17 -9 -17h-63l-50 1q-11 1 -11 12l8 43l6 43q1 5 2 11t2 10.5t1 6.5q1 8 1.5 15.5t1.5 14.5q3 5 3 11v1l11 59q14 115 34 218l11 73v4q0 8 3 17q14 100 14 101q1 1 1 4v1v1l4 1q3 1 5 1h108q3 0 11 -1t9 -1h35h6q7 0 7 -1q3 -1 3 -3h1q0 -1 1.5 -6.5t4 -19.5t6 -33.5 t8.5 -54t10 -74.5q2 -20 8.5 -69.5t9.5 -82.5q1 -7 2 -14.5t1.5 -12.5t0.5 -11q7 -64 19 -164l5 -43z" />
<glyph unicode="B" horiz-adv-x="362" d="M25 420v187q0 12 2 20q0 11 2 15q0 6 3 6h73h1h107q67 0 90 -81q6 -32 6 -95v-30q-3 -38 -27 -59q1 -1 5.5 -2.5t8 -4t9 -8t12 -17t13.5 -27.5l3 -10q0 -9 1 -11q8 -38 8 -97v-16q0 -69 -11 -101q0 -3 -0.5 -6t-1 -4l-1 -2t-0.5 -2l-1 -1l-6 -15q0 -5 -1 -8.5t-2 -5 t-1 -2.5q-3 -10 -6 -14.5t-4 -5.5q-3 -6 -8.5 -12t-10 -9.5t-11.5 -8t-8 -5.5q-21 -8 -60 -8h-138q-20 0 -38 2q-1 6 -2.5 9t-1.5 4v2q-2 11 -2 26v12v97v100v51q2 34 2 47q0 7 -0.5 21.5t-1.5 21.5v25q-2 15 -2 22zM193 290q-2 3 -25.5 7.5t-24.5 4.5v-4v-63q0 -3 2 -15v-9 v-3q0 -6 1 -13t1 -9v-83q6 2 13 2h7q29 0 36 12q2 6 6.5 17t5.5 14l4 30v9v4l1 3q0 17 -1 21q-1 12 -3 23q-2 6 -2 16q-4 6 -11 26q-2 3 -4 5t-3 2.5l-2 1t-1 1.5zM145 525v-113q1 -7 9 -7q11 0 27 14t16 21l2 23v5v6v1v7q0 28 -2 32q-4 18 -33 18q-19 0 -19 -7z" />
<glyph unicode="C" horiz-adv-x="389" d="M145 231q3 -12 3 -35.5t2 -31.5q14 -52 24 -63q6 -6 24 -6q6 0 16 0.5t14 0.5h3l5 8q2 2 2 3l5 21v5l2 17l1 34v3v1l1 46q0 8 4.5 12.5t8 5t5.5 0.5l97 -4q2 0 3 -2t1 -4v-3v-4v-2l-2 -99v-5v-51q0 -55 -14 -70q-6 -7 -10 -15q-6 -7 -22 -13l-48 -9l-117 -1q-42 7 -64 19 q-3 4 -8.5 10.5t-8.5 11.5t-5 12q-1 4 -7.5 12t-6.5 10q-1 4 -2.5 11t-1.5 9q-1 4 -3 9t-3 8t-3 8t-3 8q-1 8 -6 15q-3 25 -4 38q-2 34 -2 53q0 18 1 53.5t1 51.5q0 6 0.5 11.5t0.5 6.5l1 1v1q3 93 18 178v3v16q0 8 2 12l4 4l1 8q2 9 4.5 20t6.5 15l4 10q2 4 4 7.5t2 4.5 q2 4 3.5 9t2.5 6q0 3 2.5 5.5t5 4t2.5 2.5q17 17 105 17q80 0 106 -12q16 -10 18 -12q17 -14 20 -30q3 -9 6 -16q2 -8 4 -26l2 -12q1 -4 2.5 -11t1.5 -8q2 -15 2 -32v-21q0 -23 2 -44v-19t-1 -31t-3 -14h-104q-5 0 -7 3.5t-2 9t-1 6.5v6v25q-2 11 -2.5 25.5t-3.5 24.5 q-3 18 -9 43q-10 20 -25 20q-6 0 -16 -7.5t-10 -12.5l-4 -9q-4 -9 -4 -10q0 -2 -0.5 -4t-1.5 -3.5t-2 -3.5v-1l-3 -16l-2 -14v-1l-4 -40q-2 -26 -4 -38q-1 -13 -1.5 -31.5t-2.5 -30.5v-20q-1 -3 -0.5 -11t0.5 -9q-1 0 -1 -15q0 -1 -0.5 -1t-0.5 -1v-16z" />
<glyph unicode="D" horiz-adv-x="359" d="M151 118q3 1 12 1h10q29 0 32 12q6 5 8 17q6 14 6 48v5v54v15q-2 61 -4 84q-2 14 -4.5 70t-7.5 72q-3 14 -19.5 20t-30.5 6h-4q0 -62 -2 -118v-1v-34q0 -5 0.5 -16.5t1.5 -15.5v-41v-9l-4 -31l4 -23q1 -1 1 -2v-50l-1 -4v-1v-23q0 -17 2 -35zM315 53q-3 -8 -7.5 -14 l-7.5 -10t-9.5 -9t-8.5 -6.5t-11 -7t-11 -6.5q-6 -5 -34.5 -9t-36.5 -4h-102q-8 0 -20 2l-15 2q-9 1 -12.5 2t-6 5t-2.5 11q-4 23 -4 42v97q0 6 0.5 13t0.5 9q-2 54 -2 85v50q0 28 1 83.5t1 76.5q0 46 -3 85v66q0 26 10 33q2 1 24 8q20 3 26 3h5q10 0 41.5 1.5t48.5 1.5 q52 0 65 -13q3 -3 16 -11t14 -9q4 -5 7 -9.5l5 -7.5q3 -4 5 -8.5t3 -5.5l6 -11q4 -5 5 -10t1 -6q9 -8 9 -18q5 -12 7 -29q1 -7 2.5 -21.5t1.5 -16.5q10 -70 10 -181v-100q0 -43 -4 -101q-1 -19 -18 -52z" />
<glyph unicode="E" horiz-adv-x="264" d="M29 256v21v21v97v13q-2 3 -2 5v131q0 15 1 41t1 37v1v12q0 4 4 8q6 6 16 6h62h6h2h21h13h1h73q6 0 6 -5v-96q-3 -8 -5 -9t-11 -1h-48q-10 0 -12 -1q-5 -21 -5 -36l-1 -1v-43q0 -11 -0.5 -32t-0.5 -32q0 -21 1 -30q4 -3 6 -3h39q15 0 27 -2v-97q-1 -12 -18 -12h-28 q-2 -1 -4 -1h-2h-10l-6 -1l-4 -2q0 -11 -1 -29t-1 -25l-2 -2v-36v-11q1 -22 3 -50h10h73q6 2 6 -2v-101q-1 -6 -5 -6h-22q-18 -6 -63 -6h-102q-15 0 -20 1q-2 9 -2 17v96q0 7 0.5 15t0.5 10l1 1v20q0 37 2 119z" />
<glyph unicode="F" horiz-adv-x="304" d="M27 334q0 20 0.5 52t0.5 44q0 27 -1 39v15v46v12l-2 88v9q0 2 1 3.5t4 2t5.5 0.5t7.5 -0.5t9 -0.5h28q12 1 36 1h16h9q2 0 7 -2t8 -2t7 2t7 2h17h31q8 0 19 -0.5t14 -0.5h1l2 -1h2h14q11 -4 10 -7v-96q0 -5 -14 -10h-110h-3q-2 -1 -3 -1q-1 -1 -1 -8q0 -5 0.5 -13.5 t0.5 -9.5v-79v-3q2 -12 2 -15v-7q0 -6 0.5 -18.5t1.5 -18.5h102q7 0 10 -8v-100q0 -5 -12 -5h-91q-3 -1 -5 -2t-3 -2t-2 -1v-17q0 -116 -3 -139v-97q0 -6 -4 -6h-2h-110q-7 9 -7 13v116v4.5v2.5v1v1v26q1 8 1 24q0 8 -0.5 25t-0.5 25v68v31v17z" />
<glyph unicode="G" horiz-adv-x="363" d="M143 295l-1 -129q1 -5 2 -13.5t2 -15.5t2 -13q9 -36 33 -42h6q16 0 22 17q2 3 2 5q1 5 2.5 14.5t1.5 10.5v8v42l-5 2h-21q-12 0 -14 5t-2 26v61v11q0 8 5 10.5t24 2.5q48 -2 56 -2h1h30q7 0 16.5 -0.5t11.5 -0.5q1 -1 5 0t7.5 -3.5t1.5 -12.5q4 -40 4 -47v-67v-17 q0 -26 -3 -56q0 -41 -12 -75q-7 -23 -18 -30q-25 -16 -88 -16q-26 0 -39 1q-24 1 -59 6h-1q-8 5 -14 6q-5 1 -12.5 5t-9.5 5q-12 6 -17 12q-1 1 -7 9q-21 21 -25 45q-3 16 -3 63v80q0 85 -2 129q1 20 1 87.5t3 105.5q1 8 4 15q0 5 1 11t1.5 10t0.5 5h1v0q6 21 12 32q2 4 3 7 q0 2 1 2q3 12 10 16t8 7q1 5 24 16q32 9 71 9h9q60 0 88 -14q14 -7 29.5 -20t18.5 -22q3 -10 7 -18.5t5.5 -14.5t3.5 -18q6 -15 10 -60q0 -6 0.5 -11.5t0.5 -6.5v-50q0 -10 -17 -11l-34 -2h-74q-1 2 -1.5 11t-0.5 21t-2 20q-2 5 -4 24q0 4 -1 9t-2.5 10t-1.5 6 q0 -1 -3.5 1.5t-9 5.5t-9.5 3q-5 0 -9.5 -4.5t-7 -8t-2.5 -4.5q-1 -7 -11 -46v-18q0 -14 -3 -23v-67q0 -16 -2 -36v-15z" />
<glyph unicode="H" horiz-adv-x="368" d="M222 448v130q-1 1 -1 2v50q0 3 2 5t5 3h2v1h26q4 -4 7 -4q2 0 4.5 2t4.5 2h26h35q10 0 10 -29v-50q0 -2 -2 -50v-29q-2 -44 -2 -129v-1q0 -27 -1 -77t-1 -72v-48q0 -60 -4 -154q-1 -9 -6 -9h-110q-2 0 -2 4q-4 2 -4 9v67l2 47v40v77q2 26 2 65v26q-4 2 -35 2 q-29 0 -29 -7l-1 -83q0 -24 -2 -42q-1 -11 -3 -34t-2 -28l-1 -16l4 -66v-12q0 -18 -2 -46q0 -3 -2 -3h-5l-1 -1h-103q-4 0 -5.5 2.5t-1.5 7.5l-1 4v79q0 204 1 289q0 5 1.5 15t1.5 15q0 15 -2 55.5t-2 61.5v118q0 3 1 5l2 4l1 1v1h113q4 0 6 -1t2 -1.5v-1.5q1 -7 1 -13v-50 q0 -16 -1 -20q0 -2 2 -2v-39v-6v-1v-25q1 -4 2 -5v-41q1 2 37 5q1 0 3 -1.5t4 -1.5q1 0 4 1.5t4 1.5h15z" />
<glyph unicode="I" horiz-adv-x="176" d="M150 492v-47l-2 -47q0 -43 -1 -59q1 -8 1 -16q1 -11 1 -28v-51v-46q0 -6 0.5 -18.5t0.5 -14.5v-27v-14v-71v-3l1 -2v-1v-50q0 -1 -7 -4h-2l-73 2h-5h-28q-11 0 -11 17q0 4 0.5 12t0.5 11v64q2 80 3 131q0 2 -0.5 5.5t-0.5 5.5q0 33 1 86.5t2 86.5q0 1 0.5 14.5t-0.5 14.5 q0 3 -2 13l-1 47l-2 12v119q1 6 8.5 9.5t15.5 4.5h7h85q8 -1 8 -26v-116v-14z" />
<glyph unicode="J" horiz-adv-x="362" d="M332 338v-4q1 -10 2 -13v-3v-9q2 -36 2 -44v-100v-39q0 -5 -0.5 -8.5t-1 -5t-0.5 -2.5t-0.5 -4t-1 -7t-0.5 -7q-2 -2 -4 -14l-1 -11q-7 -6 -9 -18q-1 -7 -4.5 -15t-8.5 -15t-9.5 -12.5t-9.5 -10.5l-4 -5q-38 -21 -92 -21q-13 0 -19 1q-72 7 -112 34q-11 8 -19 19 t-12.5 29.5t-6.5 28.5t-4 36t-3 32q0 2 -0.5 6t-0.5 6q0 5 3 29q-2 21 -1 23q0 2 0.5 4t0.5 3q1 10 10 10q2 0 7 -0.5t9 -0.5l63 2h4q30 0 30 -11l1 -13q0 -29 -1 -49q0 -5 1 -20t2 -22t5 -10q10 -12 22 -16h2q8 0 17 8t11 12q6 10 10 19.5t4.5 14t1.5 15.5t1 14q1 7 1 9 q0 1 1 10v14q-4 54 -4 160v50l2 119v9v9v52q0 14 10 21q10 6 25 6h5h70q10 -4 10 -43v-6v-12q1 -5 1 -16q0 -8 -1 -24t-1 -24q0 -11 1 -16q-1 -39 -4 -42v-46v-66z" />
<glyph unicode="K" horiz-adv-x="394" d="M271 638h100h1q11 0 11 -5v-2q0 -2 -10 -22q0 -1 -7 -15l-7 -14q-9 -32 -17 -40q-4 -3 -7.5 -9t-7.5 -15t-5 -11q-4 -7 -10 -20.5t-10 -19.5q-14 -26 -24.5 -48t-17.5 -34q-3 -5 -10 -23l-8 -17q9 -25 29 -61q2 -11 11 -33q3 -6 8 -22.5t7 -22.5q1 -2 2.5 -2t1.5 -3v-3 q18 -45 22 -53l6.5 -13l11 -22t6.5 -17q0 -1 5.5 -16t8.5 -22q1 -4 1.5 -7.5t0.5 -4.5l21 -50q0 -9 -13 -9h-73q-4 0 -15.5 1t-16.5 1h-2q-5 0 -8 4.5t-4 9.5t-2 12v6q-4 5 -4 10q-1 9 -4 13.5t-4 7.5l-28 75l-19 41l-37 106q-3 0 -3 -147q-5 -6 -5 -11l5 -22v-72v-22 q0 -6 -2 -7.5t-9 -1.5h-6h-102q-6 0 -6 14v8q-1 6 -1 12v50q0 13 1 34t1 31l1 1v47v19v166q0 12 -1 33t-1 31v67q1 4 1.5 11t0.5 8v1v4q0 6 -1 13t-1 9v71v14v1q4 7 8 7q35 0 58 -2q2 0 6 -2t6 -2h1q3 0 6 2.5t5 2.5q5 1 17 1h9q8 0 8 -9l-1 -201q1 2 15.5 36t29.5 68l15 34 q0 1 6 5v10q13 19 22 44q8 12 14 12z" />
<glyph unicode="L" horiz-adv-x="267" d="M31 640q28 2 48 2l62 -2q11 0 12 -5v-1v-84q0 -4 -2 -6l2 -12q1 -3 1 -7v-1v-40q1 -4 1 -12q0 -29 -1.5 -92t-1.5 -89t1.5 -76t1.5 -75v-46q14 -5 33 -5q8 0 22 1t19 1q10 -1 12 -1q6 -1 6 -6v-90q0 -10 -6 -10q-4 -1 -8 -1h-2h-108v1q-5 1 -27.5 1.5t-42 2t-22.5 4.5 q-2 5 -3 8l-1 4v97q0 5 1 5l1 1v8v91q0 12 2 28q0 5 -0.5 11t-0.5 7q0 17 -3 233q-2 23 -2 57v87q0 11 6 11z" />
<glyph unicode="M" horiz-adv-x="473" d="M448 86v-102q0 -4 -2 -6t-4 -2l-2 -1h-104q-10 1 -10 16v339q-2 -4 -30 -166.5t-29 -163.5q-6 -9 -65 -9q-4 4 -15 88t-22 176t-14 105q0 -4 -1.5 -103t-4 -193t-4.5 -95h-108q-8 0 -8 5v50v2v47q0 8 2 8v35q0 37 3 148v32v50l-1 88v19v32v96q0 27 2 36v3q0 5 2 8l1 1 l1 1v1h106q3 0 13.5 -0.5t19.5 -1.5l9 -1h1v-1h1q0 -11 7 -49q9 -39 11 -53q1 -1 2 -6q2 -10 4.5 -19.5t3.5 -18.5l23 -129q1 4 1 0q1 -2 1 -7l3 -13v1q1 6 24.5 90t24.5 91q2 5 9.5 37.5t15.5 57t14 24.5h101q14 0 14 -25v-23q4 -16 4 -44v-46v-19v-50v-147 q0 -9 -0.5 -21.5t-0.5 -18.5q1 -15 1 -33v-97v-23z" />
<glyph unicode="N" horiz-adv-x="400" d="M371 557q0 -7 0.5 -20.5t1.5 -18.5v-11v-10v-7v-97v-9q2 -18 2 -55q0 -14 -0.5 -41.5t-0.5 -40.5v-101l1 -26v-12v-51q0 -11 -1 -25t-1 -18v-9q0 -14 -10 -14h-115q-5 0 -16 38q-2 8 -5 16.5t-5 14.5q-1 6 -6 16l-70 188l-1 -3v-9q2 -7 2 -13v-235q0 -6 -1.5 -7.5 t-3.5 -1.5h-1h-108q-4 0 -6 1t-2 2.5v2.5v160v10v1v1l4 55v138v21v49v123v4v33q0 24 14 24h1q1 1 3 1h102q6 0 11.5 -8.5t6.5 -13.5q9 -23 10 -26q4 -13 6.5 -32t3.5 -25q0 -2 27 -100l27 -98q4 -12 7 -18q-1 5 -1 12v5v3v318q0 5 3.5 7.5t7.5 2.5h5l2 1l26 1h73l4 -6 q4 -11 4 -26v-1v-33q0 -7 -0.5 -15t-0.5 -12z" />
<glyph unicode="O" d="M220 128v20q3 20 6 86v6l1 5h1q2 26 2 29v1v25q2 30 2 39q-2 16 -2 17l-2 48q-1 4 -2.5 24.5t-3.5 33.5t-5.5 29.5t-8.5 25t-12 8.5q-15 -1 -24.5 -17t-9.5 -24q-2 -6 -3.5 -12t-2.5 -8q-6 -27 -10 -66q-5 -43 -5 -80q0 -7 0.5 -23.5t0.5 -27.5v-6v-9.5v-9.5l1 -4l1 -3 v-66v-2q0 -24 14 -52t31 -28h1q10 0 18 7.5t10 17.5q0 4 0.5 7.5t1.5 6.5v2zM298 -14q-4 -2 -17 -6l-13 -3q-60 -6 -89 -6q-36 0 -81 17q-22 8 -28 13q-7 4 -11.5 10.5t-8.5 14t-6 10.5q-16 31 -16 37q0 7 -2 19t-2 18v96q0 18 1.5 57t1.5 61v17q1 23 1 66t1 64.5t6 51.5 t15 53q0 2 2 2h1h1v1v2q0 5 10 20l10 15q3 4 5.5 7t4.5 5q58 37 113 37h3h4q12 0 21.5 -1.5t15.5 -3t14.5 -7t12 -7.5t13.5 -10.5t14 -11.5q14 -12 23 -23l3 -6q0 -2 1 -2q4 -4 6 -12q5 -10 8 -27.5t4 -31.5t2 -36.5t2 -31.5q6 -75 6 -118v-122q-2 -25 -3.5 -74t-2.5 -63 q-2 -21 -13 -47q-9 -20 -15.5 -30t-17.5 -14z" />
<glyph unicode="P" horiz-adv-x="343" d="M148 384l-1 -29q1 -7 1 -9q1 0 12 1.5t22 3.5t12 4q11 10 11 42v5q-1 10 -1 18v35q0 16 -1 23q0 7 -6.5 19.5t-15.5 12.5q-2 2 -17 2h-8q-2 0 -4 0.5t-3 0.5h-1v-129zM31 160v189v97l-2 8q0 24 -2 52l-2 36v99q0 7 16 7h102h7q37 0 43 -3h27q22 0 32 -6l20 -10 q12 -6 21 -20.5t13 -26.5l3 -11q9 -24 13 -49q4 -23 4 -60v-20v-97q0 -3 -4 -31q-9 -34 -16 -45q-3 -4 -6 -7.5t-4.5 -5.5t-3.5 -3q-2 -2 -5.5 -3t-6.5 -2l-2 -1q-3 -3 -12 -5q-8 -1 -12 -3q-24 -2 -26 -2h-20q-15 0 -20 -1q-1 0 -4.5 -0.5t-5.5 -0.5q-3 0 -9.5 0.5 t-9.5 0.5q-9 0 -9 -3v-32v-50q0 -6 -1 -8.5t-1 -4.5q3 -21 3 -33v-97q0 -17 -6 -23l-88 1q-26 0 -26 30v11v83v18v14v18z" />
<glyph unicode="Q" horiz-adv-x="402" d="M377 213q0 -90 -16 -153q0 -1 -4 -8.5t-10 -15t-10 -7.5l29 -46q7 -12 7 -13q0 -3 -19 -4l-62 -2q-7 12 -10.5 15t-7.5 10q-4 -5 -25 -10t-33 -5h-10q-82 0 -133 26q-38 17 -43 126q-1 17 -3.5 81.5t-2.5 96.5q0 84 14 165q3 20 24 106q4 11 6.5 16t7 11.5t8.5 13.5 q32 30 48 31q35 12 75 12q79 0 114 -42q6 -12 13 -22.5t9 -14.5q30 -66 30 -123v-12q0 -3 1 -12t1 -11v-21v-42q0 -7 1 -19.5t1 -15.5v-111zM165 150q4 5 30 5q6 0 18 -0.5t17 -0.5q9 0 11 1q9 -13 23 -37q0 39 -2 181v27q0 16 -1 23v20l-2 41q0 119 -50 119q-1 0 -2 -0.5 t-2 -0.5h-2q-6 0 -13 -7t-12 -13l-4 -7q-30 -79 -30 -258v-36v-13v-15v-9v-4q0 -16 6 -28q2 -3 5.5 -12t5.5 -12.5t5.5 -9.5t8 -10t10.5 -7q8 -5 19 -7l-7 10q0 4 -15.5 28.5t-16.5 31.5z" />
<glyph unicode="R" horiz-adv-x="383" d="M230 386q0 5 2 19.5t2 20.5l1 4q0 5 -0.5 14t-0.5 16t-1 9l-7 25q-15 21 -55 21q-7 0 -17 -1h-9h-1q0 3 -1 3q0 -4 0.5 -11t0.5 -9v-12v-1l2 -62v-26v-1v-43q2 1 21 2.5t37 3t18 2.5q7 19 8 26zM26 11v154v13v106v50v101v9v50v9v9q-1 10 -1 22v50l1 55q8 11 28 11h4 q39 2 80 2q4 0 15 -2t14 -2q9 0 30.5 1t30.5 1q18 0 34 -2q12 -2 18 -4t12 -9t8 -8q4 -4 10 -9t8 -8q10 -12 21 -41t13 -47q5 -37 5 -62v-1v-50q0 -10 -1 -13q-1 -28 -16 -91q-5 -16 -25.5 -31.5t-37.5 -23.5q12 -25 28 -69q11 -27 20 -60q4 -17 12 -34l15 -47v-1q1 -1 1 -2 l20 -49q-2 -2 -4.5 -3t-2.5 -3l-81 3l-46 -3h-1q-4 0 -7 6.5t-4.5 15.5t-1.5 10q-2 7 -7.5 23.5t-6.5 23.5q-5 28 -22 91q1 8 -1 13l-8 19q-9 32 -15 48q-2 5 -11 4h-10v-7q0 -6 -0.5 -38.5t-0.5 -51.5l3 -61v-64q0 -17 -8 -20h-21h-17q-1 0 -2 1t-2 1q-5 0 -13 -1t-13 -1 h-36q-6 0 -8 17z" />
<glyph unicode="S" horiz-adv-x="374" d="M164 454l8 -18q8 -10 45.5 -42t43.5 -40q10 -15 25.5 -34.5t23.5 -30.5t17 -32t15 -49q4 -21 4 -39q3 -23 3 -47q-2 -72 -24 -99q-9 -10 -25 -23q-4 -2 -13.5 -7.5t-15.5 -9t-8 -3.5l-5 -1q-5 -1 -13.5 -3t-18 -4t-20 -3.5t-19.5 -1.5h-8q-15 0 -71 8q-64 10 -83 98 l-2 62v50q0 3 1 20v14q0 11 6 11h110q2 0 3 -3t1 -7v-3v-27l-1 -48q1 -13 3 -22q4 -18 11 -27q1 0 10 -4t11 -4h1l9 3q10 3 18 10t8 10q5 6 8 17l4 11l1 4q0 4 -0.5 10t-0.5 8q-1 12 -11 39.5t-21 39.5q-13 20 -37 43t-29 28q-2 2 -5 5.5t-5.5 6t-3.5 2.5q-6 3 -6 5 q-3 3 -3 4v1q0 1 -1 1q-5 7 -26 25q-7 8 -14.5 14t-11.5 12t-10 20q-17 44 -17 77q0 13 1 20q1 9 4 21t5.5 21.5t2.5 10.5l5 10l1 1v1q5 6 8 16q6 13 19.5 24.5t16.5 16.5q3 4 5.5 5.5t2.5 2.5q10 10 35.5 18.5t54.5 9.5h12q69 0 99 -19q19 -10 21 -13q10 -7 18 -21 q4 -8 8 -19q4 -6 4 -34v-13q2 -11 2 -21v-30v-6q0 -17 -4 -25q-5 -14 -22 -14l-77 3h-8q-9 0 -11 2.5t-2 14.5v9l-2 8v17l-2 8q-2 3 -6 13t-7 12q-7 7 -16 7q-15 0 -26 -19q-7 -13 -7 -28q0 -6 1 -16t1 -14q-1 0 -1 -1z" />
<glyph unicode="T" horiz-adv-x="309" d="M283 643q9 -3 8 -5v-100q0 -7 -22 -7h-10h-14h-2h-11.5t-8 0.5t-5 0.5t-3.5 -1l-2 -4v1v-18v-97q0 -7 -1 -28.5t-1 -29.5q0 -7 1 -17.5t1 -11.5q3 -37 3 -68q0 -11 -0.5 -33.5t-0.5 -35.5l3 -27t3 -25v-5q1 -5 0 -12l-1 -7v-97q0 -17 -12 -21h-111v3v1q-2 0 -2 2 q0 43 -2 91v96q0 12 1 37q-1 10 -1 24q-2 37 -2 110q0 79 3 166v6h-69q-4 0 -4 3q-1 3 -1 5v50v2h1v0v41q0 10 12 10h10q10 4 23 4h9z" />
<glyph unicode="U" horiz-adv-x="372" d="M231 224v71v43l-2 4v1v83l2 12q-2 25 -2 33l-2 146q0 11 4 11h106q8 0 8 -13v-9q2 -30 2 -38v-32v-25q1 -21 1 -60q0 -20 -0.5 -56t-0.5 -52q0 -36 1 -51l-1 -80v-97q0 -6 -2 -17v-7q0 -47 -32.5 -80.5t-73.5 -33.5l-102 1q-15 0 -39 6h-1q-1 2 -2 3h-2q-12 2 -30 13 q-17 9 -24 24q-5 9 -10 28q-4 16 -4 53v96q0 30 4 78v6q0 9 -1 26t-1 24v9v43v36q1 12 1 36v20q0 10 0.5 32t0.5 31q0 17 -0.5 32.5t-0.5 25.5v12q1 24 5 24h1h73h2h1h14q14 0 17 -3q6 -5 6 -25q0 -21 0.5 -41t0.5 -33v-58q0 -14 -3 -68v-7v-50q-1 -12 -1.5 -28.5t-1 -38 t-0.5 -32.5q-1 -9 -1 -27q0 -13 1 -39t1 -37q0 -16 -1 -23q1 -3 1 -4q4 -8 14 -18q2 -2 14 -8q3 -3 13 -3h7q14 1 26 9.5t12 23.5q0 2 0.5 10.5t1 25.5t0.5 34v14v2v12z" />
<glyph unicode="V" horiz-adv-x="406" d="M141 634q1 -4 8 -55q1 -8 6 -59q0 -10 1.5 -22.5t1.5 -17.5q0 -7 -1 -11q2 -12 19 -151t19 -152q1 10 8.5 40.5t11.5 57.5q3 16 5 31q0 4 1.5 10.5t1.5 10.5q1 10 3.5 33.5t3.5 32.5l6 36l10 71q0 2 2.5 8.5t3.5 9.5v8l3 19v6q10 73 18 101q1 3 3 3h65h1h1h47q2 0 4 -2 l2 -12l-11 -50l-8 -46l-2 -8v-1q-1 -9 -5 -27t-5 -32q0 -4 -3 -22.5t-3 -19.5q-7 -25 -12 -73v-2q0 -15 -10 -60v-1q-5 -46 -16 -115q-1 -4 -3.5 -9t-2.5 -7q-5 -42 -6 -48q-1 -4 -1.5 -9.5t-1 -9t-1.5 -5.5q-2 -16 -2 -19v-1q-1 -1 -12 -45q-1 -14 -4 -17h-2q-1 -3 -4 -3 h-159q-9 0 -16 17q-3 10 -5.5 20.5t-4.5 17.5q-3 16 -11 58.5t-11 64.5q-3 14 -6 35.5t-5.5 37.5t-6.5 29q-2 12 -2 27q-14 80 -16 122q-4 29 -6.5 55.5t-4.5 41.5q-2 10 -2 12l-3 45l-5 50q0 6 4 6q0 1 2 1l36 2h74z" />
<glyph unicode="W" horiz-adv-x="615" d="M260 613h102q10 0 10 -6v-20q0 -4 1 -9t1 -7q1 -7 2 -23t1.5 -35t0.5 -25l23 -304q45 314 47 316q4 4 4 28v7q1 7 1 8l9 42q7 44 10 50q2 4 5 7l3 4h34h3h1h67q17 0 17 -5l-10 -50l-7 -31q-1 -8 -3 -18.5t-4 -19t-2 -10.5q-2 -18 -5.5 -38.5t-7.5 -42.5t-6 -32 q-2 -15 -7 -38t-6 -28q-12 -57 -20 -122q0 -3 -1 -8t-1 -6q-10 -55 -12 -71l-6 -42q-9 -39 -10 -49q-10 -45 -18 -45h-125q-6 5 -17.5 80t-19.5 148l-8 72l-47 -290q-2 -3 -5.5 -7t-4.5 -6l-121 2q-10 0 -15 14t-5 24q-4 17 -8 41q-4 38 -10 66q-1 10 -2.5 21t-2.5 18.5 t-1 16.5q-4 8 -4 21q-2 8 -2 17l-2 21q-1 7 -1.5 15.5t-0.5 11.5q0 1 -2 4l-2 2l-4.5 27t-4.5 31q-1 4 -1 8q0 2 0.5 5t0.5 5l-1 2v3q-1 2 -6 21t-6 25q-3 22 -8.5 56.5t-9.5 62t-7 54.5l-8 50l3 8h1h78h1h42q10 -16 12 -49l1 -1v-16l3 -4v-1q2 -9 3.5 -23.5t2.5 -19.5 q13 -116 32 -260q8 -68 9 -70q0 2 2.5 30t7.5 72t10 74q1 4 5 12.5t4 12.5l-2 14q11 77 11 90q6 32 8 54t3 29v16q2 7 2 10q1 1 3 1h2q0 1 1 2z" />
<glyph unicode="X" horiz-adv-x="403" d="M256 -6q-3 1 -4.5 4t-2 6t-1.5 4q-2 5 -6 21q-1 0 -1 2q-6 11 -8 18t-2 17t-1 15l-5 20t-4 19q-3 9 -4 19q-1 1 1 5.5t1 5.5q-1 4 -4.5 9t-4.5 9l-9 40v1q-6 0 -24 -73q-2 -9 -3.5 -21.5t-2.5 -19.5l-5 -23q-19 -73 -20 -74l-2 -1q-1 -1 -2 -1h-60h-1h-63q-3 0 -4 1 q-2 3 -2 6l19 50q14 53 18 62q4 15 6 19q1 5 3 12t4 13.5t3 8.5q22 61 30 99q1 1 10 41q-10 41 -40 145q-4 0 -8 22v10l-4 6l-10 34l-1.5 7.5t0 3t-0.5 1.5l-12 46l-12 50v3l55 1l71 -1q9 0 12 -14q10 -43 15 -70v-11.5t1 -11.5q1 -3 3.5 -7t2.5 -6q1 -3 2 -7.5t2 -7.5 q6 -34 11 -53l8 -39l8 34q7 20 15 51.5t13 53.5l4 22v13q2 6 4 18t4 15q2 5 3.5 11t2.5 8.5t4 2.5h2q1 1 2 1q17 1 56 1l71 -1q2 -1 2 -3l-15 -55l-14 -47v-8q-5 -11 -6 -15q-3 0 -6.5 -10t-3.5 -13q-3 -8 -5 -15.5t-3 -11.5t-2 -6q-2 -8 -3 -18t-1 -11q-10 -23 -18 -57 l-14 -62l4 -16q11 -41 12 -45q5 -18 13.5 -56.5t14.5 -57.5q2 -7 5 -18q2 0 4 -5.5t3 -12.5l2 -7l12 -40v-1l18 -50q-2 -4 -8 -4h-124z" />
<glyph unicode="Y" horiz-adv-x="355" d="M168 411q3 10 14 64q13 39 32 134l10 40q1 0 2 1h2h109q8 0 8 -10l-16 -50l-12 -46l-4 -14q-1 -5 -25 -87l-20 -66q-2 -7 -6 -17.5t-6 -17.5v-2q-1 -3 -1 -5l-1 -1v-1q-2 -6 -3 -11.5t-3 -10.5q-1 -2 -19 -66v-20q0 -17 0.5 -45.5t0.5 -41.5v-51v-84v-1q0 -11 -10 -11 h-106q-6 1 -6 12v97v5.5t0.5 4.5t0.5 4v1q0 3 -1 7v4v50v12l1 6l-3 9v15q0 1 -1 4l-1 3l-4 41q0 2 -3 14l-3 11q-1 13 -7 35.5t-7 26.5q-7 34 -22 96q-2 5 -3.5 13t-2.5 13q-4 17 -13 45l-16 62l-8 35q-2 12 -2 14q0 7 16 7h81q9 0 11.5 -3t3.5 -9q0 -5 1 -8q1 -8 17 -78.5 t16 -71.5l6 -33z" />
<glyph unicode="Z" horiz-adv-x="284" d="M248 -12h-166q-10 0 -13 1q-11 0 -15 2q-7 1 -8 3h-1h-1h-6q-2 0 -2 2v75q11 43 25 105l33 152l2 10v8l2 12l2 8l2 4q1 5 3 13t4 17.5t4.5 22t4.5 23.5q3 4 3 18l1 1v6v1q2 22 7 34q-41 0 -65 4h-9q-4 0 -6 1h-12q-2 0 -4 1q-3 0 -5.5 2t-3.5 4t-1 3l2 114q0 4 8 4h102 q1 0 13.5 -1.5t29 -3t26.5 -1.5h33q22 0 22 -6v-96l-2 -2q-1 -9 -4 -17q-1 -5 -2 -7v-1v-1v-13l-50 -240q-1 -5 -2.5 -9.5t-1.5 -6.5v-17q0 -6 -2 -7l-2 -2l-1 -4q-1 -5 -3 -14t-4 -20q-1 -3 -1.5 -6.5t-0.5 -5.5l-8 -38q5 0 21 -0.5t24 -1.5h27q12 0 12 -5l-3 -116 q-2 -7 -8 -9z" />
<glyph unicode="[" horiz-adv-x="242" d="M149 428v-244v-138h42q14 0 24 -6v-3v-61q-1 -7 -10 -7h-28q-11 -1 -14 -1h-104q-9 0 -27 2h-1q-2 0 -3 1t-2 3l-1 2v96q1 74 6 155v15q1 11 1 37q0 24 -1.5 70.5t-1.5 61.5v12v1l-1 102q0 23 1 55t1 41q2 17 4 47v1q0 10 8 13h136q12 0 17.5 -1t7.5 -1h1h6q4 0 6 -7v-61 q0 -7 -10 -7h-54q-1 -20 -1 -81l-1 -1v-1q-1 -21 -1 -48v-47z" />
<glyph unicode="\" horiz-adv-x="417" d="M29 643l61 2h2h48h1q4 0 4 -2q6 -6 6 -14q49 -144 60 -170q15 -35 20 -60q6 -24 22 -58q11 -45 46 -122l8 -27q4 -16 30 -85q0 -1 3 -7t7 -14.5t6 -12.5l18 -41v-1l21 -50q0 -5 -10 -6h-114q-4 5 -7.5 12t-7 16t-5.5 13q-25 57 -66.5 172.5t-61.5 162.5l-24 70 q-20 66 -28 85q0 1 -6 15t-8 21l-14 45l-15 50q0 6 4 6z" />
<glyph unicode="]" horiz-adv-x="241" d="M92 428v47q0 27 -1 48v1l-1 1q0 61 -1 81h-54q-10 0 -10 7v61q2 7 6 7h6h1q2 0 7.5 1t17.5 1h136q8 -3 8 -13v-1q2 -30 4 -47q0 -9 1 -41t1 -55l-1 -102v-1v-12q0 -15 -1.5 -61.5t-1.5 -70.5q0 -26 1 -37v-15q5 -81 6 -155v-96l-1 -2q-1 -2 -2 -3t-3 -1h-1q-18 -2 -27 -2 h-104q-3 0 -14 1h-28q-9 0 -10 7v61v3q10 6 24 6h42v138v244z" />
<glyph unicode="^" horiz-adv-x="286" d="M175 779h1q14 -7 14 -9q6 -11 8 -13q12 -16 13 -21l30 -36l20 -33q-1 -2 -4 -2l-84 1l-30 55l-29 -52h-85q-4 0 -4 2l24 29l25 36q3 7 17 21q3 3 4 6t4 7q2 3 11 9h2q0 1 14 1q10 0 28.5 -0.5t20.5 -0.5z" />
<glyph unicode="_" horiz-adv-x="334" d="M171 25h122q4 0 5 -1h1q7 -1 10 -4v-51q0 -3 -2 -4.5t-6 -2.5h-4q-3 0 -11 -0.5t-9 -0.5h-234q-8 0 -16 2q-2 4 -2 5v51q0 6 10 6h106h1h29z" />
<glyph unicode="`" horiz-adv-x="216" d="M27 779l81 2q7 0 11 -4q5 -5 7 -10q1 1 1 0l1 -3q7 -6 6 -8q-1 -1 1 -4q2 -2 12 -17v-1l7 -10l36 -53q2 -4 0 -6l1 -2l-84 2l-8 1q-1 0 -2 0.5t-1.5 1t-2.5 3.5t-5 6l-5 7q-8 13 -29 43.5t-28 41.5q-1 3 -1 5t1 4z" />
<glyph unicode="a" horiz-adv-x="412" d="M308 628q3 -25 10.5 -70.5t9.5 -59.5v-10q0 -12 1 -18l7 -24q24 -166 27 -184q1 -4 2.5 -9t1.5 -7v-16q2 -13 8 -45t8 -52v-10q0 -3 4 -23l6 -47v-9v-1l7 -48q0 -2 -2 -4l-115 -1q-7 0 -15 33q-2 9 -5 35q-4 38 -20 140l-71 1l-8 -34q0 -1 -1.5 -11t-1.5 -11l-3 -12 l-2 -24q-3 -26 -8.5 -62.5t-7.5 -49.5q-1 -1 -3 -1h-1h-66h-1h-16q-41 0 -41 10v3l9 50l6 31q1 2 1 5v3l-1 1q2 4 2.5 13t1.5 13q1 8 2.5 11t1.5 5q9 73 44 269l10 60v18q3 22 13.5 72.5t12.5 74.5q0 14 12 15h2l62 -2l20 -6l14 5l69 -3q10 0 12 -2q2 -10 2 -12zM180 304 l60 -1q-9 59 -14 96t-5 38v4v10v4q-1 4 -3 8.5t-2 7.5l-8 55z" />
<glyph unicode="b" horiz-adv-x="366" d="M28 14l-2 120v4v1l-1 58q3 29 3 46v33v5q0 6 1.5 16.5t1.5 15.5l-3 56v8v6l1 2h1v0l-1 58v16v45v14v1l-2 114q0 14 3.5 17t14.5 4q10 2 19 2h10h3q4 1 7 1h2l107 2h5h1l23 1q22 0 36 -9q32 -21 35 -25q5 -10 8 -13q1 -5 1.5 -6t0.5 -2q7 -14 11.5 -34t5.5 -34t2.5 -39.5 t2.5 -35.5l-5 -48q-4 -21 -12.5 -32t-15.5 -15t-8 -7l10 -6l18 -10l10 -6q0 -4 1 -4l3 -1q4 -6 6.5 -11t4 -9t1.5 -5q4 -15 5 -27q1 -9 2 -78v-17q0 -52 -6 -98q-1 -4 -2 -7.5t-2.5 -5.5t-1.5 -3q-1 -6 -2 -10.5t-1 -5.5q-1 -4 -2 -7l-1.5 -4.5t-1.5 -2.5t-1 -2 q-2 -8 -5.5 -13t-7.5 -9t-5 -6q-3 -7 -6.5 -11t-5.5 -5.5t-6 -3t-5 -1.5q-20 -8 -54 -8l-154 -3q-20 0 -38 2q-9 0 -9 32zM165 101h5q8 0 19 6q8 5 21 20q11 13 11 17q7 15 7 44v11v12q0 15 -7 55q-1 7 -5 15q-3 5 -11 13q-1 4 -14 6t-28 2.5t-16 0.5h-1v-25q0 -39 -2 -107 v-3q1 -5 1 -10v-1l1 -48q0 -2 5 -4t9 -3zM149 525l1 -24q0 -58 -1 -59l1 -34q2 0 4.5 -1.5t6.5 -1.5q1 0 3.5 0.5t4.5 0.5h12h2q8 1 15 12q3 4 10 21q2 7 2 33v21q-3 12 -4 13q-4 17 -16 26t-25 9q-19 0 -16 -16z" />
<glyph unicode="c" horiz-adv-x="363" d="M340 166v-21q0 -74 -19 -126q-2 -8 -4.5 -13t-4 -7t-6 -5.5t-5.5 -4.5q-20 -9 -28 -9l-18 -1h-4h-1h-47q-49 0 -68 4q-36 6 -46 11q-5 3 -10 9l-6 5q-7 3 -12 14q-6 11 -6 12q-14 19 -16 31q-6 26 -8 46v2l-2 14q-2 8 -2 16q-2 34 -2 99v96q0 66 4 140q1 9 2.5 20.5 t2.5 20t1 11.5q2 22 24 68q7 12 18 25l6 8v1q22 26 108 26q70 0 99 -17q21 -20 30 -68q10 -42 10 -64v-96q0 -11 -2 -17q0 -4 -1 -6.5t-2 -2.5h-1h-101q-6 0 -9.5 3t-3.5 4.5v4.5q-2 6 -2 27q-1 7 -1 12v30q0 3 -2 23t-3 24q0 8 -6 13.5t-14 5.5t-14.5 -5.5t-7.5 -16.5h-1v0 v1l-6 -51q-8 -48 -8 -84v-1v-1v-12v-55q0 -5 -0.5 -9.5t-0.5 -7.5v-4q0 -8 0.5 -16t0.5 -10q1 -47 4 -69q2 -25 3 -41q3 -36 19 -52q11 -10 21 -9q3 -1 6 0.5t5 4.5t3.5 5.5t2.5 4.5t2 1q0 3 2 9.5t3 11.5l2 6v19q0 14 0.5 36.5t0.5 35.5q2 16 2 17q0 4 6 7t12 3l6 1h48h25 q14 -1 17.5 -3.5t3.5 -10.5v-8v-6z" />
<glyph unicode="d" horiz-adv-x="379" d="M151 103h4q6 0 19 1.5t23 2.5l10 1q16 4 28 26q6 11 6 37q0 18 -0.5 57.5t-0.5 58.5v9v41q0 64 -6 123q-1 5 -1.5 8.5t-0.5 5v3v2.5t-1 3q-3 19 -14 33q-7 12 -26.5 22t-31.5 10q-9 0 -10 -6v-24v-1v-46q0 -10 -1 -27t-1 -18v-43q2 -25 2 -72v-44v-76v-28q0 -10 0.5 -30 t1.5 -29zM311 615q3 -3 5 -6.5t4 -5.5l1 -2q4 -5 5 -10t1 -6q2 -4 6 -7l4 -3q4 -11 7 -28.5t5 -24.5q0 -2 1.5 -14t2.5 -14v-10q0 -10 0.5 -26.5t1 -37.5t1 -44t1 -44t0.5 -40v-31v-97q0 -35 -2 -47q-1 -18 -5.5 -31.5t-13.5 -31t-10 -20.5q-35 -45 -152 -45h-41 q-69 2 -78 4q-10 1 -13 2t-7 4t-5 8t-1 14v75q2 74 2 105q0 54 -3 173t-3 180v78q0 13 4 18q4 4 24 10q26 7 48 7q131 -7 171 -22q32 -11 39 -30z" />
<glyph unicode="e" horiz-adv-x="275" d="M27 321v183q0 5 1 10v5q0 3 -0.5 6.5t-0.5 4.5q-1 4 -1 9v97q0 7 6 7q12 1 19 1h112l7 -1h59q20 0 20 -5v-97q1 -1 0 -2q-6 -6 -26 -6h-8h-52q-5 0 -7 -1h-3q-3 -12 -4 -13v-95q1 -3 1.5 -5.5t1 -3.5t0.5 -2h77q11 0 10 -6v-97q0 -4 -4 -6.5t-6 -2.5q-6 -2 -13 -2h-1h-56 q-3 -1 -5 -1h-1q-2 -6 -2 -12v-32q0 -19 -0.5 -47.5t-0.5 -39.5q0 -16 2 -58q6 -5 15 -5h23q15 0 20 -1h26q7 0 10.5 -1.5t3.5 -2.5v-2v-96q-3 -6 -18 -9q-10 -3 -20 -3h-103l-10 3q-3 2 -9 2t-12 -1l-7 -1q-15 0 -18 1q-5 0 -7 1h-11q-10 2 -10 13v96v7v3l2 94q0 9 -1 18 t-1 13q0 2 1 32t1 51z" />
<glyph unicode="f" horiz-adv-x="264" d="M30 278q-2 42 -2 69q0 41 2 69v38v2v34v18v8v24l-1 50v2v46q0 6 16 6q9 0 24 1t21 1h7l39 -2l13 2h50q11 0 29 -3q4 0 6.5 -2t3.5 -4l1 -2v-101q0 -2 -4 -4q-2 -1 -4 -1h-63q-2 -1 -4.5 -1.5t-4.5 -1.5l-2 -1v-12v-1v-27v-22v-16v-26q1 -3 1.5 -5.5t0 -3.5l-1 -2t-0.5 -2 v-41l4 -3h72q6 0 6 -8v-8v-7q-3 -18 -3 -21q0 -2 1.5 -6t1.5 -6v-23v-31q0 -1 -2 -3t-8 -2h-51q-10 -3 -13 -3h-8q-4 -27 -4 -51v-51v-97v-36v-1v-6q0 -13 -6 -13q-12 0 -19 1q-6 1 -15 1q-4 0 -22 -2h-22h-30q-7 0 -10.5 1t-3.5 1.5v3.5l5 97v17v1v1q1 7 0.5 13t-0.5 7v1 v53q1 9 1 29q0 10 -0.5 30.5t-0.5 31.5z" />
<glyph unicode="g" horiz-adv-x="360" d="M145 163l4 -26q1 -3 5.5 -15t7.5 -15q7 -11 12 -13q2 -5 15 -5q10 0 21.5 4t11.5 8l5 16q-1 8 -1 21v16v9q-5 -1 -11 -1q-5 0 -7 1q-4 2 -12.5 3t-12.5 5t-4 14q0 57 1 78q0 4 2 6.5t6 4t7.5 2t9 1t8.5 0.5q16 2 28 2l38 -2h21q24 0 29 -3q5 -25 5 -65v-51q0 -23 1 -34 v-50v-49q0 -17 -5.5 -24t-18.5 -10q-42 -15 -117 -15q-9 0 -22 -0.5t-17 -0.5q-27 0 -45 11q-36 19 -52 39t-24 59q-11 80 -11 167q0 41 3 113.5t4 98.5q0 5 10 41q0 2 6 41q3 11 7 26.5t5 18.5q3 9 5.5 14.5t4.5 8t8 8t10 10.5q1 13 39.5 23.5t81.5 10.5q67 0 88 -27 q8 -7 13 -15.5t7 -11.5l6 -16q4 -4 4 -14q2 -4 6 -39q2 -21 2 -40q2 -13 2 -20v-42v-29q0 -16 -2 -19h-112q-3 2 -3 8v7v17q0 17 -2 45q-1 20 -4 33q-4 30 -10 39q-7 11 -19 13q-1 0 -2 0.5t-2 0.5q-10 0 -13 -13q-4 -4 -10 -32q-8 -37 -9 -71q0 -49 -5 -92v-12 q0 -10 -0.5 -19t-0.5 -14q0 -10 1 -16q0 -3 1.5 -62.5t1.5 -60.5z" />
<glyph unicode="h" horiz-adv-x="357" d="M330 626v-96v-10l-1 -6q0 -4 0.5 -10.5t0.5 -8.5v-21v-37q0 -34 2 -88q-4 -59 -4 -231v-7v-97q0 -11 -6 -14h-108q-12 0 -12 31v50q0 15 2 31v28q0 65 1 81q-1 6 -1 8l-50 -2q-2 -16 -2 -23v-30v-51v-121v-1q0 -9 -6 -9h-106q-11 3 -11 52v21q0 12 -1 16v151q0 26 0.5 81 t0.5 76l-1 76v-4v-1q-3 119 -3 156q1 3 0.5 14t0.5 13q1 5 4 5h106q8 0 8 -17q0 -26 2 -69t2 -58v-11q2 -7 2 -20v-1v-2q-2 -28 -2 -34q2 -62 2 -90h2h54q1 3 1 7l1 2v24q0 11 2 19v5v4q-2 13 -2 23v10v10q-4 72 -4 86v97q0 7 1.5 11t2.5 4h2h108q12 -1 12 -22z" />
<glyph unicode="i" horiz-adv-x="178" d="M39 640h110q4 0 4 -6v-4v-96v-18v-1v-58l-2 -8q2 -10 2 -23v-88q0 -22 -1 -70t-1 -68v-17q-1 -7 -1 -24v-27v-12v-1q1 -1 1 -2v-88q0 -5 -0.5 -9t-0.5 -5l-1 -1v-9q0 -4 -10 -19q-2 -2 -5 -2h-73h-1h-1h-28q-6 0 -6 12v87q0 24 2 76.5t2 70.5l1 21q-1 15 -1 45v48v67v115 v97q0 17 10 17z" />
<glyph unicode="j" horiz-adv-x="328" d="M301 415q2 -30 2 -43q0 -10 -0.5 -27t-0.5 -24q0 -18 1 -25v-12v-17v-97q0 -62 -10 -104q-1 -6 -4 -9q-3 -11 -4 -13l-15 -24q-6 -5 -10 -11t-7 -8q-7 -7 -12 -9q-28 -13 -80 -13h-42l-19 2q-19 2 -20 2q-27 16 -43 41q-19 39 -20 51q-2 11 -2 16l1 96q0 8 1 8l1 5v26 q1 4 0 12.5t-1 10.5q0 12 7 12h72h3h32q6 0 6 -5v-1v-29v-12q-1 -5 -1 -15q0 -6 0.5 -16t0.5 -14q-1 -7 -1 -19v-15v-5q1 -2 4 -12t7.5 -14.5t12.5 -6.5l13 2l5 14l5 14q0 4 -1 31.5t-1 28.5l2 39q-1 2 0 2v1q-3 30 -3 104v50q0 23 0.5 42.5t0.5 34.5q0 17 -1 22l-3 143 q1 7 8 11h110q1 -1 4 -18v-35v-50v-44z" />
<glyph unicode="k" horiz-adv-x="405" d="M236 50l-87 242q0 -1 -0.5 -3.5t-0.5 -5v-7v-9.5q0 -19 0.5 -51l1 -64t0.5 -61.5v-48.5l1 -20v-9q0 -4 -2 -8.5t-5 -7.5l-3 -3l-4 -2h-1h-73h-1h-29q-5 0 -5 9v50q0 29 -0.5 91.5t-0.5 109.5q0 8 1.5 27t1.5 29q0 6 -1.5 19.5t-1.5 20.5q0 94 -2 182v65q0 54 8 54h44 l22 -4l12 4h26q6 0 6 -10l2 -259q0 6 17.5 50t20.5 50q4 7 19.5 45t29.5 73.5t15 36.5q8 14 34 14h83q16 0 18 -2q1 0 3 -2q2 -7 -1 -12l-17 -36q-6 -13 -24.5 -61.5t-19.5 -51.5q-14 -36 -20 -48q-4 -8 -6 -10q-5 -5 -6 -15v-1q-1 -3 -9 -22t-16 -36l-7 -18l-1 -1l3 -6v-9 q2 -3 2 -4v-2l21 -49l11 -31l16 -36l6 -16l6 -15v-3q3 -7 12 -31t12 -31q27 -62 28 -64v-1l20 -50l-97 -2h-3h-1h-26q-5 0 -9 4.5t-6 10t-3.5 11t-1.5 6.5q-2 3 -3 7l-1 3q0 4 -8 25z" />
<glyph unicode="l" horiz-adv-x="277" d="M29 126q1 14 1 38l-1 2v143q0 29 2 43q-3 20 -3 42q0 4 0.5 13t0.5 13t2 10t2 10q1 3 -1 9t-2 9q0 5 0.5 15t0.5 15q0 15 -2 39v96q0 15 8 15h74l23 2l19 -2q2 0 3 -2.5t1 -5.5v-2v-20v-32v-51q0 -14 0.5 -64.5t0.5 -60.5q0 -2 -2 -11t-1 -11l-1 -14q2 -7 1 -16v-12 q-2 -2 -2 -16v-15v-8v-12v-46l-1 -87v-33q0 -3 -0.5 -8t-0.5 -6q1 -5 1 -7h71q24 0 29 -5q2 -1 2 -2l1 -59v-1v-41q0 -7 -7 -7h-1h-144q-11 0 -31 0.5t-27 0.5h-16l-4 8v50q0 10 2 40t2 42v2z" />
<glyph unicode="m" horiz-adv-x="508" d="M153 324v-94v-71q0 -4 -1 -10t-1 -10q0 -3 1 -9t1 -9v-44v-59q0 -18 -2 -30q-2 -4 -6 -4h-73q-2 0 -3 1h-1h-21q-10 0 -13.5 1.5t-4 3.5t-1.5 9v1q0 36 1 58v30q0 6 -1 22t-1 23q0 52 -1 144.5t-1 136.5v97q0 50 2 134v1q0 5 2 8l2 3v1v1q25 -2 41 -2q2 0 6 1t7 1h15h37 q5 0 8 -2l3 -2h1q6 -16 16 -62q1 0 4 -7l2 -3q1 -7 2.5 -11t1.5 -8q6 -25 10.5 -37t9.5 -33l4 -23l4 -23l52 -143l27 87l17 62q3 13 9.5 31t8.5 28l4 5v2v3q4 14 8.5 20.5t7.5 20.5q2 6 6 25l4 4q1 2 12 33h2v2q2 3 3.5 2.5t2.5 0.5h102q5 -3 7 -12t2 -20.5t1 -15.5v-108 q0 -30 -2 -52q1 -11 2 -12q2 -36 2 -41v-96q0 -12 -1 -26.5t-1 -19.5l-2 -12q2 -12 2 -13q1 -18 1.5 -46.5t2.5 -44.5v-11l-3 -44l3 -53q0 -4 -0.5 -6t-1.5 -2h-2q-19 -1 -31 0q-2 0 -7.5 2t-8.5 2q-2 0 -5 -2t-6 -2h-20h-26q-5 0 -6 1q-5 3 -5 10q0 2 0.5 8.5t0.5 12.5v304 l-29 -117q-5 -12 -7 -20q-1 -3 -1 -7.5v-6.5l-29 -116q-8 -34 -20 -46h-48q-8 6 -21 53.5t-24.5 99t-22 101.5t-10.5 51z" />
<glyph unicode="n" horiz-adv-x="410" d="M27 152v10v72l-2 5v50q2 8 2 13v1v1q1 9 1 22q0 18 -0.5 49t-0.5 46v101v82q0 20 6 35l7 1h-1h114q4 0 7 -2t4 -4.5t2 -5.5t1 -4q1 -11 10 -60v-12l4 -7l76 -277v7v104v80q0 5 2 12t2 12l-4 67l1 2q0 3 1 5v79q0 7 3 10l1 1v1v1l69 -1l6 -3l10 3l27 1q3 0 5 -1t2.5 -2.5 t1.5 -1.5h1v-97q-3 -74 -3 -140v-31q0 -20 1 -28q1 -21 1 -69q0 -41 -1 -61l-2 -98q-2 -68 -2 -91q-4 -38 -10 -46l-104 1q-6 0 -11 4.5t-9.5 13t-7 15.5t-5.5 16t-4 11q0 2 -2 8l-2 6l-72 196v-130q0 -11 -1 -12v-6q0 -2 1 -6l1 -4q-2 -25 -2 -54q0 -16 2 -44q0 -4 -3.5 -7 t-8.5 -5l-5 -3q-7 -1 -27 -1l-70 3q-12 8 -12 17v150z" />
<glyph unicode="o" horiz-adv-x="381" d="M49 34q-4 6 -6 10.5t-2.5 5.5t-0.5 2l-1 2v1q-4 3 -6.5 9.5t-3.5 17.5t-1.5 18.5t-1.5 23t-1 21.5q0 5 -0.5 13t-0.5 11v5l1 96v9l1 18q-3 47 -3 147q2 18 3 50t5 52q0 1 1 4l1 4h1q-1 0 -1 1v1q3 20 46 70q16 13 47 26q7 1 24.5 5.5t31.5 4.5h4q32 -1 69 -9.5t54 -21.5 h1l3 -3q3 -4 7.5 -9t6.5 -9q17 -29 21 -71q3 -26 5 -118q2 -26 2 -50q0 -8 0.5 -23t0.5 -21q0 -35 1 -48v-6q0 -3 -0.5 -6t-0.5 -4v-13v-21v-3q0 -8 1 -16l-1 -74q0 -120 -100 -156q-27 -11 -57 -11h-7q-50 0 -98 27q-38 21 -45 38zM233 357q-1 10 -1 31q0 9 0.5 25.5 t0.5 24.5q0 13 -2 33q-1 5 -2 14t-1.5 12t-2 8.5t-4 8t-6.5 6t-10 6.5q-6 2 -9 2q-30 0 -35 -15q-11 -36 -14 -114q2 -9 2 -17l-2 -111q0 -29 -4 -45q1 -8 1 -17q6 -75 15 -82q5 -10 5 -12v-1q2 -3 12 -6t20 -4l11 -2q5 5 13 7.5t14 13.5l2 39q-2 76 -3 85v10v14v86z" />
<glyph unicode="p" horiz-adv-x="345" d="M211 413v1v5q0 16 -3.5 46t-6.5 31q-9 19 -20 23q-2 1 -7.5 1h-7.5q-6 1 -12.5 0t-9.5 -2t-3 0v-21q0 -88 -2 -99q4 -55 4 -72h4h22q42 0 44 24q0 2 0.5 7.5t0.5 8.5q0 26 -3 47zM27 171q0 5 -0.5 7.5t-0.5 3.5v2q-1 0 -1 1v3.5v7.5q0 83 1 126q0 6 1.5 17.5t1.5 17.5 q0 3 -1.5 8.5t-1.5 8.5q0 28 0.5 80.5t0.5 75.5v5l-2 5v96q0 13 38 13h57q101 0 120 -14q5 -6 12.5 -12t8.5 -7q9 -9 18 -24.5t15.5 -30t8.5 -16.5q5 -17 6 -19q4 -10 4 -11q0 -5 2 -14.5t2 -10.5q8 -31 12 -99v-19q0 -40 -6 -65q-12 -49 -41 -68q-42 -29 -105 -29h-32v-29 q0 -5 1 -41t1 -55q0 -7 1 -17t1 -12v-50q0 -15 -10 -15h-47l-20 3l-31 -3h-4q-11 0 -11 12v7v5q-1 14 -1 44q0 40 2 96v1v15z" />
<glyph unicode="q" horiz-adv-x="389" d="M175 516v1q-1 -6 -7 -18.5t-6 -19.5q-4 -15 -5 -26q-17 -73 -17 -111l-3 -44q2 -34 2 -45q0 -9 -0.5 -27t-0.5 -29v-24q0 -2 7 -30q17 -35 38 -39h3l-18 36q-6 12 -6 13q0 4 13 5h11q16 0 27 -1q15 0 18 -8q2 -8 10 -20q5 18 5 87v95q0 9 0.5 27.5t0.5 27.5q0 39 -5 59 q0 3 -2 9q-1 8 -2.5 22t-2.5 20t-4 13.5t-7 12.5q-9 20 -25 24h-3l-2 1q-11 0 -19 -11zM341 -24q0 -9 -21.5 -17.5t-37.5 -10.5h-2q-3 0 -9 2l-13 29q-36 -11 -72 -11q-74 0 -115 36q-26 23 -34.5 61.5t-11.5 116.5q-2 22 -2 61q0 23 1.5 69t1.5 67q0 2 3.5 34.5t5.5 42.5 q2 12 6 27.5t4 18.5q1 12 6 28.5t7 25.5l4 9v1q1 10 6.5 20.5t5.5 11.5q15 30 37.5 41.5t70.5 19.5q28 4 40 4q115 0 136 -151q2 -2 2 -10v-21q4 -23 4 -75v-97q0 -33 -2 -73q0 -37 -11 -135q-3 -29 -13 -52q-9 -24 -17 -32q1 -3 6.5 -12.5t8.5 -16.5q5 -7 5 -12z" />
<glyph unicode="r" horiz-adv-x="389" d="M237 464q-1 5 -1 13q-2 12 -7.5 20.5t-5.5 10.5q-4 19 -56 19h-16h-2v-27q-3 -8 -3 -14l3 -20v-117q2 0 11 0.5t21 1.5t22 3q14 3 28 25q3 4 8 31q1 7 1 33q0 6 -1.5 12.5t-1.5 8.5zM29 523v19l2 87q0 5 1.5 7.5t5.5 5.5t5 4q4 0 9 1t7 1h165q20 0 48 -10l2 -1q0 -1 1 -3 h1q8 -1 16.5 -8t14 -13t13.5 -17.5t8 -12.5l10 -13l4 -12q22 -40 22 -111v-9q-1 -52 -24 -125q-6 -13 -14 -23q-12 -16 -32 -34q-3 -1 -7.5 -5t-5.5 -4l-21 -7q3 -3 5.5 -8t3.5 -8l1 -4q5 -12 23 -39q15 -27 22 -48q7 -17 21.5 -45t19.5 -42l13 -31q5 -15 5 -16 q-2 -7 -12 -7l-60 -1h-58q-4 0 -6 6.5t-3 7.5q-4 6 -9 25q-8 20 -8 21q-1 5 -3 9l-1 1l-63 141l-3 6l-3 6q0 2 -4 14q-1 -19 -1 -158l-1 -63q0 -12 -6 -14h-100q-8 0 -8 11v133q0 12 2 14l2 3l-2 31q1 7 1 22v26v15q0 6 1 15.5t1 11.5q2 14 2 15l-3 24v52v157z" />
<glyph unicode="s" horiz-adv-x="372" d="M146 190q-1 -12 -1 -18q0 -4 1 -5q0 -3 0.5 -8t0.5 -9v-3q1 -4 2.5 -11t2 -10.5t3 -8t6.5 -7.5q9 -9 28 -9q13 0 21 10q2 2 5 7l3 4q2 3 3 6t1 5v3l1 13q-2 16 -10.5 32t-20 30.5t-12.5 16.5q-2 3 -3.5 4t-2 1t-0.5 1q-3 3 -5.5 8.5t-3.5 6.5l-19 23q-2 3 -8 10t-8 10 l-16 23q-7 7 -17 22.5t-27 36.5q-1 2 -8 14t-13 22t-6 11q-18 36 -18 76q0 19 5 39q3 19 21 50q26 40 61 56.5t89 16.5q14 0 20 -1q74 -7 103 -56q1 -3 4 -10q1 -3 3 -7.5t3.5 -7.5t1.5 -4q2 -3 2 -9q7 -32 7 -48l1 -48q0 -4 0.5 -10.5t0.5 -8.5q0 -20 -20 -20h-59l-36 1 q-6 0 -6 18v7q0 43 -3 55q0 4 -10 11t-21 7h-2q-26 -3 -32 -34q-3 -13 1 -30q6 -19 13 -29q5 -6 9.5 -14.5t6.5 -10.5q5 -5 9.5 -12t6.5 -9q3 -5 6 -8.5l6 -7t4 -4.5q4 -7 14 -20t28 -36.5t32 -41.5l23 -36q27 -54 31 -98q0 -3 0.5 -8t0.5 -8q0 -35 -12 -64q-3 -6 -3 -9 l-1 -1v-1q-5 -11 -12 -17.5t-10 -10.5q-10 -13 -26 -25q-36 -18 -100 -18q-78 0 -118.5 38t-42.5 107q-1 19 -1 30v42q0 8 2.5 9.5t10.5 1.5h25h24q3 0 8 -1t8 -1q2 0 4.5 0.5t3.5 0.5h18q19 0 19 -12z" />
<glyph unicode="t" horiz-adv-x="335" d="M102 521h-72q-11 0 -10 6v102q0 9 16 9q37 0 54 1l18 1h14q7 0 17.5 0.5t13.5 0.5h74h5l24 -3h46q6 -1 9 -2.5t3 -2.5v-3v-102q-2 -5 -7 -7l-1 -1q-3 0 -6 -0.5t-5 -1t-3 -0.5h-64l-3 -20v-26q0 -5 0.5 -11.5t0.5 -7.5v-21v-50q0 -16 -1 -49t-1 -46v-43q-3 -12 -3 -40h-1 v0q-1 -19 -2 -106v-74q0 -12 -2 -20q-1 -4 -4 -7.5t-5 -5t-3 -1.5h-104q-4 0 -4 8v98q0 5 0.5 9t0.5 5l1 1v1v7v1v1q1 4 2 6v48q0 7 0.5 21t0.5 17l1 1v49q1 15 4 36v27v85v32q-2 1 -2 4q-1 5 -1 14v2v34v2q0 8 -1 15v7z" />
<glyph unicode="u" horiz-adv-x="358" d="M333 222v-63v-8q0 -32 -1.5 -50.5t-9.5 -43t-25 -45.5q-32 -41 -100 -41h-14q-78 2 -109 20q-3 2 -3 3.5t-1 2.5q-4 0 -6.5 2.5t-3.5 4.5l-2 3q-21 12 -29 37q-4 13 -4 34v14q0 8 0.5 28t0.5 32q1 25 1 81q0 27 -0.5 74.5t-0.5 72.5v2q0 2 0.5 4.5t1.5 4.5v2l-3 34v92v8 v7v97q0 16 8 16h43l15 -2l14 2h34q8 0 8 -16v-183q0 -16 -2 -38v-20q-1 -31 -1 -85v-107v-53v-13v-9q4 -9 14 -20t16 -11q2 0 4 -0.5t4 -0.5q25 0 31 37q0 6 2 6v43v30v82q0 37 -4 93v53l2 14q-1 11 -1.5 33t-0.5 34v96q0 23 6 23h108q4 -2 4 -8q0 -5 1 -10.5t1 -6.5 q2 -70 2 -130v-118q-1 -11 -1 -43q0 -21 0.5 -50.5t0.5 -46.5z" />
<glyph unicode="v" horiz-adv-x="414" d="M20 628h115q4 0 5 -2h1h2q6 -3 6 -9v-19q2 -10 6 -22q1 -5 1.5 -10t0.5 -7q2 -3 2.5 -8.5t1.5 -9.5t2 -4q3 -5 3 -8v-1v-1v-6l1 -1v-8q-2 -6 -2 -10q0 -7 10 -44l40 -262l29 223l3 10v12q3 3 3 7q0 2 -0.5 6t-0.5 5v3q1 7 1 12l1 1q1 6 1.5 10t0.5 6v1q1 3 1.5 10t1.5 12 t1 6q9 55 12 84q0 2 0.5 5.5t1 5.5l1 4t1.5 3t2.5 2t3.5 1h72l45 -2q2 0 3 -1h1q2 -8 2 -13l-9 -49l-4 -45q-2 -14 -8 -43q-2 -8 -4.5 -25.5t-3.5 -25.5q-5 -17 -6 -28v-12q-3 -5 -4 -11.5t-1.5 -12.5t-0.5 -7l-6 -30q-3 -24 -4 -29v-16v-6q-1 -2 -2 -7t-2 -12.5t-2 -10.5 q-1 -7 -2.5 -10t-1.5 -5q-5 -28 -10 -81q-3 -17 -8.5 -42.5t-7.5 -34.5t-2.5 -22t-1.5 -18l-1 -1q-2 -1 -3 -2v-14q0 -11 -12 -13h-161q-9 0 -20 47q-3 10 -5.5 30.5t-4.5 28.5t-4 30q-5 33 -6 36q-3 16 -9.5 61t-10.5 61q-2 7 -3.5 15t-2.5 15.5t-2 10.5q-4 25 -6 45 l-10 43q-2 13 -2 17v2q0 4 -1 10l-6 18q-1 4 -3 22.5t-7 28.5v5l-10 47l-9 50q0 9 8 9z" />
<glyph unicode="w" horiz-adv-x="562" d="M388 226q4 44 7 76q4 51 12 127.5t14.5 132t6.5 59.5v9q0 6 3 6h1h109l6 -5v-1l-5 -64v-1v-1q-5 -7 -6 -16v-8v-9v-4q-1 -10 -2.5 -28.5t-1.5 -21.5l-1 -12l-1 -1v-1q0 -18 -8 -90q-6 -70 -14 -124l-2 -11v-14l-2 -31q-1 -22 -7 -63t-7 -50l-4 -36q-1 -11 -4.5 -20.5 t-3.5 -14.5t-2 -8.5t-5 -5.5t-3 -3q-23 -5 -38 -6h-4q-4 0 -11 1t-12 1h-17h-10l-40 4q-3 5 -26.5 134t-27.5 134q-4 0 -16.5 -61t-23.5 -123l-10 -61q-4 -2 -6 -2q-12 -1 -24 -1h-8q-12 2 -16 2h-4q-8 0 -19 -1t-19 -1h-10l-31 1q-3 4 -4 6l-2 4v6v7q-2 29 -10 87t-10 85 q-1 11 -2.5 34.5t-3.5 37.5q-2 8 -4.5 30t-3.5 30q-2 21 -2 22q-2 16 -2 19q-1 11 -7.5 55.5t-6.5 49.5q-4 26 -6.5 46t-7.5 46l-5 38q-1 7 -1 16q0 7 13 7h7h98q3 0 8 -5q3 -3 5 -11.5t3 -18t2 -11.5v-23q4 -9 4 -12q0 -26 7 -98l-2 -42l6 -12q14 -152 14 -158q0 11 32 192 q1 8 4 12t4 11q2 9 2 26v7q11 61 17 88q1 5 1.5 7t1 2h3.5h9h12h4h8h4q4 -1 9 -0.5t8 0.5q7 -1 11 -0.5t7 0t4 -1.5q2 -2 4 -17z" />
<glyph unicode="x" horiz-adv-x="389" d="M83 327q-1 7 -10 50q-10 40 -10 63v3q0 3 -2.5 7t-2.5 6q-2 13 -8 39v2q0 1 0.5 2t0.5 2v1q-1 1 -3 7.5t-2 8.5q-3 16 -3 18q-1 0 -1 1l-8 46l-9 42l2 5h119q8 0 12 -3t4.5 -5.5t1.5 -11.5q3 -17 6 -37q2 -17 3 -22v-2q0 -1 -1 -4t-1 -5q0 -1 1 -4t2.5 -6t1.5 -4v-4v-8 l1 -1l1 -4l4 -24q0 -5 1 -9q0 -2 1.5 -7.5t1.5 -6.5v-5q0 -7 1 -16t2 -14.5t1 -6.5l43 184q0 4 3 14t3 12q2 12 6 12l121 1l2 -1h2q6 -2 6 -8v-1l-14 -50l-14 -46l-2 -12q-2 -9 -20 -66q-2 -9 -10.5 -31.5t-9.5 -28.5q-1 -9 -3 -19t-3 -13q0 -1 -2 -3t-2 -3v-1v-1 q-1 -8 -3.5 -13t-2.5 -6t-4 -27q2 -9 8 -18q4 -20 30 -118q17 -55 18 -66q2 -8 5 -14t3 -7l8 -31l11 -50q0 -12 -7 -12h-1h-76h-1h-44q-1 3 -3 12.5t-6 28t-7 31.5q-1 8 -3 18t-3 13q-3 11 -5 27v3q0 2 0.5 5t0.5 5v3q-1 6 -4 7l-4 15q-4 11 -6.5 28.5t-3.5 21.5l-6 25 l-5 -31q-2 -9 -4.5 -22.5t-3.5 -22.5l-3 -18l-6 -31h-1q-1 0 -1 -2q0 -6 1 -12q-1 -3 -2 -9.5t-2 -9.5l-4 -26l-6 -45q-2 -13 -4.5 -15.5t-9.5 -2.5q-35 -1 -66 -1h-22q-3 0 -6 1.5t-6 1.5l-13 -2h-5q-8 0 -8 7q0 2 2 10l10 38l7 28q0 1 1 8t3 16t4 17q2 10 2 17v5 q12 36 14 49v13l4 9q2 12 6.5 28t5.5 20q2 9 5.5 28t4.5 27q0 3 0.5 8t0.5 6z" />
<glyph unicode="y" horiz-adv-x="370" d="M238 151v-90v-13v-1v-50q0 -8 -4 -10h-114q-4 0 -4 28v96v4v6v27q-1 12 -1.5 41t-2.5 43q-1 11 -10 38.5t-10 32.5l-19 61q-2 10 -5.5 23t-4.5 19q-2 7 -4 18.5t-4 15.5q-11 43 -14 62q-2 7 -4 11t-2 5l-10 46l-11 43q0 2 -1.5 8t-1.5 8q0 3 2 7q3 4 14 4h93 q3 0 6.5 -6.5t6 -17.5t4.5 -21.5t4 -24t3 -18.5l7 -32q1 -2 3 -28q4 -24 7 -27l5 -25l12 -55l33 133l11 44l3 16q7 22 12 43q3 19 14 19l4 2h102q4 0 4 -6l-13 -50l-9 -23q-7 -25 -11 -30q-8 -38 -12 -49l-36 -118q-1 -5 -6 -17t-5 -17l-1 -1v-1q-2 -12 -6 -20 q-6 -21 -8 -25q-2 -10 -6.5 -26t-5.5 -19l-4 -16v-10q0 -7 -0.5 -20.5t-0.5 -19.5q0 -12 1 -17z" />
<glyph unicode="z" horiz-adv-x="312" d="M170 106l4 1l4 1h91q3 0 5 -1t3 -1q6 -2 8 -7v-97q0 -4 -2 -4q-3 -5 -12 -5h-30q-13 -1 -36 -1h-102q-46 0 -66 4q-5 1 -7 2h-1q-3 2 -4 5v97q0 7 6 13l42 132q3 10 9.5 25.5t8.5 22.5q3 10 5 24.5t3 18.5q0 1 6 3v17q1 15 29 107l15 47h-5h-109q-10 0 -10 5v108 q0 9 14 9h73q25 3 42 3h131q2 0 2 -4v-96l-22 -67l-9 -25l-2 -9l-2 -10l-96 -318h14z" />
<glyph unicode="{" horiz-adv-x="267" d="M107 654q8 8 8 14q5 4 18 11h37l48 -2q6 0 9 -3v-1l-25 -50q-25 -37 -31 -70.5t-6 -91.5v-11q0 -12 -3 -29t-7.5 -33t-8.5 -29.5t-7 -22.5l-3 -9q0 -1 5 -12.5t9.5 -22t8.5 -26t4 -26.5v-11v-24q0 -40 4 -52q6 -30 11 -49.5t12.5 -36.5t11.5 -24t17.5 -28t19.5 -31v-5 q-1 -3 -4 -3h-1h-1l-34 -5h-67q-2 0 -4.5 1.5t-4.5 4t-3 2.5q-8 8 -8 14q-33 53 -40 75q-9 31 -9 88v96q0 18 -19 49t-19 33q0 8 19.5 37t19.5 38v96q0 35 0.5 53t4.5 32t6.5 18.5t13 19t18.5 26.5z" />
<glyph unicode="|" horiz-adv-x="172" d="M147 656v-127q0 -23 -2 -55v-27v-96v-23q2 -18 2 -55v-36v-96v-105v-50q0 -4 -1 -6t-3 -4l-2 -2h-106q-10 0 -10 12v97q0 5 1 7v1h1v0v46q0 14 0.5 42t0.5 38q0 5 -0.5 10.5t-0.5 6.5v18v50v33v1v46q0 20 2 30q-2 6 -2 10v57v50q0 69 4 112v19q0 11 6 11h98q2 0 3 -1h1 q6 -3 8 -14z" />
<glyph unicode="}" horiz-adv-x="264" d="M157 654q8 -12 18.5 -26.5t13 -19t6.5 -18.5t4.5 -32t0.5 -53v-96q0 -9 19.5 -38t19.5 -37q0 -2 -19 -33t-19 -49v-96q0 -15 -0.5 -27.5t-2.5 -24.5t-2.5 -19.5t-4.5 -18t-5 -14t-7 -14.5t-7 -13t-9.5 -15.5t-10.5 -16.5q0 -6 -8 -14l-5 -4q-5 -4 -7 -4h-67l-34 5h-1h-1 q-3 0 -4 3v5q7 11 17.5 27t14.5 23t11 20t10.5 25t8.5 30.5t10 43.5q4 12 4 52v24v11q0 11 4 26.5t8.5 26t9.5 22t5 12.5l-3 9q-3 9 -7 22.5t-8.5 29.5t-7.5 33t-3 29v11q0 58 -6 91.5t-31 70.5l-25 50v1q3 3 9 3l48 2h37q13 -7 18 -11q0 -6 8 -14z" />
<glyph unicode="~" horiz-adv-x="222" d="M197 776v-80q0 -13 -9 -22q0 -1 -2 0.5t-3.5 3t-2.5 1.5q-1 -1 -2 -7.5t-3 -7.5q-9 -4 -22 -4q-18 1 -41 22.5t-41 21.5q-12 0 -28 -24.5t-17 -24.5t-1 5v86q0 19 13.5 31.5t32.5 12.5q15 0 32 -13q3 -2 4 -7.5t3 -7.5l12 -2q17 -13 31 -14h1q10 0 24.5 17.5t16.5 17.5 t2 -5z" />
<glyph horiz-adv-x="1000" />
<glyph unicode="&#xa1;" horiz-adv-x="174" d="M139 -15h-102q-3 0 -6 3q-4 26 -4 47v50q0 26 4 82v6v33q-4 4 -4 10v2v2.5v4.5v8v55v39l1 24l-1 50v50q0 8 4 12h102q12 -1 12 -17v-90q0 -36 2 -63t2 -74v-50q0 -57 -1 -86v-9q1 -8 1 -13v-50q0 -12 -2 -18q0 -7 -8 -8zM147 546h-1q-1 0 -1 -4q0 -7 -8 -7h-104 q-1 0 -6 5l-1 5q-1 5 -1 9v80l4 16q0 10 10 10h102h1.5t1.5 -3t1 -9q2 -8 2 -19v-83z" />
<glyph unicode="&#xa2;" horiz-adv-x="288" d="M177 433v18q0 15 -4.5 20.5t-21.5 6.5q-4 0 -9.5 -0.5t-10.5 -1t-6 -0.5q-13 0 -14 -14l-4 -33q-2 -6 -2 -13q0 -8 -1 -22t-1 -18v-1v-1l-1 -7v-35v-7v-5l-1 -2q0 -4 0.5 -10t0.5 -7q0 -22 2 -44q4 -23 5 -29q5 -11 10.5 -18.5t8.5 -9.5l2 -2q48 4 50 4q0 2 1.5 6t2.5 8 l1 4v6v6v46q1 10 1 11q0 3 4 4.5t8 2.5h4h31h16q5 0 7.5 -0.5t3.5 -2.5l1.5 -3t0.5 -5v-7l1 -38v-13q0 -47 -13 -81q-2 -9 -12 -19q-12 -6 -18 -6l-12 -1h-2h-1q-26 0 -43 1v-85v-22q0 -5 -1 -8l-1 -4h-37q-4 0 -4 12v69q0 5 1 7v1v30q-14 -1 -28 0q-16 2 -36 19.5t-22 34.5 q-9 32 -9 104v10v61q0 54 3 90q4 46 19 76q8 12 11 16l4 6q10 12 58 16q0 14 0.5 36.5t0.5 34.5v19q0 11 3 11h34l1 -1q2 -3 3 -14v-86q24 -2 30.5 -3t21 -4t18.5 -8t9.5 -14.5t8.5 -24.5q6 -24 6 -40v-62q0 -9 -1 -11l-3 -6h-69q-4 0 -4 8l-1 3v1z" />
<glyph unicode="&#xa3;" horiz-adv-x="421" d="M204 359l77 -2l3 -61q-5 -4 -12 -4q-3 0 -4 -0.5t-2 -0.5l-8 -1h-69l-1 -22v-6q1 -17 2.5 -88t1.5 -76h90q6 11 10 50q-1 2 0 3v1q0 4 -1 5l-1 1v61l2 5h94q10 0 10 -15v-126q0 -10 -1 -25t-1 -21q-4 -27 -16 -37q-29 -12 -82 -12q-49 0 -114.5 2t-105.5 2q-8 0 -10 1 h-10q-14 0 -14 5l-3 97q0 1 2.5 1t6 -0.5t7.5 0.5q2 1 4 1h14v58q0 4 -1 7v4q-4 45 -4 76v49h-16q-10 0 -10 5v57l2 4v1q4 2 16 2h10q3 97 4 109q2 36 4 54q2 17 12 38l12 28q27 41 53.5 54.5t85.5 13.5q68 0 96 -18.5t41 -74.5q10 -50 10 -64v-50q0 -5 -1 -10.5t-1 -6.5 q-1 -5 -2.5 -7t-2 -2h-1.5h-78h-31l-5 50v7q-3 18 -5 22q-6 32 -20 32q-4 0 -14 -5q-3 -1 -6 -4.5t-5.5 -6.5t-4.5 -6t-3.5 -5t-1.5 -1q-4 -7 -6 -17l-2 -11q-4 -9 -4 -37q0 -4 0.5 -11t0.5 -10t-0.5 -6.5t-0.5 -4.5q-2 -16 -2 -51h12z" />
<glyph unicode="&#xa4;" horiz-adv-x="634" d="M449 431q21 -40 21 -83v-7q0 -25 -17 -76l5 -8q6 -9 31.5 -47.5t31.5 -45.5q3 -4 12.5 -14t10.5 -13l65 -88l-4 -6l-4 -1q0 -1 -1 -1h-99q-2 0 -2 1q-8 5 -9 10l-37 54l-4 9l-9 9l-29 38q-60 -19 -99 -19q-13 0 -29 5t-26 10l-10 5q-7 2 -14.5 8t-9.5 6l-3 -13l-16 -23 l-52 -71q0 -1 -9 -10q0 -1 -2 -1h-27l-75 -1q-1 0 -2 1l-2 1q-4 2 -4 5l64 88q2 3 7.5 9.5t9.5 11.5t5 7q7 8 24.5 41.5t23.5 41.5q-14 52 -14 82v6q0 17 7.5 47t8.5 37q-21 31 -57 79q-3 4 -12 13t-10 14v1l-63 88q1 3 2 4l3 1q2 1 4 1h103q1 0 2 -1h1q3 -1 5.5 -3.5 t2.5 -4.5l1 -2l52 -71l18 -25q50 26 86 26h3q17 -1 39.5 -9.5t36.5 -16.5l14 -8l27 34l11 9l2 9l38 54l4 4q4 5 5 6q2 1 4 1h88q1 0 2 -1h1l2 -1q4 -2 4 -5l-57 -87q1 -1 0 -2q-2 -5 -6.5 -10.5t-9.5 -10.5l-6 -6q-6 -7 -17 -23.5l-24 -36zM273 333q1 -7 1 -16t0.5 -14 t2.5 -10.5t7 -9.5l28 -15h19q1 0 4 2.5t6 4.5t4 2v3l6 30q-1 13 -1 25v14q-1 6 -2 11.5t-1.5 8.5t-1 5.5t-0.5 3.5q-2 10 -11.5 22.5t-20.5 14.5q-4 0 -9 -2.5t-8 -4.5l-4 -2q-2 -3 -4 -6.5t-4 -5.5q-3 -4 -4.5 -10.5t-2.5 -7.5q-2 -7 -2 -18v-2l-1 -2v-1l-1 -1v-19z" />
<glyph unicode="&#xa5;" horiz-adv-x="383" d="M25 630h95q9 0 11.5 -3t3.5 -9q0 -5 1 -8q1 -8 18.5 -78.5t17.5 -71.5l6 -33l3 -24l4 13l1 15q0 1 1 1t1 1l7 34q2 7 20 68.5t19 65.5l10 40q1 0 2 1h2h102q8 0 8 -10l-16 -50l-12 -46l-4 -14q-3 -15 -13.5 -44.5t-11.5 -42.5q-2 -7 -7.5 -22t-9 -26.5t-3.5 -17.5 q-7 -16 -12 -35l-1 -2v-5l-1 -1v-1q-2 -7 -3 -12t-3 -10t-18 -59h67q4 0 5 -1h1q7 -1 10 -4v-51q0 -3 -2 -4.5t-6 -1.5l-4 -1q-3 0 -11 -0.5t-9 -0.5h-51v-32h67q4 0 5 -1h1q7 -1 10 -4v-51q0 -3 -2 -4.5t-6 -1.5l-4 -1q-3 0 -11 -0.5t-9 -0.5h-51v-5v-84v-1q0 -11 -10 -11 h-106q-6 1 -6 12v89h-61q-8 0 -16 2q-2 4 -2 5v51q0 6 10 6h69v20q0 9 1 12h-62q-8 0 -16 2q-2 4 -2 5v51q0 6 10 6h62l-1 14q0 2 -3 14l-3 11q-1 13 -7 35.5t-7 26.5q-7 34 -22 96q-2 5 -3.5 13t-2.5 13q-3 17 -13 45l-16 62l-11 50v6z" />
<glyph unicode="&#xa6;" horiz-adv-x="176" d="M147 292v-121q0 -45 -2 -105v-50q0 -6 -6 -12h-104q-10 0 -10 12v97v8v46q0 13 1 56t1 49v17zM32 374v75q0 104 -3 169v19q0 5 1.5 7.5t3.5 3.5h1h102h3l1 -1q6 -3 8 -14v-74q-2 -9 -2 -14.5t1 -9t1 -5.5v-1q-1 -6 -2 -27.5t-1 -27.5q0 -5 0.5 -14.5t0.5 -12.5l-2 -78z " />
<glyph unicode="&#xa7;" horiz-adv-x="277" d="M118 337q0 -11 1 -12q1 -3 1.5 -7t1.5 -6.5t2.5 -5.5t3.5 -5q3 -6 16 -6q9 0 15 7q0 33 -2 40q0 4 -7 8.5t-15 3.5q-8 0 -17 -17zM106 134q1 -1 0.5 -4t-0.5 -4q-1 -8 -1 -12q0 -3 1 -3q0 -13 1 -13q4 -20 9 -25q3 -6 16 -6q8 0 14 7l4 4l2 3q2 3 2 9l1 9q-1 11 -7 20.5 t-13 17.5t-8 10q-2 3 -4 4q-2 2 -4 6l-2 4l-13 18q-7 7 -10 13l-11 15q-3 3 -13 17q-12 5 -22 22q-10 11 -11 28l-1 3q-11 19 -11 45q0 9 4 25q2 12 17 40q2 8 3 9l5 8q2 4 6 7l3 3q2 2 3.5 3t2 1.5t0.5 1.5q8 9 11 10q10 4 15 5q-4 5 -11 15t-18 24q-1 2 -5.5 9.5 t-8.5 14.5l-4 7q-11 19 -11 45q0 9 4 25q2 12 17 40q1 3 2 5.5t1 3.5l5 8q2 4 6 7l3 3q2 2 3.5 3t2 1.5t0.5 1.5q10 10 11 10q30 11 62 11q3 0 7.5 -0.5t6.5 -0.5q47 -4 68 -37q0 -2 1 -4t1 -3l6 -12q1 -2 1 -6q5 -30 5 -32l2 -37v-12q0 -14 -13 -14h-40l-24 1q-4 0 -4 11v5 q0 34 -2 42q0 4 -7 8.5t-15 3.5q-5 0 -11 -7.5t-9 -16.5v-1q0 -1 -1.5 -3.5t-1.5 -3.5l1 -17q6 -15 8 -19q3 -4 6.5 -9.5t4.5 -6.5q3 -3 6 -7.5t5 -6.5q4 -7 10 -13q5 -8 31 -41q8 -9 19 -29.5t20 -32.5q13 -29 15 -49v-9q0 -27 -8 -44l-2 -6v-1q0 -6 -3 -9t-6.5 -5t-5.5 -5 q-3 -5 -17 -16q-13 -6 -35 -8l29 -38q13 -13 15 -26q19 -36 21 -61v-9q0 -27 -8 -44l-2 -6v-1q0 -6 -3 -9t-6.5 -5t-5.5 -5q-6 -7 -17 -16q-18 -9 -55 -9q-34 0 -79 8q-14 4 -26 23q-10 12 -11 30v20v32v27q0 7 4 7h20h16q2 0 5.5 -1t5.5 -1q1 0 3 1l2 1h25z" />
<glyph unicode="&#xa8;" horiz-adv-x="221" d="M196 742v-40v-12q-1 -8 -3 -8h-50q-3 0 -7 7q-1 3 -1 10v38q0 2 1 5v4q1 1 2 3q0 1 1 1h51q2 0 3 -1t2 -3l1 -2v-2zM86 742v-40v-12q-1 -8 -3 -8h-50q-3 0 -7 7q-1 3 -1 10v38q0 2 1 5v4q1 1 2 3q0 1 1 1h51q2 0 3 -1t2 -3l1 -2v-2z" />
<glyph unicode="&#xa9;" horiz-adv-x="320" d="M202 419v-5q0 -18 -5 -33q-2 -5 -6 -8q-4 -2 -7 -2l-5 -1h-1q-22 0 -30 1q-10 2 -12 3q-17 8 -17 57v8v26q0 27 1 36q3 19 5.5 26.5t11 14.5t24.5 7q19 0 27 -5q6 -5 8 -18q3 -9 3 -17v-25q0 -3 -1 -4l-1 -3h-28q-2 0 -2 4v1v6v3v8q-1 1 -1 6t-1 6q0 5 -5 5q-4 0 -6 -6 q-4 -8 -4 -36v-3v-14v-6v-6q1 -9 1 -18q1 -11 4 -18q4 -8 8 -9h1q1 0 2 2l2 2l2 7v2v3v19v4l7 3h12h7q5 0 5 -2v-5zM289 380q-2 -13 -10 -30q-6 -18 -13 -28q-4 -6 -25 -22q-42 -16 -93 -16q-29 0 -59 6q-5 1 -23 10q-6 2 -24 15q-17 14 -17 90v37v16q0 8 0.5 29.5t1 28 t2 22t3.5 22.5t6.5 17t10.5 18q7 9 24.5 20.5t27.5 13.5q26 4 54 4q78 0 96 -17q4 -1 8 -4.5t7.5 -6.5t4.5 -4q2 -1 2 -4l1 -1q5 -3 6 -6q7 -13 13 -56q2 -11 2 -26v-50q0 -47 -6 -78zM225 354q19 31 19 50q1 1 3.5 22t2.5 22q2 8 2 42q0 26 -3 48q-2 7 -4.5 12.5t-7 11 t-7 8t-9 8.5t-7.5 7l-12 3h-3q-1 0 -16 0.5t-26 0.5q-26 0 -35 -3q-7 -2 -13.5 -6.5t-9.5 -8t-6.5 -9t-4.5 -6.5l-2 -8q-2 -8 -3 -8v-4v-3q-8 -21 -8 -69l-1 -21q-1 -4 -1 -13q0 -5 0.5 -14.5t0.5 -12.5v-5q1 -1 1.5 -8t4 -17.5t10.5 -17.5q3 -3 10 -5.5t15.5 -4.5t10.5 -3 q12 -5 28 -5h18h8h10q9 0 14 2q17 7 21 15z" />
<glyph unicode="&#xaa;" horiz-adv-x="191" d="M112 500v14q1 24 1 32v24q0 11 -2.5 14.5t-11.5 7.5h-13q-4 0 -5.5 -10.5t-2 -26.5t-0.5 -17v-30q0 -2 1 -13.5t3.5 -19.5t6.5 -8q3 -4 10 -4q3 0 7 4.5t6 8.5v24zM120 634l1 10q5 7 8 7h28h6q3 0 3 -3v-8v-65v-12v-13q0 -30 -1 -56v-11v-23v-26v-18v-7q0 -4 -7 -4h-11 h-4h-8h-3h-3h-6q-4 0 -4.5 1t-0.5 6l-1 9q-11 -11 -32 -11q-23 0 -36 13q-3 2 -5 4.5t-3.5 6t-2.5 4.5q-13 32 -13 83q0 14 1 19q0 10 0.5 24t1 18t2.5 12t7 18l1 1h1v1q0 5 4 9q3 6 5 6q2 2 2.5 4.5t1.5 3.5q22 14 38 14q6 0 12 -3.5t11.5 -8t6.5 -5.5z" />
<glyph unicode="&#xab;" horiz-adv-x="366" d="M225 464l3 3h94q5 -2 5 -4l-28 -62q-5 -10 -8 -13l-25 -57l-5 -9l3 -7l4 -14l7 -7l21 -49q3 -4 6 -9l3 -6l36 -62q0 -3 -2 -3h-103l-8 1l-1 3q-1 3 -1 4q-5 11 -8 15t-7 15q-2 8 -7 16l-2 7l-3 4l-6 12q-5 6 -7.5 11.5t-4.5 12t-4 9.5q-1 1 -3 4l-3 3q0 1 -0.5 20.5 t-0.5 31.5q0 17 1 18q2 3 2 6q2 3 6.5 15.5t10.5 18.5q3 5 5 11q1 4 4 4v5l1 3q5 9 8 15q4 14 7 18t7 13zM79 464l4 3h90q4 -1 4 -4l-23 -62q-2 -3 -4 -8l-3 -5l-23 -48l-4 -9l-4 -9l3 -7l5 -14l5 -7l23 -49q3 -4 6 -9l3 -6l32 -62q0 -3 -4 -3h-97q-1 0 -5 1h-4l-1 3 q-1 3 -1 4q-13 28 -14 30q-2 7 -8 16l-3 7l-2 4l-5 12q-5 6 -8 11.5t-4.5 12t-3.5 9.5l-2.5 2.5l-2.5 2.5l-1 2q-2 1 -2 16q0 8 0.5 25t0.5 22v7q2 3 2 5l1 1q2 4 4.5 11.5t5 13t6.5 9.5q2 3 3 5.5t2 5.5t4 4v4q0 2 1 4q2 3 8 15q5 14 7.5 18t6.5 13z" />
<glyph unicode="&#xac;" horiz-adv-x="286" d="M261 368v-129q0 -10 -2 -16q-2 -2 -4 -2q-22 4 -40 4h-5q-6 0 -16 -0.5t-16 -0.5l-27 -3h-1q-2 0 -3 1.5t-1 3.5l-1 3v65h-24l-25 2l-61 -2q-10 0 -10 5v97q0 1 1 2l1 2q8 3 20 3q4 0 14 -0.5t15 -0.5h84h1q13 0 42.5 -0.5t40.5 -0.5h1l8 -1q5 0 8 -13v-19z" />
<glyph unicode="&#xad;" horiz-adv-x="280" d="M241 333h-206q-10 0 -10 6v59q0 1 2 5q10 3 16 3h102h11l4 -1h1h64q5 0 9.5 -0.5t6.5 -0.5h3h1l8 -1q2 0 2 -2v-59q0 -3 -1.5 -5t-3.5 -3h-1q-5 -1 -8 -1z" />
<glyph unicode="&#xae;" horiz-adv-x="320" d="M120 516v6v3v25q0 2 3 4q2 1 4 1h41q4 0 13 -3v-1h1q4 0 13 -13l3 -3q1 -3 1 -4q3 -9 3 -18v-25q0 -11 -4 -29q0 -4 -3 -7q-2 -2 -9 -4h-1q-1 -1 -2 -1l-1 -2l2 -3l1 -2v-2l1 -1q0 -2 1 -3l1 -1l1 -3q4 -6 6 -13l6.5 -13t5.5 -12l3 -8q2 -4 2 -5t-3 -1l-16 -1h-16 q-1 0 -2 2l-1 2l-1 3q-1 2 -1 3t-1 3l-1 3v2l-1 1q-1 2 -9 20t-8 19q0 2 -2 4q0 2 -1 3v-49v-17q0 -3 -2 -3h-27q-3 0 -3 3v42q0 4 1 4v1v8q1 3 1.5 8.5t0.5 8.5v7v2q1 1 1 2v6v13q0 3 -0.5 7t-0.5 6v25zM170 505v3q-1 5 -1 6q-2 6 -15 6h-2v-7q-1 -2 -1 -3l1 -6v-26h3 q3 1 6 1t5.5 2t2.5 5q1 4 1 19zM289 380q-4 -18 -10 -30q-6 -18 -13 -28q-4 -6 -25 -22l-39 -15l-18 -1q-64 0 -95 6q-5 1 -23 10q-6 2 -24 15q-17 14 -17 90v37v16q0 8 0.5 29.5t1 28t2 22t3.5 22.5t6.5 17t10.5 18h1h1h2v1h1v1q0 2 11 11q2 1 5.5 3.5t5.5 3.5q3 2 5.5 4.5 t4.5 3.5q10 5 15 6q26 4 54 4q78 0 96 -17q4 -1 8 -4.5t7.5 -6.5t4.5 -4q2 -1 2 -4l1 -1q5 -3 6 -6q7 -13 13 -56q2 -11 2 -26v-50q0 -8 -0.5 -22.5t-0.5 -20.5l-1 -1v-13q0 -5 -4 -21zM225 354q19 31 19 50q1 1 3.5 22t2.5 22q2 8 2 42q0 26 -3 48q-2 7 -9.5 17.5 t-7.5 12.5v1l-18 16l-12 3h-3q-1 0 -16 0.5t-26 0.5q-26 0 -35 -3q-7 -2 -13.5 -6.5t-9.5 -8t-6.5 -9t-4.5 -6.5l-2 -8q-2 -8 -3 -8v-4v-3q-8 -21 -8 -69l-1 -21q-1 -4 -1 -13q0 -5 0.5 -14.5t0.5 -12.5v-5q1 -1 1.5 -8t4 -17.5t10.5 -17.5q3 -3 10 -5.5t15.5 -4.5t10.5 -3 q12 -5 28 -5h18h8h10q9 0 14 2q17 7 21 15z" />
<glyph unicode="&#xaf;" horiz-adv-x="191" d="M150 653q-17 -1 -27 0q-2 0 -7.5 2t-8.5 2q-5 0 -12.5 -1.5t-10.5 -1.5l-49 -1q-10 0 -10 6v44q0 1 2 5q9 3 16 3h57q6 0 10 -0.5t5 -0.5h1h18h12l6 -1q14 0 14 -7v-44q-3 -3 -8 -4h-2q-6 0 -6 -1z" />
<glyph unicode="&#xb0;" horiz-adv-x="167" d="M96 535v3q2 4 2 13v2h1q-1 6 -1 18q-1 3 -1.5 6.5t-1 6t-1.5 3.5q-2 2 -2 5q0 5 -5 5q-12 0 -12 -5l-1.5 -3t-0.5 -2q-2 -5 -4 -15q-1 -6 -1 -20v-1v-10v-1q0 -3 5 -7t11 -4h1q7 0 10 3zM124 492q-5 -3 -11 -3q-22 -2 -32 -2q-17 0 -29 3l-10 4l-9 9q-7 7 -7 26v15 q0 6 -0.5 17.5t-0.5 16.5q0 24 10 39h1v1q0 4 4 8q2 3 4 5q2 4 3 4q23 13 40 13h2h1q14 0 33 -11q1 -1 4 -3q3 -1 4 -2l2 -2l1 -2q5 -6 7 -33q1 -11 1 -21v-21q-1 -11 -1 -34q-1 -7 -6 -14q-5 -11 -11 -13z" />
<glyph unicode="&#xb1;" horiz-adv-x="237" d="M212 436q-3 -3 -8 -4h-2q-6 0 -6 -1h-46v-8v-14.5t-0.5 -19.5t-0.5 -10h-1v0v-1q0 -13 -6 -13h-48q-4 5 -4 10t-2 7v49h-54q-4 0 -6 1.5t-2 3.5v1v48l2 4v1q8 3 20 3h40v42q0 4 1.5 6.5t2.5 2.5h2h50q4 0 4 -2q2 -4 2 -27v-23h4h14.5t19.5 -0.5t10 -0.5q14 -1 14 -7v-48z M195 249h-54q-1 -1 -4 -1h-102q-10 0 -10 6v63q0 1 1 3l1 1q7 3 20 3h132q6 0 12 -1l6 -1q14 0 14 -6v-63q-4 -3 -10 -3t-6 -1z" />
<glyph unicode="&#xb2;" horiz-adv-x="179" d="M121 383h-25h-64q-2 0 -4 2l-1 1v56q0 20 47 67q4 6 9 11l7 7q5 5 7.5 13.5t4.5 11.5q1 2 1.5 5.5t0.5 6.5l1 3v2v3l1 16q-7 22 -16 23q-7 0 -11 -4.5t-5 -9.5v-5v-2v-10v-20q-1 -7 -2 -7h-45q-2 0 -2 2v20v1q0 51 12 63q16 12 42 15q7 1 19 1q31 0 31 -8q16 -10 24 -47 q0 -2 0.5 -7.5t0.5 -8.5v-35q-1 -11 -3 -16t-6.5 -9t-6.5 -8q-3 -6 -7.5 -10t-6.5 -7q-18 -19 -28 -36q-20 -23 -21 -27v-7q3 1 23 1h53l3 -3v-2v-40q0 -2 -2 -2h-31z" />
<glyph unicode="&#xb3;" horiz-adv-x="169" d="M56 429h1h3q3 1 10.5 2t12 2.5t6.5 6.5q0 2 1 5t1.5 5t0.5 3q4 18 4 29q0 39 -18 44h-12l-27 1q-6 0 -6 2v38l1 3h27h6.5h7h3.5q5 -1 7 4.5t2 14.5q0 8 -2 12q-1 1 -3 1.5t-4 1.5h-1h-48l-4 9v33q0 5 1 7l1 3h1h30h35q11 0 18 -5l4 -4l6 -6q1 -2 1 -4v-1h1q3 -3 6 -14 q3 -9 3 -23q0 -35 -14 -47q15 -3 17 -11h1q8 -18 8 -34v-9v-39q0 -17 -2 -29q-10 -45 -51 -45h-48q-11 0 -15 1q-2 0 -2 2v37q0 4 5 4h25z" />
<glyph unicode="&#xb4;" horiz-adv-x="216" d="M189 779l2 -10q-45 -65 -57 -85l-6 -7q-9 -11 -11 -11l-7 -1l-85 -2l1 2q0 5 1 6l36 53l6 10l1 1q6 10 14.5 22.5t13.5 19.5q0 4 10 4z" />
<glyph unicode="&#xb5;" horiz-adv-x="364" d="M216 397v51q0 30 6 30h106q6 -2 6 -5q0 -5 2 -8v-1q3 -20 3 -39v-51v-27l-1 -58q0 -7 -0.5 -53.5t-0.5 -66.5q1 -10 1 -20v-97q0 -14 -1 -18v-22q-4 -8 -5 -8h-102q-4 0 -10 9v22q-25 -24 -46 -24h-3q-9 1 -18.5 10t-14.5 17l-5 8q-1 -12 -1 -95v-91v-20q0 -13 -12 -13 h-84q-4 0 -4 6v185v167v1q1 8 1 26t-0.5 52.5t-0.5 51.5q0 44 2 66v2v97q0 8 5 8h1h104q6 0 6 -8v-141v-22v-11q-1 -15 -2 -65.5t-2 -63.5v-5q1 0 3 -12.5t8 -24t17 -11.5q16 0 24.5 12t12 27t5.5 17v3v1q0 12 1 56t1 58v10v20q0 33 -2 68z" />
<glyph unicode="&#xb6;" horiz-adv-x="378" d="M27 348q-2 10 -2 23v79q0 13 1.5 26.5t4 24.5t2.5 12q4 22 4 23v2l1 2q1 2 2 4.5t1 4.5q4 11 6 20q29 58 55 77.5t95 19.5q5 0 9 0.5t5 0.5h24q0 1 5 1h73h5h31q4 0 4 -10v-97v-17v-1v-17l-2 -65v-11q2 -13 2 -32v-79q0 -26 -2 -76.5t-2 -61.5v-17q0 -9 -0.5 -32 t-1.5 -31v-3v-97v-14v-1v-9q0 -14 -6 -18q-3 -3 -5 -3h-46q-12 0 -12 10v13l-1 543h-29q-5 0 -5 -524v-16q0 -11 -3 -11h-19h-59q-3 0 -3 17v17v97v56v1v1l1 3q-1 15 -1 38v30h-12q-64 0 -88 21q-19 18 -32 76z" />
<glyph unicode="&#xb7;" horiz-adv-x="132" d="M107 367v-51q0 -12 -2 -18q-1 -14 -4 -14h-62q-10 0 -10 12q-2 3 -3 9l-1 6v48q0 3 0.5 6t0.5 5l1 3q2 3 3 5l2 1h1h62q10 0 10 -8q0 -3 1 -3t1 -1z" />
<glyph unicode="&#xb8;" horiz-adv-x="164" d="M31 -56v32v33v2q0 3 3 3h53l4 -2q2 -2 2 -6v-1v-14l4 -2q7 0 16 -5t13 -5q13 -12 13 -32v-40q-1 -9 -4 -17t-3 -9q-7 -7 -9 -11l-4 -5q-7 -6 -21 -6h-53h-4h-11q-3 0 -3 4l-2 11v46q2 1 4 1q3 0 16 -1t21 -1q23 0 24 6q0 18 -24 18z" />
<glyph unicode="&#xb9;" horiz-adv-x="120" d="M91 389l-4 -3h-42q-2 0 -2 5v40v23l1 1q2 47 2 149l-19 -12l-2 2v39q0 1 1.5 2.5t3.5 2.5l3 2q2 1 3.5 2.5t2.5 1.5q2 1 9 8v1h1h42h1l3 -2v-20v-1v-22q-1 -9 -1 -24.5t-1 -25.5v-6q1 -4 1 -12v-39q0 -6 -0.5 -15t-0.5 -13q0 -10 -1 -26v-2v-11q0 -4 -0.5 -10.5 t-0.5 -8.5v-26z" />
<glyph unicode="&#xba;" horiz-adv-x="180" d="M103 460v8q1 7 2 20t1 15v4h1v14q0 10 -1 23q-1 6 -2.5 16t-1.5 12q0 1 -0.5 5.5t-1.5 5.5q0 9 -6 9t-10 -6.5t-4 -9.5l-2 -8q-1 -4 -4 -26q0 -3 -0.5 -6t-1 -5t-0.5 -3.5v-2.5t0.5 -7t0.5 -14v-1v-26v-1q0 -10 5.5 -21t12.5 -11q10 0 12 10v6zM135 404l-12 -4 q-24 -2 -36 -2q-14 0 -32 6q-10 4 -12 6q-4 2 -7 8l-3 6q-6 9 -6 14q-2 12 -2 15v39q0 9 -0.5 25.5t-0.5 23.5q0 45 11 72l1 1h1v1q0 4 4 8l4 6q2 2 2.5 3t1.5 2q23 14 45 14h1h2q17 0 36 -16q2 -2 5.5 -5t4.5 -4l1 -3q2 -2 2 -4l1 -1q3 -8 6 -51q2 -20 2 -39v-30 q0 -9 -0.5 -28.5t-1.5 -26.5q-1 -9 -5 -19q-7 -15 -13 -17z" />
<glyph unicode="&#xbb;" horiz-adv-x="366" d="M141 464l3 -3q4 -9 7 -13t7 -18q3 -6 8 -15q1 -1 1 -3v-5q3 0 4 -4q2 -6 5 -11q4 -4 7 -9.5t5 -12.5t5 -12q0 -3 2 -6q1 -1 1 -18q0 -12 -0.5 -31.5t-0.5 -20.5l-3 -3q-2 -3 -3 -4l-5 -13q-4 -12 -11 -20l-6 -12q-2 -2 -2 -4l-3 -7q-4 -7 -6 -16l-4.5 -9l-2 -4t-1.5 -2.5 t-3 -5t-5 -9.5q0 -1 -1 -4l-1 -3q-6 -1 -8 -1h-102q-3 0 -3 3l36 62l3 6q3 5 6 9l22 49l6 7l4 14l3 7l-4 9l-26 57q-3 3 -8 13l-28 62q0 3 5 4h94zM287 464l2 -3q4 -9 6.5 -13t7.5 -18q6 -12 8 -15q1 -2 1 -4v-4q3 -1 4 -4t2 -5.5t3 -5.5q4 -4 6.5 -9.5t5 -13t4.5 -11.5 l1 -1l3 -5q-1 -2 -1 -11q0 -6 0.5 -20.5t0.5 -21.5q0 -16 -2 -17q0 -3 -6 -7l-5 -13q-4 -12 -11 -20l-5 -12q-2 -2 -2 -4l-3 -7q-5 -8 -7 -16q-2 -6 -3.5 -9l-2 -4t-1.5 -2.5t-3 -5t-5 -9.5q0 -1 -1 -4l-1 -3h-3q-4 -1 -6 -1h-97q-4 0 -4 3l32 62l3 6q3 5 6 9l23 49l5 7 l5 14l3 7l-4 9l-4 9l-23 48q-5 10 -6 13l-24 62q0 3 4 4h90z" />
<glyph unicode="&#xbc;" d="M332 280l2 -2q1 -2 1 -4v-40q-1 -8 -1 -28q0 -10 0.5 -25t0.5 -23l10 -2v-41l-3 -3h-1h-3h-2q-1 -4 -1 -66v-34v-1l-1 -3q-1 -4 -3 -4h-42q-3 0 -3 2v44q1 7 1 19v18v16v2v6h-3h-43l-3 1h-22q-3 1 -3 3v41l11 28l4 10q1 6 3 12l2 5q3 5 8.5 21t9.5 24l8 17q0 2 1 5l1 2 l27 -1l6 -2l6 1zM289 156l1 76l-32 -76h31zM346 679q4 0 4 -6l-15 -50l-14 -45q-2 -7 -8 -21t-6 -15q-19 -46 -42 -121l-24 -70q-20 -47 -61.5 -162.5t-66.5 -172.5l-7 -17q-8 -17 -13 -24h-58q-10 1 -10 6l21 50v1l18 41q2 4 6 12.5t7 14.5t3 7q26 69 30 85l8 27 q35 77 46 122q16 34 22 58q5 25 20 60q20 47 74 206q0 8 6 14l-3 2h2zM142 373l-3 -3h-43q-2 0 -2 5v40q1 9 1 23v1q2 47 2 149l-19 -12l-2 2v39q0 2 4 5l4 2q3 1 5 3q0 1 1 1q2 1 9 8v1h1h42h1l3 -2v-20v-1v-22q0 -9 -1 -24.5t-1 -25.5v-6q1 -4 1 -12v-39q0 -6 -0.5 -15 t-0.5 -13q0 -10 -1 -26v-2v-30q-1 -1 -1 -20v-6z" />
<glyph unicode="&#xbd;" horiz-adv-x="397" d="M336 646q4 0 4 -6l-15 -50l-14 -45q-2 -7 -8 -21t-6 -15q-19 -46 -32 -88l-24 -70q-20 -47 -61.5 -162.5t-66.5 -172.5l-7 -17q-8 -17 -13 -24h-58q-10 1 -10 6l21 50v1l18 41q2 4 6 12.5t7 14.5t3 7q26 69 30 85l8 27q35 77 46 122q16 34 22 58q5 25 20 60q26 62 64 173 q0 8 6 14l-3 2h2zM142 373l-3 -3h-43q-2 0 -2 5v40q1 9 1 23v1q2 47 2 149l-19 -12l-2 2v39q0 2 4 5l4 2q3 1 5 3q0 1 1 1q2 1 9 8v1h1h42h1l3 -2v-20v-1v-22q0 -9 -1 -24.5t-1 -25.5v-6q1 -4 1 -12v-39q0 -6 -0.5 -15t-0.5 -13q0 -10 -1 -26v-2v-30q-1 -1 -1 -20v-6zM336 2 l-22 -3h-66q-3 1 -5 3v1v23v2q0 1 0.5 6t0.5 7v12v5q0 13 12 28t13 19q8 4 11.5 6.5t4 4t2 4t4.5 6.5q4 5 9 10.5t7 7.5q5 5 7.5 13.5t4.5 11.5q1 2 2 5.5t1 6.5l1 3v2v3v15q0 4 -5 15q-1 1 -1 0v-2l-10 11q-4 -2 -8 -7t-6 -9l-2 -4v-2v-9v-21q0 -7 -2 -7h-44l-3 2v21v1v26 l1 1v5l2 14q2 6 3 8q6 8 7 8q7 7 15 8q14 7 27 8q3 0 8 0.5t7 0.5q34 0 34 -8l4 -3q10 -12 13 -17q0 -2 1 -4l2 -3q1 -2 2 -5q2 -6 2 -16q1 -4 1 -15q1 -5 1 -17t-1 -18q-1 -11 -3 -16t-6 -9t-7 -8q-3 -5 -7.5 -10t-6.5 -8q-24 -26 -27 -35q-2 -5 -11.5 -15t-9.5 -12v-7 q2 1 22 1h53l3 -4l1 -1v0v-38l-1 -1l-2 -1h-33z" />
<glyph unicode="&#xbe;" d="M332 283l2 -2q1 -2 1 -4v-40q-1 -8 -1 -28q0 -10 0.5 -25t0.5 -23q3 -1 8 -1h1l1 -1v-41l-3 -3h-1h-3h-2q-1 -4 -1 -66v-34v-1l-1 -4q-1 -3 -3 -3h-42q-3 0 -3 2v44q1 7 1 19v18v16v2v6h-3h-43h-3h-22q-3 2 -3 4v41l11 28l4 10q1 6 3 12l2 5q3 5 8.5 21t9.5 24l8 17 q0 2 1 4l1 3l27 -1l6 -2l6 1zM289 159l1 76l-32 -76h31zM346 682q4 0 4 -6l-15 -50l-14 -45q-2 -7 -8 -21t-6 -15q-19 -46 -42 -121l-24 -70q-20 -47 -61.5 -162.5t-66.5 -172.5l-7 -17q-8 -17 -13 -24h-58q-10 1 -10 6l21 50v1l18 41q2 4 6 12.5t7 14.5t3 7q26 69 30 85 l8 27q35 77 46 122q16 34 22 58q5 25 20 60q20 47 74 206q0 8 6 14l-3 2h2zM79 429h2h2q3 1 8.5 1.5t9 1t7 3t4.5 5.5q0 2 1 5t1.5 5t0.5 3l2 7v6l2 4q0 2 -1 5v3l-1 2q0 6 1 11t1 6q-2 4 -2 7l-4 8q-2 4 -2 6q0 1 -2.5 3t-4.5 3l-3 2h-11h-12h-3l-2 1h-11q-6 0 -6 2v38l1 3 h28h6h6.5h3.5q9 -1 9 17q1 2 1 3q-1 3 -2 6.5t-1 4.5q-1 2 -4 3h-4h-48q-2 1 -2 3q-1 4 -2 5v1v33q0 1 0.5 3.5t0.5 3.5l32 3h36q10 0 17 -5l4 -4l3 -3q3 -2 3 -3q1 -2 1 -4q0 -1 1 -1q4 -4 7 -14q2 -12 2 -21q0 -38 -14 -49q15 -3 17 -11h1q4 -9 4 -11v-2l2 -6q2 -8 2 -15 v-9v-39q0 -23 -2 -29q-1 -3 -2 -5v-1v-1l-2 -6q-1 -6 -3 -6q-1 -4 -4 -9q-1 -3 -4 -5.5t-6.5 -5t-4.5 -3.5q-7 -3 -25 -3h-48q-11 0 -15 1q-2 0 -2 2v37q0 4 5 4h25z" />
<glyph unicode="&#xbf;" d="M350 149l-2 -80q-2 -10 -2 -24q-7 -53 -68 -53h-131q-10 0 -40 5q0 2 -2 4h-2q-5 0 -30 13q-24 17 -26 23q-4 2 -5 5q0 1 -1 1q-10 13 -14 38q0 13 -0.5 26t-1 20.5t-0.5 12.5v51q0 9 1 12t4 11.5t7 24.5v5q1 15 12.5 32.5t13.5 22.5q8 20 20.5 29.5t19.5 20.5 q9 13 28.5 31.5t24.5 23.5q57 66 60 70q6 12 6 19v44q0 4 2 9.5t4 5.5h96q12 0 12 -11q2 -12 2 -14v-39q-1 -32 -1.5 -36t-0.5 -11v-6q-1 -23 -7 -29q-2 -2 -8 -7l-17 -13q-26 -23 -43 -29l-10 -16q-8 -11 -12 -11q-2 -1 -2 -2.5v-2.5q1 -1 0 -1q-4 -5 -8 -5 q-2 -1 -6.5 -5.5l-10 -10t-10 -10.5t-8.5 -9l-3 -4q-7 -7 -12.5 -12t-8 -7t-5.5 -5.5t-5.5 -9t-6.5 -15.5q-5 -14 -5 -30q0 -8 1.5 -18.5t1.5 -11.5l-1 -11q3 -7 3 -10q5 -8 12 -18l10 -6q4 -1 4 -2q2 -1 8 -7l31 -1q2 4 4 11t2 8q2 16 2 24v60q0 14 4 13h112q6 0 6 -11v-14 q0 -14 1 -26.5t1 -16.5v-15zM221 596v48v19q1 11 2 12h100q7 0 10 -10q2 -5 2 -11v-5v-44q0 -12 -2 -14l-4 -6h-96q-3 0 -10 7q0 2 -2 4z" />
<glyph unicode="&#xc0;" horiz-adv-x="399" d="M79 781l81 2q7 0 11 -4q5 -5 7 -10q1 1 1 0l1 -3q7 -6 6 -8q-1 -1 1 -4q2 -2 12 -17v-1l7 -10l36 -53q2 -4 0 -6l1 -2l-84 2l-8 1q-1 0 -2 0.5t-1.5 1t-2.5 3.5t-5 6l-5 7q-8 13 -29 43.5t-28 41.5q-1 3 -1 5t1 4zM174 280l52 2q-9 72 -13 118v5v9q0 3 -0.5 5t-1.5 4.5 t-1 4.5q-1 3 -1.5 7t-0.5 7l-6 52zM382 -7l-4 -3h-117q-5 4 -7 12t-3 18t-1 12v11q0 1 -6 46.5t-6 56.5v1l-60 1q-4 -2 -9 -4q-5 0 -5 -3l1 -2l-1 -1v-8q-1 -5 -4.5 -29.5t-3.5 -26.5l-4 -27q-1 -15 -5 -33l-2 -13q0 -17 -9 -17h-63l-50 1q-11 1 -11 12l8 43l6 43q1 5 2 11 t2 10.5t1 6.5q1 8 1.5 15.5t1.5 14.5q3 5 3 11v1l11 59q14 115 34 218l11 73v4q0 8 3 17q14 100 14 101q1 1 1 4v1v1l4 1q3 1 5 1h108q3 0 11 -1t9 -1h35h6q7 0 7 -1q3 -1 3 -3h1q0 -1 1.5 -6.5t4 -19.5t6 -33.5t8.5 -54t10 -74.5q2 -20 8.5 -69.5t9.5 -82.5q1 -7 2 -14.5 t1.5 -12.5t0.5 -11q7 -64 19 -164l5 -43z" />
<glyph unicode="&#xc1;" horiz-adv-x="399" d="M315 781l2 -10q-45 -65 -57 -85l-6 -7q-9 -11 -11 -11l-7 -1l-85 -2l1 2q0 5 1 6l36 53l6 10l1 1q6 10 14.5 22.5t13.5 19.5q0 4 10 4zM174 280l52 2q-9 72 -13 118v5v9q0 3 -0.5 5t-1.5 4.5t-1 4.5q-1 3 -1.5 7t-0.5 7l-6 52zM382 -7l-4 -3h-117q-5 4 -7 12t-3 18t-1 12 v11q0 1 -6 46.5t-6 56.5v1l-60 1q-4 -2 -9 -4q-5 0 -5 -3l1 -2l-1 -1v-8q-1 -5 -4.5 -29.5t-3.5 -26.5l-4 -27q-1 -15 -5 -33l-2 -13q0 -17 -9 -17h-63l-50 1q-11 1 -11 12l8 43l6 43q1 5 2 11t2 10.5t1 6.5q1 8 1.5 15.5t1.5 14.5q3 5 3 11v1l11 59q14 115 34 218l11 73v4 q0 8 3 17q14 100 14 101q1 1 1 4v1v1l4 1q3 1 5 1h108q3 0 11 -1t9 -1h35h6q7 0 7 -1q3 -1 3 -3h1q0 -1 1.5 -6.5t4 -19.5t6 -33.5t8.5 -54t10 -74.5q2 -20 8.5 -69.5t9.5 -82.5q1 -7 2 -14.5t1.5 -12.5t0.5 -11q7 -64 19 -164l5 -43z" />
<glyph unicode="&#xc2;" horiz-adv-x="399" d="M243 775h1q14 -7 14 -9q6 -11 8 -13q12 -16 13 -21l30 -36l20 -33q-1 -2 -4 -2l-84 1l-30 55l-29 -52h-85q-4 0 -4 2l24 29l25 36q3 7 17 21q3 3 4 6t4 7q2 3 11 9h2q0 1 14 1q10 0 28.5 -0.5t20.5 -0.5zM174 280l52 2q-9 72 -13 118v5v9q0 3 -0.5 5t-1.5 4.5t-1 4.5 q-1 3 -1.5 7t-0.5 7l-6 52zM382 -7l-4 -3h-117q-5 4 -7 12t-3 18t-1 12v11q0 1 -6 46.5t-6 56.5v1l-60 1q-4 -2 -9 -4q-5 0 -5 -3l1 -2l-1 -1v-8q-1 -5 -4.5 -29.5t-3.5 -26.5l-4 -27q-1 -15 -5 -33l-2 -13q0 -17 -9 -17h-63l-50 1q-11 1 -11 12l8 43l6 43q1 5 2 11t2 10.5 t1 6.5q1 8 1.5 15.5t1.5 14.5q3 5 3 11v1l11 59q14 115 34 218l11 73v4q0 8 3 17q14 100 14 101q1 1 1 4v1v1l4 1q3 1 5 1h108q3 0 11 -1t9 -1h35h6q7 0 7 -1q3 -1 3 -3h1q0 -1 1.5 -6.5t4 -19.5t6 -33.5t8.5 -54t10 -74.5q2 -20 8.5 -69.5t9.5 -82.5q1 -7 2 -14.5 t1.5 -12.5t0.5 -11q7 -64 19 -164l5 -43z" />
<glyph unicode="&#xc3;" horiz-adv-x="399" d="M295 776v-80q0 -13 -9 -22l-4 3q-3 3 -4 2q-1 0 -2 -6.5t-3 -7.5q-12 -5 -22 -5q-18 1 -41 22.5t-41 21.5q-12 0 -28 -24.5t-17 -24.5t-1 5v86q0 19 13.5 31.5t32.5 12.5q17 0 32 -13q3 -2 4 -7.5t3 -7.5l12 -2q17 -13 31 -14h1q10 0 24.5 17.5t16.5 17.5t2 -5zM174 280 l52 2q-9 72 -13 118v5v9q0 3 -0.5 5t-1.5 4.5t-1 4.5q-1 3 -1.5 7t-0.5 7l-6 52zM382 -7l-4 -3h-117q-5 4 -7 12t-3 18t-1 12v11q0 1 -6 46.5t-6 56.5v1l-60 1q-4 -2 -9 -4q-5 0 -5 -3l1 -2l-1 -1v-8q-1 -5 -4.5 -29.5t-3.5 -26.5l-4 -27q-1 -15 -5 -33l-2 -13q0 -17 -9 -17 h-63l-50 1q-11 1 -11 12l8 43l6 43q1 5 2 11t2 10.5t1 6.5q1 8 1.5 15.5t1.5 14.5q3 5 3 11v1l11 59q14 115 34 218l11 73v4q0 8 3 17q14 100 14 101q1 1 1 4v1v1l4 1q3 1 5 1h108q3 0 11 -1t9 -1h35h6q7 0 7 -1q3 -1 3 -3h1q0 -1 1.5 -6.5t4 -19.5t6 -33.5t8.5 -54 t10 -74.5q2 -20 8.5 -69.5t9.5 -82.5q1 -7 2 -14.5t1.5 -12.5t0.5 -11q7 -64 19 -164l5 -43z" />
<glyph unicode="&#xc4;" horiz-adv-x="399" d="M296 723v-40v-12q-1 -8 -3 -8h-50q-3 0 -7 7q-1 2 -1 10v38q0 2 1 6v3q1 1 2 3q0 1 1 1h51q2 0 3 -1t2 -3l1 -2v-2zM186 723v-40v-12q-1 -8 -3 -8h-50q-3 0 -7 7q-1 2 -1 10v38q0 2 1 6v3q1 1 2 3q0 1 1 1h51q2 0 3 -1t2 -3l1 -2v-2zM174 280l52 2q-9 72 -13 118v5v9 q0 3 -0.5 5t-1.5 4.5t-1 4.5q-1 3 -1.5 7t-0.5 7l-6 52zM382 -7l-4 -3h-117q-5 4 -7 12t-3 18t-1 12v11q0 1 -6 46.5t-6 56.5v1l-60 1q-4 -2 -9 -4q-5 0 -5 -3l1 -2l-1 -1v-8q-1 -5 -4.5 -29.5t-3.5 -26.5l-4 -27q-1 -15 -5 -33l-2 -13q0 -17 -9 -17h-63l-50 1q-11 1 -11 12 l8 43l6 43q1 5 2 11t2 10.5t1 6.5q1 8 1.5 15.5t1.5 14.5q3 5 3 11v1l11 59q14 115 34 218l11 73v4q0 8 3 17q14 100 14 101q1 1 1 4v1v1l4 1q3 1 5 1h108q3 0 11 -1t9 -1h35h6q7 0 7 -1q3 -1 3 -3h1q0 -1 1.5 -6.5t4 -19.5t6 -33.5t8.5 -54t10 -74.5q2 -20 8.5 -69.5 t9.5 -82.5q1 -7 2 -14.5t1.5 -12.5t0.5 -11q7 -64 19 -164l5 -43z" />
<glyph unicode="&#xc5;" horiz-adv-x="399" d="M247 781q4 -1 9 -5q4 -5 6 -24v-65q0 -4 -0.5 -9t-0.5 -7q-1 -9 -3 -13.5t-3.5 -5.5t-5.5 -1.5t-7 -1.5h-68q-22 0 -22 24v14v7v32l3 30q0 14 7 19q3 4 7 4q5 2 16 2h47h13h2zM220 737h-5h-15q-4 0 -6 -1q-1 0 -2 -1q-2 -2 -2 -6l-1 -10v-11v-2v-4q0 -8 7 -8h22h3t3 1.5 t1 5.5v5v21q0 6 -2 8q0 2 -3 2zM174 280l52 2q-9 72 -13 118v5v9q0 3 -0.5 5t-1.5 4.5t-1 4.5q-1 3 -1.5 7t-0.5 7l-6 52zM382 -7l-4 -3h-117q-5 4 -7 12t-3 18t-1 12v11q0 1 -6 46.5t-6 56.5v1l-60 1q-4 -2 -9 -4q-5 0 -5 -3l1 -2l-1 -1v-8q-1 -5 -4.5 -29.5t-3.5 -26.5 l-4 -27q-1 -15 -5 -33l-2 -13q0 -17 -9 -17h-63l-50 1q-11 1 -11 12l8 43l6 43q1 5 2 11t2 10.5t1 6.5q1 8 1.5 15.5t1.5 14.5q3 5 3 11v1l11 59q14 115 34 218l11 73v4q0 8 3 17q14 100 14 101q1 1 1 4v1v1l4 1q3 1 5 1h108q3 0 11 -1t9 -1h35h6q7 0 7 -1q3 -1 3 -3h1 q0 -1 1.5 -6.5t4 -19.5t6 -33.5t8.5 -54t10 -74.5q2 -20 8.5 -69.5t9.5 -82.5q1 -7 2 -14.5t1.5 -12.5t0.5 -11q7 -64 19 -164l5 -43z" />
<glyph unicode="&#xc6;" horiz-adv-x="474" d="M237 156l-53 1q-4 -2 -9 -4l-5 -6l-1 -1v-8q-1 -5 -4.5 -31t-3.5 -28l-4 -28q-2 -25 -6 -42l-2 -13q0 -16 -10 -16h-69l-46 1q-12 1 -12 12l10 50l8 45q1 5 2 11t2 10.5t1 6.5q3 21 4 31q3 5 3 11h1v0v1l4 40l4 22t3.5 20.5t2.5 12.5q5 18 5 29h1v0v1q1 65 32 223v16v4 q0 6 4 18q11 82 14 98q1 1 1 4v1q0 1 1 1l4 1q3 1 5 1h313q2 0 3.5 -3t2.5 -3v-97q-3 -8 -5 -9t-11 -1h-48q-10 0 -12 -1q-5 -21 -5 -36l-1 -1v-43q1 -5 1 -8v-50v-13l-1 -1v-22q4 -3 6 -3h39q15 0 27 -2v-97q-1 -12 -18 -12h-28q-2 -1 -4 -1h-2h-10l-6 -1l-4 -2v-9 q-2 -32 -2 -45l-2 -2v-40v-11q1 -22 3 -50h10h73q6 2 6 -2v-101q-1 -6 -5 -6h-22q-18 -6 -63 -6h-102q-15 0 -20 1q-2 9 -2 17v96q0 7 0.5 15t0.5 10l1 1v20v23zM237 442l-2 92l-16 -2l-39 -276l59 2v19v21v52l-1 60q-1 2 -1 3v29z" />
<glyph unicode="&#xc7;" horiz-adv-x="389" d="M166 -95v32v33h-13q-42 7 -64 19q-3 4 -8.5 10.5t-8.5 11.5t-5 12q-1 4 -7.5 12t-6.5 10q-1 4 -2.5 11t-1.5 9q-1 4 -3 9t-3 8t-3 8t-3 8q-1 8 -6 15q-3 25 -4 38q-2 34 -2 53q0 18 1 53.5t1 51.5q0 6 0.5 11.5t0.5 6.5l1 1v1q3 93 18 178v3v16q0 8 2 12l4 4l1 8 q2 9 4.5 20t6.5 15l4 10q2 4 4 7.5t2 4.5q2 4 3.5 9t2.5 6q0 3 2.5 5.5t5 4t2.5 2.5q17 17 105 17q80 0 106 -12q16 -10 18 -12q17 -14 20 -30q3 -9 6 -16q2 -8 4 -26l2 -12q1 -4 2.5 -11t1.5 -8q2 -15 2 -32v-21q0 -23 2 -44v-19t-1 -31t-3 -14h-104q-5 0 -7 3.5t-2 9 t-1 6.5v6v25q-2 11 -2.5 25.5t-3.5 24.5q-3 18 -9 43q-10 20 -25 20q-6 0 -16 -7.5t-10 -12.5l-4 -9q-4 -9 -4 -10q0 -2 -0.5 -4t-1.5 -3.5t-2 -3.5v-1l-3 -16l-2 -14v-1l-4 -40q-2 -26 -4 -38q-1 -13 -1.5 -31.5t-2.5 -30.5v-20q-1 -3 -0.5 -11t0.5 -9q-1 0 -1 -15 q0 -1 -0.5 -1t-0.5 -1v-16q3 -12 3 -35.5t2 -31.5q14 -52 24 -63q6 -6 24 -6q6 0 16 0.5t14 0.5h3l5 8q2 2 2 3l5 21v5l2 17l1 34v3v1l1 46q0 8 4.5 12.5t8 5t5.5 0.5l97 -4q2 0 3 -2t1 -4v-3v-4v-2l-2 -99v-5v-51q0 -55 -14 -70q-6 -7 -10 -15q-6 -7 -22 -13l-48 -9h-42v-4 v-1v-14l4 -2q7 0 16 -5t13 -5q13 -12 13 -32v-40q-1 -9 -4 -17t-3 -9q-7 -7 -9 -11l-4 -5q-7 -6 -21 -6h-53h-4h-11q-3 0 -3 4q-2 9 -2 11v46q2 1 4 1q3 0 16 -1t21 -1q23 0 24 6q0 18 -24 18z" />
<glyph unicode="&#xc8;" horiz-adv-x="264" d="M14 781l81 2q7 0 11 -4q4 -5 7 -10q1 1 1 0l1 -3q7 -6 6 -8q-1 -1 1 -4q2 -2 12 -17v-1l7 -10l36 -53q2 -4 0 -6l1 -2l-84 2l-8 1q-1 0 -2 0.5t-1.5 1t-2.5 3.5t-5 6l-5 7q-8 13 -29 43.5t-28 41.5q-1 3 -1 5t1 4zM29 256v21v21v97v13q-2 3 -2 5v131q0 15 1 41t1 37v1v12 q0 4 4 8q6 6 16 6h62h6h2h21h13h1h73q6 0 6 -5v-96q-3 -8 -5 -9t-11 -1h-48q-10 0 -12 -1q-5 -21 -5 -36l-1 -1v-43q0 -11 -0.5 -32t-0.5 -32q0 -21 1 -30q4 -3 6 -3h39q15 0 27 -2v-97q-1 -12 -18 -12h-28q-2 -1 -4 -1h-2h-10l-6 -1l-4 -2q0 -11 -1 -29t-1 -25l-2 -2v-36 v-11q1 -22 3 -50h10h73q6 2 6 -2v-101q-1 -6 -5 -6h-22q-18 -6 -63 -6h-102q-15 0 -20 1q-2 9 -2 17v96q0 7 0.5 15t0.5 10l1 1v20q0 37 2 119z" />
<glyph unicode="&#xc9;" horiz-adv-x="264" d="M250 781l2 -10q-45 -65 -57 -85l-6 -7q-9 -11 -11 -11l-7 -1l-85 -2l1 2q0 5 1 6l36 53l6 10l1 1q6 10 14.5 22.5t13.5 19.5q0 4 10 4zM29 256v21v21v97v13q-2 3 -2 5v131q0 15 1 41t1 37v1v12q0 4 4 8q6 6 16 6h62h6h2h21h13h1h73q6 0 6 -5v-96q-3 -8 -5 -9t-11 -1h-48 q-10 0 -12 -1q-5 -21 -5 -36l-1 -1v-43q0 -11 -0.5 -32t-0.5 -32q0 -21 1 -30q4 -3 6 -3h39q15 0 27 -2v-97q-1 -12 -18 -12h-28q-2 -1 -4 -1h-2h-10l-6 -1l-4 -2q0 -11 -1 -29t-1 -25l-2 -2v-36v-11q1 -22 3 -50h10h73q6 2 6 -2v-101q-1 -6 -5 -6h-22q-18 -6 -63 -6h-102 q-15 0 -20 1q-2 9 -2 17v96q0 7 0.5 15t0.5 10l1 1v20q0 37 2 119z" />
<glyph unicode="&#xca;" horiz-adv-x="264" d="M164 779h1q14 -7 14 -9q6 -11 8 -13q12 -16 13 -21l30 -36l20 -33q-1 -2 -4 -2l-84 1l-30 55l-29 -52h-85q-4 0 -4 2l24 29l25 36q3 7 17 21q4 3 4 6t4 7q2 3 11 9h2q0 1 14 1q10 0 28.5 -0.5t20.5 -0.5zM29 256v21v21v97v13q-2 3 -2 5v131q0 15 1 41t1 37v1v12q0 4 4 8 q6 6 16 6h62h6h2h21h13h1h73q6 0 6 -5v-96q-3 -8 -5 -9t-11 -1h-48q-10 0 -12 -1q-5 -21 -5 -36l-1 -1v-43q0 -11 -0.5 -32t-0.5 -32q0 -21 1 -30q4 -3 6 -3h39q15 0 27 -2v-97q-1 -12 -18 -12h-28q-2 -1 -4 -1h-2h-10l-6 -1l-4 -2q0 -11 -1 -29t-1 -25l-2 -2v-36v-11 q1 -22 3 -50h10h73q6 2 6 -2v-101q-1 -6 -5 -6h-22q-18 -6 -63 -6h-102q-15 0 -20 1q-2 9 -2 17v96q0 7 0.5 15t0.5 10l1 1v20q0 37 2 119z" />
<glyph unicode="&#xcb;" horiz-adv-x="264" d="M218 725v-40v-12q-1 -8 -3 -8h-50q-3 0 -7 7q-1 2 -1 10v38q0 2 1 6v3q1 1 2 3q0 1 1 1h51q2 0 3 -1t2 -3l1 -2v-2zM108 725v-40v-12q-1 -8 -3 -8h-50q-3 0 -7 7q-1 2 -1 10v38q0 2 1 6v3q1 1 2 3q0 1 1 1h51q2 0 3 -1t2 -3l1 -2v-2zM29 256v21v21v97v13q-2 3 -2 5v131 q0 15 1 41t1 37v1v12q0 4 4 8q6 6 16 6h62h6h2h21h13h1h73q6 0 6 -5v-96q-3 -8 -5 -9t-11 -1h-48q-10 0 -12 -1q-5 -21 -5 -36l-1 -1v-43q0 -11 -0.5 -32t-0.5 -32q0 -21 1 -30q4 -3 6 -3h39q15 0 27 -2v-97q-1 -12 -18 -12h-28q-2 -1 -4 -1h-2h-10l-6 -1l-4 -2 q0 -11 -1 -29t-1 -25l-2 -2v-36v-11q1 -22 3 -50h10h73q6 2 6 -2v-101q-1 -6 -5 -6h-22q-18 -6 -63 -6h-102q-15 0 -20 1q-2 9 -2 17v96q0 7 0.5 15t0.5 10l1 1v20q0 37 2 119z" />
<glyph unicode="&#xcc;" horiz-adv-x="176" d="M-30 781l81 2q7 0 11 -4q4 -5 7 -10q1 1 1 0l1 -3q7 -6 6 -8q-1 -1 1 -4q2 -2 12 -17v-1l7 -10l36 -53q2 -4 0 -6l1 -2l-84 2l-8 1q-1 0 -2 0.5t-1.5 1t-2.5 3.5t-5 6l-5 7q-8 13 -29 43.5t-28 41.5q-1 3 -1 5t1 4zM150 492v-47l-2 -47q0 -43 -1 -59q1 -8 1 -16 q1 -11 1 -28v-51v-46q0 -6 0.5 -18.5t0.5 -14.5v-27v-14v-71v-3l1 -2v-1v-50q0 -1 -7 -4h-2l-73 2h-5h-28q-11 0 -11 17q0 4 0.5 12t0.5 11v64q2 80 3 131q0 2 -0.5 5.5t-0.5 5.5q0 33 1 86.5t2 86.5q0 1 0.5 14.5t-0.5 14.5q0 3 -2 13l-1 47l-2 12v119q1 6 8.5 9.5 t15.5 4.5h7h85q8 -1 8 -26v-116v-14z" />
<glyph unicode="&#xcd;" horiz-adv-x="176" d="M206 781l2 -10q-45 -65 -57 -85l-6 -7q-9 -11 -11 -11l-7 -1l-85 -2l1 2q0 5 1 6l36 53l6 10l1 1q6 10 14.5 22.5t13.5 19.5q0 4 10 4zM150 492v-47l-2 -47q0 -43 -1 -59q1 -8 1 -16q1 -11 1 -28v-51v-46q0 -6 0.5 -18.5t0.5 -14.5v-27v-14v-71v-3l1 -2v-1v-50 q0 -1 -7 -4h-2l-73 2h-5h-28q-11 0 -11 17q0 4 0.5 12t0.5 11v64q2 80 3 131q0 2 -0.5 5.5t-0.5 5.5q0 33 1 86.5t2 86.5q0 1 0.5 14.5t-0.5 14.5q0 3 -2 13l-1 47l-2 12v119q1 6 8.5 9.5t15.5 4.5h7h85q8 -1 8 -26v-116v-14z" />
<glyph unicode="&#xce;" horiz-adv-x="176" d="M120 779h1q14 -7 14 -9q6 -11 8 -13q12 -16 13 -21l30 -36l20 -33q-1 -2 -4 -2l-84 1l-30 55l-29 -52h-85q-4 0 -4 2l24 29l25 36q3 7 17 21q4 3 4 6t4 7q2 3 11 9h2q0 1 14 1q10 0 28.5 -0.5t20.5 -0.5zM150 492v-47l-2 -47q0 -43 -1 -59q1 -8 1 -16q1 -11 1 -28v-51 v-46q0 -6 0.5 -18.5t0.5 -14.5v-27v-14v-71v-3l1 -2v-1v-50q0 -1 -7 -4h-2l-73 2h-5h-28q-11 0 -11 17q0 4 0.5 12t0.5 11v64q2 80 3 131q0 2 -0.5 5.5t-0.5 5.5q0 33 1 86.5t2 86.5q0 1 0.5 14.5t-0.5 14.5q0 3 -2 13l-1 47l-2 12v119q1 6 8.5 9.5t15.5 4.5h7h85 q8 -1 8 -26v-116v-14z" />
<glyph unicode="&#xcf;" horiz-adv-x="176" d="M174 725v-40v-12q-1 -8 -3 -8h-50q-3 0 -7 7q-1 2 -1 10v38q0 2 1 6v3q1 1 2 3q0 1 1 1h51q2 0 3 -1t2 -3l1 -2v-2zM64 725v-40v-12q-1 -8 -3 -8h-50q-3 0 -7 7q-1 2 -1 10v38q0 2 1 6v3q1 1 2 3q0 1 1 1h51q2 0 3 -1t2 -3l1 -2v-2zM150 492v-47l-2 -47q0 -43 -1 -59 q1 -8 1 -16q1 -11 1 -28v-51v-46q0 -6 0.5 -18.5t0.5 -14.5v-27v-14v-71v-3l1 -2v-1v-50q0 -1 -7 -4h-2l-73 2h-5h-28q-11 0 -11 17q0 4 0.5 12t0.5 11v64q2 80 3 131q0 2 -0.5 5.5t-0.5 5.5q0 33 1 86.5t2 86.5q0 1 0.5 14.5t-0.5 14.5q0 3 -2 13l-1 47l-2 12v119 q1 6 8.5 9.5t15.5 4.5h7h85q8 -1 8 -26v-116v-14z" />
<glyph unicode="&#xd0;" d="M331 53q-3 -8 -7.5 -14l-7.5 -10t-9.5 -9t-8.5 -6.5t-11 -7t-11 -6.5q-6 -5 -34.5 -9t-36.5 -4h-102q-8 0 -20 2l-15 2q-9 1 -12.5 2t-6 5t-2.5 11q-4 23 -4 42v97q0 6 0.5 13t0.5 9q-2 54 -2 85v47h-19q-8 0 -16 2q-2 4 -2 5v51q0 6 10 6h22h1h5q0 19 0.5 52t0.5 47 q0 46 -3 85v66q0 26 10 33q2 1 24 8q20 3 26 3h5q10 0 41.5 1.5t48.5 1.5q52 0 65 -13q3 -3 16 -11t14 -9q4 -5 7 -9.5l5 -7.5q3 -4 5 -8.5t3 -5.5l6 -11q4 -5 5 -10t1 -6q10 -8 10 -10q1 -3 6 -37q1 -7 2.5 -21.5t1.5 -16.5q10 -70 10 -181v-100q0 -43 -4 -101 q-1 -19 -18 -52zM167 118q3 1 12 1h10q29 0 32 12q6 5 8 17q6 14 6 48v5v54v15q-2 61 -4 84q-2 14 -4.5 70t-7.5 72q-3 14 -19.5 20t-30.5 6h-4q0 -62 -2 -118v-1v-34v-3h26q4 0 5 -1h1q7 -1 10 -4v-51q0 -3 -2 -4.5t-6 -1.5l-4 -1q-3 0 -11 -0.5t-9 -0.5h-8v-6v-9v-54 q1 -1 1 -2v-50l-1 -4v-1v-23q0 -17 2 -35z" />
<glyph unicode="&#xd1;" horiz-adv-x="400" d="M286 786v-80q0 -13 -9 -22l-3 3q-4 3 -5 2q-1 0 -2 -6.5t-3 -7.5q-12 -5 -22 -5q-18 1 -41 22.5t-41 21.5q-12 0 -28 -24.5t-17 -24.5t-1 5v86q0 19 13.5 31.5t32.5 12.5q17 0 32 -13q3 -2 4 -7.5t3 -7.5l12 -2q17 -13 31 -14h1q10 0 24.5 17.5t16.5 17.5t2 -5zM371 557 q0 -7 0.5 -20.5t1.5 -18.5v-11v-10v-7v-97v-9q2 -18 2 -55q0 -14 -0.5 -41.5t-0.5 -40.5v-101l1 -26v-12v-51q0 -11 -1 -25t-1 -18v-9q0 -14 -10 -14h-115q-5 0 -16 38q-2 8 -5 16.5t-5 14.5q-1 6 -6 16l-70 188l-1 -3v-9q2 -7 2 -13v-235q0 -6 -1.5 -7.5t-3.5 -1.5h-1h-108 q-4 0 -6 1t-2 2.5v2.5v160v10v1v1l4 55v138v21v49v123v4v33q0 24 14 24h1q1 1 3 1h102q6 0 11.5 -8.5t6.5 -13.5q9 -23 10 -26q4 -13 6.5 -32t3.5 -25q0 -2 27 -100l27 -98q4 -12 7 -18q-1 5 -1 12v5v3v318q0 5 3.5 7.5t7.5 2.5h5l2 1l26 1h73l4 -6q4 -11 4 -26v-1v-33 q0 -7 -0.5 -15t-0.5 -12z" />
<glyph unicode="&#xd2;" d="M69 801l81 2q7 0 11 -4q4 -5 7 -10q1 1 1 0l1 -3q7 -6 6 -8q-1 -1 1 -4q2 -2 12 -17v-1l7 -10l36 -53q2 -4 0 -6l1 -2l-84 2l-8 1q-1 0 -2 0.5t-1.5 1t-2.5 3.5t-5 6l-5 7q-8 13 -29 43.5t-28 41.5q-1 3 -1 5t1 4zM220 128v20q3 20 6 86v6l1 5h1q2 26 2 29v1v25 q2 30 2 39q-2 16 -2 17l-2 48q-1 4 -2.5 24.5t-3.5 33.5t-5.5 29.5t-8.5 25t-12 8.5q-15 -1 -24.5 -17t-9.5 -24q-2 -6 -3.5 -12t-2.5 -8q-6 -27 -10 -66q-5 -43 -5 -80q0 -7 0.5 -23.5t0.5 -27.5v-6v-9.5v-9.5l1 -4l1 -3v-66v-2q0 -24 14 -52t31 -28h1q10 0 18 7.5t10 17.5 q0 4 0.5 7.5t1.5 6.5v2zM298 -14q-4 -2 -17 -6l-13 -3q-60 -6 -89 -6q-36 0 -81 17q-22 8 -28 13q-7 4 -11.5 10.5t-8.5 14t-6 10.5q-16 31 -16 37q0 7 -2 19t-2 18v96q0 18 1.5 57t1.5 61v17q1 23 1 66t1 64.5t6 51.5t15 53q0 2 2 2h1h1v1v2q0 5 10 20l10 15q3 4 5.5 7 t4.5 5q58 37 113 37h3h4q12 0 21.5 -1.5t15.5 -3t14.5 -7t12 -7.5t13.5 -10.5t14 -11.5q14 -12 23 -23l3 -6q0 -2 1 -2q4 -4 6 -12q5 -10 8 -27.5t4 -31.5t2 -36.5t2 -31.5q6 -75 6 -118v-122q-2 -25 -3.5 -74t-2.5 -63q-2 -21 -13 -47q-9 -20 -15.5 -30t-17.5 -14z" />
<glyph unicode="&#xd3;" d="M313 799l2 -10q-45 -65 -57 -85l-6 -7q-9 -11 -11 -11l-7 -1l-85 -2l1 2q0 5 1 6l36 53l6 10l1 1q6 10 14.5 22.5t13.5 19.5q0 4 10 4zM220 128v20q3 20 6 86v6l1 5h1q2 26 2 29v1v25q2 30 2 39q-2 16 -2 17l-2 48q-1 4 -2.5 24.5t-3.5 33.5t-5.5 29.5t-8.5 25t-12 8.5 q-15 -1 -24.5 -17t-9.5 -24q-2 -6 -3.5 -12t-2.5 -8q-6 -27 -10 -66q-5 -43 -5 -80q0 -7 0.5 -23.5t0.5 -27.5v-6v-9.5v-9.5l1 -4l1 -3v-66v-2q0 -24 14 -52t31 -28h1q10 0 18 7.5t10 17.5q0 4 0.5 7.5t1.5 6.5v2zM298 -14q-4 -2 -17 -6l-13 -3q-60 -6 -89 -6q-36 0 -81 17 q-22 8 -28 13q-7 4 -11.5 10.5t-8.5 14t-6 10.5q-16 31 -16 37q0 7 -2 19t-2 18v96q0 18 1.5 57t1.5 61v17q1 23 1 66t1 64.5t6 51.5t15 53q0 2 2 2h1h1v1v2q0 5 10 20l10 15q3 4 5.5 7t4.5 5q58 37 113 37h3h4q12 0 21.5 -1.5t15.5 -3t14.5 -7t12 -7.5t13.5 -10.5t14 -11.5 q14 -12 23 -23l3 -6q0 -2 1 -2q4 -4 6 -12q5 -10 8 -27.5t4 -31.5t2 -36.5t2 -31.5q6 -75 6 -118v-122q-2 -25 -3.5 -74t-2.5 -63q-2 -21 -13 -47q-9 -20 -15.5 -30t-17.5 -14z" />
<glyph unicode="&#xd4;" d="M231 791h1q14 -7 14 -9q6 -11 8 -13q12 -16 13 -21l30 -36l20 -33q-1 -2 -4 -2l-84 1l-30 55l-29 -52h-85q-4 0 -4 2l24 29l25 36q3 7 17 21q3 3 4 6t4 7q2 3 11 9h2q0 1 14 1q10 0 28.5 -0.5t20.5 -0.5zM220 128v20q3 20 6 86v6l1 5h1q2 26 2 29v1v25q2 30 2 39 q-2 16 -2 17l-2 48q-1 4 -2.5 24.5t-3.5 33.5t-5.5 29.5t-8.5 25t-12 8.5q-15 -1 -24.5 -17t-9.5 -24q-2 -6 -3.5 -12t-2.5 -8q-6 -27 -10 -66q-5 -43 -5 -80q0 -7 0.5 -23.5t0.5 -27.5v-6v-9.5v-9.5l1 -4l1 -3v-66v-2q0 -24 14 -52t31 -28h1q10 0 18 7.5t10 17.5 q0 4 0.5 7.5t1.5 6.5v2zM298 -14q-4 -2 -17 -6l-13 -3q-60 -6 -89 -6q-36 0 -81 17q-22 8 -28 13q-7 4 -11.5 10.5t-8.5 14t-6 10.5q-16 31 -16 37q0 7 -2 19t-2 18v96q0 18 1.5 57t1.5 61v17q1 23 1 66t1 64.5t6 51.5t15 53q0 2 2 2h1h1v1v2q0 5 10 20l10 15q3 4 5.5 7 t4.5 5q58 37 113 37h3h4q12 0 21.5 -1.5t15.5 -3t14.5 -7t12 -7.5t13.5 -10.5t14 -11.5q14 -12 23 -23l3 -6q0 -2 1 -2q4 -4 6 -12q5 -10 8 -27.5t4 -31.5t2 -36.5t2 -31.5q6 -75 6 -118v-122q-2 -25 -3.5 -74t-2.5 -63q-2 -21 -13 -47q-9 -20 -15.5 -30t-17.5 -14z" />
<glyph unicode="&#xd5;" d="M287 792v-80q0 -13 -9 -22l-4 3q-3 3 -4 2q-1 0 -2 -6.5t-3 -7.5q-12 -5 -22 -5q-18 1 -41 22.5t-41 21.5q-12 0 -28 -24.5t-17 -24.5t-1 5v86q0 19 13.5 31.5t32.5 12.5q17 0 32 -13q3 -2 4 -7.5t3 -7.5l12 -2q17 -13 31 -14h1q10 0 24.5 17.5t16.5 17.5t2 -5zM220 128 v20q3 20 6 86v6l1 5h1q2 26 2 29v1v25q2 30 2 39q-2 16 -2 17l-2 48q-1 4 -2.5 24.5t-3.5 33.5t-5.5 29.5t-8.5 25t-12 8.5q-15 -1 -24.5 -17t-9.5 -24q-2 -6 -3.5 -12t-2.5 -8q-6 -27 -10 -66q-5 -43 -5 -80q0 -7 0.5 -23.5t0.5 -27.5v-6v-9.5v-9.5l1 -4l1 -3v-66v-2 q0 -24 14 -52t31 -28h1q10 0 18 7.5t10 17.5q0 4 0.5 7.5t1.5 6.5v2zM298 -14q-4 -2 -17 -6l-13 -3q-60 -6 -89 -6q-36 0 -81 17q-22 8 -28 13q-7 4 -11.5 10.5t-8.5 14t-6 10.5q-16 31 -16 37q0 7 -2 19t-2 18v96q0 18 1.5 57t1.5 61v17q1 23 1 66t1 64.5t6 51.5t15 53 q0 2 2 2h1h1v1v2q0 5 10 20l10 15q3 4 5.5 7t4.5 5q58 37 113 37h3h4q12 0 21.5 -1.5t15.5 -3t14.5 -7t12 -7.5t13.5 -10.5t14 -11.5q14 -12 23 -23l3 -6q0 -2 1 -2q4 -4 6 -12q5 -10 8 -27.5t4 -31.5t2 -36.5t2 -31.5q6 -75 6 -118v-122q-2 -25 -3.5 -74t-2.5 -63 q-2 -21 -13 -47q-9 -20 -15.5 -30t-17.5 -14z" />
<glyph unicode="&#xd6;" d="M283 733v-40v-12q-1 -8 -3 -8h-50q-4 0 -7 7q-1 2 -1 10v38v6l1 3q1 1 2 3l1 1h51q2 0 3 -1t2 -3l1 -2v-2zM173 733v-40v-12q-1 -8 -3 -8h-50q-4 0 -7 7q-1 2 -1 10v38v6l1 3q1 1 2 3l1 1h51q2 0 3 -1t2 -3l1 -2v-2zM220 128v20q3 20 6 86v6l1 5h1q2 26 2 29v1v25 q2 30 2 39q-2 16 -2 17l-2 48q-1 4 -2.5 24.5t-3.5 33.5t-5.5 29.5t-8.5 25t-12 8.5q-15 -1 -24.5 -17t-9.5 -24q-2 -6 -3.5 -12t-2.5 -8q-6 -27 -10 -66q-5 -43 -5 -80q0 -7 0.5 -23.5t0.5 -27.5v-6v-9.5v-9.5l1 -4l1 -3v-66v-2q0 -24 14 -52t31 -28h1q10 0 18 7.5t10 17.5 q0 4 0.5 7.5t1.5 6.5v2zM298 -14q-4 -2 -17 -6l-13 -3q-60 -6 -89 -6q-36 0 -81 17q-22 8 -28 13q-7 4 -11.5 10.5t-8.5 14t-6 10.5q-16 31 -16 37q0 7 -2 19t-2 18v96q0 18 1.5 57t1.5 61v17q1 23 1 66t1 64.5t6 51.5t15 53q0 2 2 2h1h1v1v2q0 5 10 20l10 15q3 4 5.5 7 t4.5 5q58 37 113 37h3h4q12 0 21.5 -1.5t15.5 -3t14.5 -7t12 -7.5t13.5 -10.5t14 -11.5q14 -12 23 -23l3 -6q0 -2 1 -2q4 -4 6 -12q5 -10 8 -27.5t4 -31.5t2 -36.5t2 -31.5q6 -75 6 -118v-122q-2 -25 -3.5 -74t-2.5 -63q-2 -21 -13 -47q-9 -20 -15.5 -30t-17.5 -14z" />
<glyph unicode="&#xd7;" horiz-adv-x="301" d="M145 323q19 51 20 51h102q2 0 2 -2l2 -4l-32 -50l-17 -32l23 -38l31 -50q0 -3 -2 -3h-110l-7 23q-7 22 -10 22q-2 0 -6.5 -11t-8.5 -22l-4 -11h-100q-2 0 -2 2l26 50l20 34l-17 34l-16 26q-14 21 -14 29q0 1 1 1l99 1h2z" />
<glyph unicode="&#xd8;" horiz-adv-x="366" d="M293 -14q-4 -2 -17 -6l-13 -3q-60 -6 -89 -6q-36 0 -81 17l-10 -23l-7 -17q-8 -17 -13 -24h-46q-10 1 -10 6l21 50v1l18 41v1q-3 8 -7 13q-16 31 -16 37q0 7 -2 19t-2 18v96q0 18 1.5 57t1.5 61v17q1 23 1 66t1 64.5t6 51.5t15 53q0 2 2 2h1q1 0 1 1v2q0 5 10 20l10 15 q3 4 5.5 7t4.5 5q58 37 113 37h3h5q26 0 41 -6.5t35 -23.5l9 26q0 8 6 14q0 2 4 2h1h26h9l8 -2q4 -1 4 -6l-28 -72q1 -4 2 -4q4 -4 6 -12q5 -10 8 -27.5t4 -31.5t2 -36.5t2 -31.5q6 -75 6 -118v-122q-2 -25 -3.5 -74t-2.5 -63q-2 -21 -13 -47q-9 -20 -15.5 -30t-17.5 -14z M215 128v20q3 20 6 86q0 2 1 6v5h1q2 26 2 29v1v25q2 30 2 39q0 4 -1 6l-15 -45q-20 -47 -65 -171q16 -42 38 -42h1q10 0 18 7.5t10 17.5q0 4 0.5 7.5t0.5 6.5zM212 468q0 4 -1 6q-1 3 -2.5 14.5t-1.5 12.5v1q0 5 -4.5 14t-11.5 9q-15 -1 -24.5 -17t-9.5 -24q-2 -6 -3.5 -12 t-2.5 -8q-6 -27 -10 -66q-5 -43 -5 -80q0 -7 0.5 -23.5t0.5 -27.5v-9q3 10 9 32q16 34 22 58q5 25 20 60z" />
<glyph unicode="&#xd9;" horiz-adv-x="372" d="M231 224v71v43l-2 4v1v83l2 12q-2 25 -2 33l-2 146q0 11 4 11h106q8 0 8 -13v-9q2 -30 2 -38v-32v-25q1 -21 1 -60q0 -20 -0.5 -56t-0.5 -52q0 -36 1 -51l-1 -80v-97q0 -6 -2 -17v-7q0 -47 -32.5 -80.5t-73.5 -33.5l-102 1q-15 0 -39 6h-1q-1 2 -2 3h-2q-12 2 -30 13 q-17 9 -24 24q-5 9 -10 28q-4 16 -4 53v96q0 30 4 78v6q0 9 -1 26t-1 24v9v43v36q1 12 1 36v20q0 10 0.5 32t0.5 31q0 17 -0.5 32.5t-0.5 25.5v12q1 24 5 24h1h73h2h1h14q14 0 17 -3q6 -5 6 -25q0 -21 0.5 -41t0.5 -33v-58q0 -14 -3 -68v-7v-50q-1 -12 -1.5 -28.5t-1 -38 t-0.5 -32.5q-1 -9 -1 -27q0 -13 1 -39t1 -37q0 -16 -1 -23q1 -3 1 -4q4 -8 14 -18q2 -2 14 -8q3 -3 13 -3h7q14 1 26 9.5t12 23.5q0 2 0.5 10.5t1 25.5t0.5 34v14v2v12zM74 773l82 2q10 0 10 -4q6 -6 7 -8l1 -2l2 -3q6 -6 5 -8v-1t1 -3q2 -2 12 -17v-1l8 -10l36 -53v-6v-2 l-84 2l-8 1q-2 0 -4 3q-1 1 -1.5 2t-2 2.5t-2.5 3.5l-6 7q-7 11 -27 40.5t-29 44.5v10z" />
<glyph unicode="&#xda;" horiz-adv-x="372" d="M300 777l2 -10q-36 -53 -56 -85l-6 -7q-9 -11 -12 -11l-6 -1l-86 -2l2 2l-1 1q-1 0 -1 1t2 4l36 53l6 10l2 1q6 10 15 23t13 19q0 4 10 4zM231 224v71v43l-2 4v1v83l2 12q-2 25 -2 33l-2 146q0 11 4 11h106q8 0 8 -13v-9q2 -30 2 -38v-32v-25q1 -21 1 -60q0 -20 -0.5 -56 t-0.5 -52q0 -36 1 -51l-1 -80v-97q0 -6 -2 -17v-7q0 -47 -32.5 -80.5t-73.5 -33.5l-102 1q-15 0 -39 6h-1q-1 2 -2 3h-2q-12 2 -30 13q-17 9 -24 24q-5 9 -10 28q-4 16 -4 53v96q0 30 4 78v6q0 9 -1 26t-1 24v9v43v36q1 12 1 36v20q0 10 0.5 32t0.5 31q0 17 -0.5 32.5 t-0.5 25.5v12q1 24 5 24h1h73h2h1h14q14 0 17 -3q6 -5 6 -25q0 -21 0.5 -41t0.5 -33v-58q0 -14 -3 -68v-7v-50q-1 -12 -1.5 -28.5t-1 -38t-0.5 -32.5q-1 -9 -1 -27q0 -13 1 -39t1 -37q0 -16 -1 -23q1 -3 1 -4q4 -8 14 -18q2 -2 14 -8q3 -3 13 -3h7q14 1 26 9.5t12 23.5 q0 2 0.5 10.5t1 25.5t0.5 34v14v2v12z" />
<glyph unicode="&#xdb;" horiz-adv-x="372" d="M229 773h1q14 -7 14 -9q6 -11 8 -13q12 -16 13 -21l30 -36l20 -33q-1 -2 -4 -2l-84 1l-30 55l-29 -52h-85q-4 0 -4 2l24 29l25 36q3 7 17 21q3 3 4 6t4 7q2 3 11 9h2q0 1 14 1q10 0 28.5 -0.5t20.5 -0.5zM231 224v71v43l-2 4v1v83l2 12q-2 25 -2 33l-2 146q0 11 4 11h106 q8 0 8 -13v-9q2 -30 2 -38v-32v-25q1 -21 1 -60q0 -20 -0.5 -56t-0.5 -52q0 -36 1 -51l-1 -80v-97q0 -6 -2 -17v-7q0 -47 -32.5 -80.5t-73.5 -33.5l-102 1q-15 0 -39 6h-1q-1 2 -2 3h-2q-12 2 -30 13q-17 9 -24 24q-5 9 -10 28q-4 16 -4 53v96q0 30 4 78v6q0 9 -1 26t-1 24 v9v43v36q1 12 1 36v20q0 10 0.5 32t0.5 31q0 17 -0.5 32.5t-0.5 25.5v12q1 24 5 24h1h73h2h1h14q14 0 17 -3q6 -5 6 -25q0 -21 0.5 -41t0.5 -33v-58q0 -14 -3 -68v-7v-50q-1 -12 -1.5 -28.5t-1 -38t-0.5 -32.5q-1 -9 -1 -27q0 -13 1 -39t1 -37q0 -16 -1 -23q1 -3 1 -4 q4 -8 14 -18q2 -2 14 -8q3 -3 13 -3h7q14 1 26 9.5t12 23.5q0 2 0.5 10.5t1 25.5t0.5 34v14v2v12z" />
<glyph unicode="&#xdc;" horiz-adv-x="372" d="M272 725v-40v-12q-1 -8 -3 -8h-50q-3 0 -7 7q-1 2 -1 10v38q0 2 1 6v3q1 1 2 3q0 1 1 1h51q2 0 3 -1t2 -3l1 -2v-2zM162 725v-40v-12q-1 -8 -3 -8h-50q-3 0 -7 7q-1 2 -1 10v38q0 2 1 6v3q1 1 2 3q0 1 1 1h51q2 0 3 -1t2 -3l1 -2v-2zM231 224v71v43l-2 4v1v83l2 12 q-2 25 -2 33l-2 146q0 11 4 11h106q8 0 8 -13v-9q2 -30 2 -38v-32v-25q1 -21 1 -60q0 -20 -0.5 -56t-0.5 -52q0 -36 1 -51l-1 -80v-97q0 -6 -2 -17v-7q0 -47 -32.5 -80.5t-73.5 -33.5l-102 1q-15 0 -39 6h-1q-1 2 -2 3h-2q-12 2 -30 13q-17 9 -24 24q-5 9 -10 28 q-4 16 -4 53v96q0 30 4 78v6q0 9 -1 26t-1 24v9v43v36q1 12 1 36v20q0 10 0.5 32t0.5 31q0 17 -0.5 32.5t-0.5 25.5v12q1 24 5 24h1h73h2h1h14q14 0 17 -3q6 -5 6 -25q0 -21 0.5 -41t0.5 -33v-58q0 -14 -3 -68v-7v-50q-1 -12 -1.5 -28.5t-1 -38t-0.5 -32.5q-1 -9 -1 -27 q0 -13 1 -39t1 -37q0 -16 -1 -23q1 -3 1 -4q4 -8 14 -18q2 -2 14 -8q3 -3 13 -3h7q14 1 26 9.5t12 23.5q0 2 0.5 10.5t1 25.5t0.5 34v14v2v12z" />
<glyph unicode="&#xdd;" horiz-adv-x="355" d="M297 781l2 -10q-45 -65 -57 -85l-6 -7q-9 -11 -11 -11l-7 -1l-85 -2l1 2q0 5 1 6l36 53l6 10l1 1q6 10 14.5 22.5t13.5 19.5q0 4 10 4zM168 411q3 10 14 64q13 39 32 134l10 40q1 0 2 1h2h109q8 0 8 -10l-16 -50l-12 -46l-4 -14q-1 -5 -25 -87l-20 -66q-2 -7 -6 -17.5 t-6 -17.5v-2q-1 -3 -1 -5l-1 -1v-1q-2 -6 -3 -11.5t-3 -10.5q-1 -2 -19 -66v-20q0 -17 0.5 -45.5t0.5 -41.5v-51v-84v-1q0 -11 -10 -11h-106q-6 1 -6 12v97v5.5t0.5 4.5t0.5 4v1q0 3 -1 7v4v50v12l1 6l-3 9v15q0 1 -1 4l-1 3l-4 41q0 2 -3 14l-3 11q-1 13 -7 35.5t-7 26.5 q-7 34 -22 96q-2 5 -3.5 13t-2.5 13q-4 17 -13 45l-16 62l-8 35q-2 12 -2 14q0 7 16 7h81q9 0 11.5 -3t3.5 -9q0 -5 1 -8q1 -8 17 -78.5t16 -71.5l6 -33z" />
<glyph unicode="&#xde;" horiz-adv-x="351" d="M29 35v203q0 26 0.5 84.5t0.5 81.5q0 15 -0.5 43t-0.5 41q0 25 -2 51t-2 28v97q6 8 8 8h102q2 0 8 -9q2 -20 2 -22q2 -20 2 -60v-38v-1q49 0 75 -6.5t40 -26.5q38 -43 54 -105q10 -43 10 -84v-97q0 -15 -2 -23q-1 -3 -4 -23.5t-8 -33t-14 -17.5q-44 -23 -94 -23h-55v-5 v-5v-47q0 -8 1 -17t1 -11v-50q0 -6 -2 -6h-116q-1 0 -2 1q-3 5 -3 14v50q0 6 1 8zM210 267q-2 9 -2.5 35t-0.5 47.5t-1 22.5q-7 40 -45 40q-12 0 -12 -4v-17q0 -5 -1 -11t-1 -7v-133q0 -22 1 -27q2 1 14 1h23l11 1q14 3 14 39v13z" />
<glyph unicode="&#xdf;" horiz-adv-x="734" d="M505 185q1 -1 1 -3t-0.5 -4.5t-0.5 -3.5v-1q-1 -12 -1 -18q0 -4 1 -5q2 -18 4 -20q1 -4 2.5 -11t2 -10.5t3 -8t6.5 -7.5q9 -9 25 -9q14 0 21 10q2 2 5 6l3 5q2 3 3 6t1 5v3l1 13q-2 16 -10.5 31t-19.5 27t-13 15t-3.5 4t-2 1t-0.5 1q-3 3 -5.5 8.5t-3.5 6.5l-19 27 q-12 14 -16 20l-16 23q-7 7 -17 22.5t-27 36.5q-2 3 -8.5 14.5t-13 21.5t-6.5 11q-15 30 -15 72q0 19 5 39q4 21 26 60q4 14 4 15q2 4 6 9l2 3q2 5 7.5 9t5.5 5q3 3 7 6l3 4q12 14 16 15q42 16 95 16q14 0 20 -1q74 -7 103 -56q1 -3 4 -10q1 -3 3 -7.5t3.5 -7.5t1.5 -4 q2 -2 2 -7v-2q7 -31 7 -48l3 -62q0 -4 0.5 -10.5t0.5 -8.5q0 -20 -20 -20h-61l-36 1q-6 0 -6 18v7q0 57 -3 69q0 4 -10 11t-21 7h-2q-8 -1 -17.5 -12t-13.5 -25v-1q0 -1 -2 -7.5t-2 -8.5l1 -25q6 -19 13 -29q5 -6 9.5 -14.5t6.5 -10.5q5 -5 9.5 -12t6.5 -9q3 -5 6 -8.5l6 -7 t4 -4.5q4 -7 14 -20t28 -36t32 -42q6 -5 14 -18.5t9 -21.5q28 -55 31 -92q0 -2 0.5 -8t0.5 -8q0 -36 -12 -64q-3 -6 -3 -9l-1 -1v-1q-5 -11 -12 -17.5t-10 -10.5q-10 -13 -26 -25q-26 -13 -84 -13q-69 0 -119 12q-19 5 -40 34q-16 21 -16 62q-3 57 -3 62v42q0 11 6 11h32h24 q3 0 8 -2t8 -2q2 0 4.5 1.5t3.5 1.5l5 1h11.5h11.5q9 0 9 -1zM164 454l8 -18q8 -10 45.5 -42t43.5 -40q10 -15 25.5 -34.5t23.5 -30.5t17 -32t15 -49q4 -21 4 -39q3 -23 3 -47q-2 -72 -24 -99q-9 -10 -25 -23q-4 -2 -13.5 -7.5t-15.5 -9t-8 -3.5l-5 -1q-5 -1 -13.5 -3 t-18 -4t-20 -3.5t-19.5 -1.5h-8q-15 0 -71 8q-64 10 -83 98l-2 62v50q0 3 1 20v14q0 11 6 11h110q2 0 3 -3t1 -7v-3v-27l-1 -48q1 -13 3 -22q4 -18 11 -27q1 0 10 -4t11 -4h1l9 3q10 3 18 10t8 10q5 6 8 17l4 11l1 4q0 4 -0.5 10t-0.5 8q-1 12 -11 39.5t-21 39.5 q-13 20 -37 43t-29 28q-2 2 -5 5.5t-5.5 6t-3.5 2.5q-6 3 -6 5q-3 3 -3 4v1q0 1 -1 1q-5 7 -26 25q-7 8 -14.5 14t-11.5 12t-10 20q-17 44 -17 77q0 13 1 20q1 9 4 21t5.5 21.5t2.5 10.5l5 10l1 1v1q5 6 8 16q6 13 19.5 24.5t16.5 16.5q3 4 5.5 5.5t2.5 2.5q10 10 35.5 18.5 t54.5 9.5h12q69 0 99 -19q19 -10 21 -13q10 -7 18 -21q4 -8 8 -19q4 -6 4 -34v-13q2 -11 2 -21v-30v-6q0 -17 -4 -25q-5 -14 -22 -14l-77 3h-8q-9 0 -11 2.5t-2 14.5v9l-2 8v17l-2 8q-2 3 -6 13t-7 12q-7 7 -16 7q-15 0 -26 -19q-7 -13 -7 -28q0 -6 1 -16t1 -14q-1 0 -1 -1z " />
<glyph unicode="&#xe0;" horiz-adv-x="412" d="M88 778l81 2q7 0 11 -4q4 -5 7 -10q1 1 1 0l1 -3q7 -6 6 -8q-1 -1 1 -4q2 -2 12 -17v-1l7 -10l36 -53q2 -4 0 -6l1 -2l-84 2l-8 1q-1 0 -2 0.5t-1.5 1t-2.5 3.5t-5 6l-5 7q-8 13 -29 43.5t-28 41.5q-1 3 -1 5t1 3zM308 628q3 -25 10.5 -70.5t9.5 -59.5v-10q0 -12 1 -18 l7 -24q24 -166 27 -184q1 -4 2.5 -9t1.5 -7v-16q2 -13 8 -45t8 -52v-10q0 -3 4 -23l6 -47v-9v-1l7 -48q0 -2 -2 -4l-115 -1q-7 0 -15 33q-2 9 -5 35q-4 38 -20 140l-71 1l-8 -34q0 -1 -1.5 -11t-1.5 -11l-3 -12l-2 -24q-3 -26 -8.5 -62.5t-7.5 -49.5q-1 -1 -3 -1h-1h-66h-1 h-16q-41 0 -41 10v3l9 50l6 31q1 2 1 5v3l-1 1q2 4 2.5 13t1.5 13q1 8 2.5 11t1.5 5q9 73 44 269l10 60v18q3 22 13.5 72.5t12.5 74.5q0 14 12 15h2l62 -2l20 -6l14 5l69 -3q10 0 12 -2q2 -10 2 -12zM180 304l60 -1q-9 59 -14 96t-5 38v4v10v4q-1 4 -3 8.5t-2 7.5l-8 55z " />
<glyph unicode="&#xe1;" horiz-adv-x="412" d="M324 778l2 -10q-45 -65 -57 -85l-6 -7q-9 -11 -11 -11l-7 -1l-85 -2l1 2q0 5 1 6l36 53l6 10l1 1q6 10 14.5 22.5t13.5 19.5q0 4 10 4zM308 628q3 -25 10.5 -70.5t9.5 -59.5v-10q0 -12 1 -18l7 -24q24 -166 27 -184q1 -4 2.5 -9t1.5 -7v-16q2 -13 8 -45t8 -52v-10 q0 -3 4 -23l6 -47v-9v-1l7 -48q0 -2 -2 -4l-115 -1q-7 0 -15 33q-2 9 -5 35q-4 38 -20 140l-71 1l-8 -34q0 -1 -1.5 -11t-1.5 -11l-3 -12l-2 -24q-3 -26 -8.5 -62.5t-7.5 -49.5q-1 -1 -3 -1h-1h-66h-1h-16q-41 0 -41 10v3l9 50l6 31q1 2 1 5v3l-1 1q2 4 2.5 13t1.5 13 q1 8 2.5 11t1.5 5q9 73 44 269l10 60v18q3 22 13.5 72.5t12.5 74.5q0 14 12 15h2l62 -2l20 -6l14 5l69 -3q10 0 12 -2q2 -10 2 -12zM180 304l60 -1q-9 59 -14 96t-5 38v4v10v4q-1 4 -3 8.5t-2 7.5l-8 55z" />
<glyph unicode="&#xe2;" horiz-adv-x="412" d="M248 776h1q14 -7 14 -9q6 -11 8 -13q12 -16 13 -21l30 -36l20 -33q-1 -2 -4 -2l-84 1l-30 55l-29 -52h-85q-4 0 -4 2l24 29l25 36q3 7 17 21q4 4 4 7t4 6q2 3 11 9h2q0 1 14 1q10 0 28.5 -0.5t20.5 -0.5zM308 628q3 -25 10.5 -70.5t9.5 -59.5v-10q0 -12 1 -18l7 -24 q24 -166 27 -184q1 -4 2.5 -9t1.5 -7v-16q2 -13 8 -45t8 -52v-10q0 -3 4 -23l6 -47v-9v-1l7 -48q0 -2 -2 -4l-115 -1q-7 0 -15 33q-2 9 -5 35q-4 38 -20 140l-71 1l-8 -34q0 -1 -1.5 -11t-1.5 -11l-3 -12l-2 -24q-3 -26 -8.5 -62.5t-7.5 -49.5q-1 -1 -3 -1h-1h-66h-1h-16 q-41 0 -41 10v3l9 50l6 31q1 2 1 5v3l-1 1q2 4 2.5 13t1.5 13q1 8 2.5 11t1.5 5q9 73 44 269l10 60v18q3 22 13.5 72.5t12.5 74.5q0 14 12 15h2l62 -2l20 -6l14 5l69 -3q10 0 12 -2q2 -10 2 -12zM180 304l60 -1q-9 59 -14 96t-5 38v4v10v4q-1 4 -3 8.5t-2 7.5l-8 55z" />
<glyph unicode="&#xe3;" horiz-adv-x="412" d="M292 783v-80q0 -13 -9 -22l-3 3q-4 3 -5 2q-1 0 -2 -6.5t-3 -7.5q-12 -5 -22 -5q-18 1 -41 22.5t-41 21.5q-12 0 -28 -24.5t-17 -24.5t-1 5v86q0 19 13.5 31.5t32.5 12.5q17 0 32 -13q3 -2 4 -7.5t3 -7.5l12 -2q17 -13 31 -14h1q10 0 24.5 17.5t16.5 17.5t2 -5zM308 628 q3 -25 10.5 -70.5t9.5 -59.5v-10q0 -12 1 -18l7 -24q24 -166 27 -184q1 -4 2.5 -9t1.5 -7v-16q2 -13 8 -45t8 -52v-10q0 -3 4 -23l6 -47v-9v-1l7 -48q0 -2 -2 -4l-115 -1q-7 0 -15 33q-2 9 -5 35q-4 38 -20 140l-71 1l-8 -34q0 -1 -1.5 -11t-1.5 -11l-3 -12l-2 -24 q-3 -26 -8.5 -62.5t-7.5 -49.5q-1 -1 -3 -1h-1h-66h-1h-16q-41 0 -41 10v3l9 50l6 31q1 2 1 5v3l-1 1q2 4 2.5 13t1.5 13q1 8 2.5 11t1.5 5q9 73 44 269l10 60v18q3 22 13.5 72.5t12.5 74.5q0 14 12 15h2l62 -2l20 -6l14 5l69 -3q10 0 12 -2q2 -10 2 -12zM180 304l60 -1 q-9 59 -14 96t-5 38v4v10v4q-1 4 -3 8.5t-2 7.5l-8 55z" />
<glyph unicode="&#xe4;" horiz-adv-x="412" d="M298 724v-40v-12q-1 -8 -3 -8h-50q-3 0 -7 7q-1 3 -1 10v38q0 2 1 5v4q1 1 2 3q0 1 1 1h51q2 0 3 -1t2 -3l1 -2v-2zM188 724v-40v-12q-1 -8 -3 -8h-50q-3 0 -7 7q-1 3 -1 10v38q0 2 1 5v4q1 1 2 3q0 1 1 1h51q2 0 3 -1t2 -3l1 -2v-2zM308 628q3 -25 10.5 -70.5t9.5 -59.5 v-10q0 -12 1 -18l7 -24q24 -166 27 -184q1 -4 2.5 -9t1.5 -7v-16q2 -13 8 -45t8 -52v-10q0 -3 4 -23l6 -47v-9v-1l7 -48q0 -2 -2 -4l-115 -1q-7 0 -15 33q-2 9 -5 35q-4 38 -20 140l-71 1l-8 -34q0 -1 -1.5 -11t-1.5 -11l-3 -12l-2 -24q-3 -26 -8.5 -62.5t-7.5 -49.5 q-1 -1 -3 -1h-1h-66h-1h-16q-41 0 -41 10v3l9 50l6 31q1 2 1 5v3l-1 1q2 4 2.5 13t1.5 13q1 8 2.5 11t1.5 5q9 73 44 269l10 60v18q3 22 13.5 72.5t12.5 74.5q0 14 12 15h2l62 -2l20 -6l14 5l69 -3q10 0 12 -2q2 -10 2 -12zM180 304l60 -1q-9 59 -14 96t-5 38v4v10v4 q-1 4 -3 8.5t-2 7.5l-8 55z" />
<glyph unicode="&#xe5;" horiz-adv-x="412" d="M225 724h-5h-15q-4 0 -6 -1q-1 0 -2 -1q-2 -2 -2 -6l-1 -10v-11v-2v-4q0 -8 7 -8h22h3t3 1.5t1 5.5v5v21q0 6 -2 8q0 2 -3 2zM252 768q4 -1 9 -5q4 -5 6 -24v-65q0 -4 -0.5 -9t-0.5 -7l-3 -15l31 -1q10 0 12 -2q2 -10 2 -12q3 -25 10.5 -70.5t9.5 -59.5v-10q0 -12 1 -18 l7 -24q24 -166 27 -184q1 -4 2.5 -9t1.5 -7v-16q2 -13 8 -45t8 -52v-10q0 -3 4 -23l6 -47v-9v-1l7 -48q0 -2 -2 -4l-115 -1q-7 0 -15 33q-2 9 -5 35q-4 38 -20 140l-71 1l-8 -34q0 -1 -1.5 -11t-1.5 -11l-3 -12l-2 -24q-3 -26 -8.5 -62.5t-7.5 -49.5q-1 -1 -3 -1h-1h-66h-1 h-16q-41 0 -41 10v3l9 50l6 31q1 2 1 5v3l-1 1q2 4 2.5 13t1.5 13q1 8 2.5 11t1.5 5q9 73 44 269l10 60v18q3 22 13.5 72.5t12.5 74.5q0 14 12 15h2l31 -1q-3 6 -3 13v14v7v32l3 30q0 14 7 19q3 4 7 4q5 2 16 2h47h13h2zM180 304l60 -1q-9 59 -14 96t-5 38v4v10v4 q-1 4 -3 8.5t-2 7.5l-8 55z" />
<glyph unicode="&#xe6;" horiz-adv-x="490" d="M242 198l-65 1l-8 -34q0 -1 -1.5 -11t-1.5 -11l-3 -12l-2 -24q-3 -26 -8.5 -62.5t-7.5 -49.5q-1 -1 -3 -1h-1h-71h-1h-16q-41 0 -41 10v3l9 50l6 31q1 2 1 5v3l-1 1q2 4 2.5 13t1.5 13q1 8 2.5 11t1.5 5q9 73 44 269l10 60v18q3 22 13.5 72.5t12.5 74.5q0 14 12 15h2 l67 -2l20 -6l14 5l29 -1h7h112l7 -1h59q20 0 20 -5v-97v-1v-1q-6 -6 -26 -6h-8h-52q-5 0 -8 -1h-2q-3 -12 -4 -13v-95q1 -3 1.5 -5.5t1 -3.5t0.5 -2h77q10 0 10 -5v-1v-97q0 -4 -4 -6.5t-6 -2.5q-6 -2 -13 -2h-1h-56q-4 -1 -6 -1q-2 -6 -2 -12v-32q0 -19 -0.5 -47.5 t-0.5 -39.5q0 -16 2 -58q6 -5 15 -5h23q15 0 20 -1h26q14 0 14 -5v-1v-96q-3 -6 -18 -9q-10 -3 -20 -3h-19h-84l-10 3q-4 2 -9 2t-12 -1l-7 -1q-15 0 -18 1q-5 0 -7 1h-11q-10 2 -10 9v4v96v7v3zM242 321v183v10l1 5q0 6 -1 8q-3 1 -10 1l-19 -2l-28 -222l57 -1v18z" />
<glyph unicode="&#xe7;" horiz-adv-x="363" d="M152 -86v32v33v1q-12 2 -17 3q-36 6 -46 11q-5 3 -10 9l-6 5q-7 3 -12 14q-6 11 -6 12q-14 19 -16 31q-6 26 -8 46v2l-2 14q-2 8 -2 16q-2 34 -2 99v96q0 66 4 140q1 9 2.5 20.5t2.5 20t1 11.5q2 22 24 68q7 12 18 25l6 8v1q22 26 108 26q70 0 99 -17q21 -20 30 -68 q10 -42 10 -64v-96q0 -11 -2 -17q0 -4 -1 -6.5t-2 -2.5h-1h-101q-6 0 -9.5 3t-3.5 4.5v4.5q-2 6 -2 27q-1 7 -1 12v30q0 3 -2 23t-3 24q0 8 -6 13.5t-14 5.5t-14.5 -5.5t-7.5 -16.5h-1v0l-6 -50q-8 -48 -8 -84v-1v-1v-12v-55q0 -5 -0.5 -9.5t-0.5 -7.5v-4q0 -8 0.5 -16 t0.5 -10q1 -47 4 -69q2 -25 3 -41q3 -36 19 -52q11 -10 21 -9q3 -1 6 0.5t5 4.5t3.5 5.5t2.5 4.5t2 1q0 3 2 9.5t3 11.5l2 6v19q0 14 0.5 36.5t0.5 35.5q2 16 2 17q0 4 6 7t12 3l6 1h48h25q14 -1 17.5 -3.5t3.5 -10.5v-8v-6l1 -59v-21q0 -74 -19 -126q-2 -8 -4.5 -13t-4 -7 t-6 -5.5t-5.5 -4.5q-20 -9 -28 -9l-18 -1h-4h-1h-35q0 -1 -1 -3v-1v-14l4 -2q6 0 16 -5t14 -5q12 -11 12 -32v-40q-1 -4 -6 -26q-2 -2 -6 -7l-4 -4l-4 -5q-6 -6 -20 -6h-54h-4h-10q-4 0 -4 4q-2 9 -2 11v46q2 1 4 1q3 0 16.5 -1t21.5 -1q22 0 24 6q0 18 -24 18z" />
<glyph unicode="&#xe8;" horiz-adv-x="275" d="M19 778l81 2q7 0 11 -4q4 -5 7 -10q1 1 1 0l1 -3q7 -6 6 -8q-1 -1 1 -4q2 -2 12 -17v-1l7 -10l36 -53q2 -4 0 -6l1 -2l-84 2l-8 1q-1 0 -2 0.5t-1.5 1t-2.5 3.5t-5 6l-5 7q-8 13 -29 43.5t-28 41.5q-1 3 -1 5t1 3zM27 321v183q0 5 1 10v5q0 3 -0.5 6.5t-0.5 4.5 q-1 4 -1 9v97q0 7 6 7q12 1 19 1h112l7 -1h59q20 0 20 -5v-97q1 -1 0 -2q-6 -6 -26 -6h-8h-52q-5 0 -7 -1h-3q-3 -12 -4 -13v-95q1 -3 1.5 -5.5t1 -3.5t0.5 -2h77q11 0 10 -6v-97q0 -4 -4 -6.5t-6 -2.5q-6 -2 -13 -2h-1h-56q-3 -1 -5 -1h-1q-2 -6 -2 -12v-32 q0 -19 -0.5 -47.5t-0.5 -39.5q0 -16 2 -58q6 -5 15 -5h23q15 0 20 -1h26q7 0 10.5 -1.5t3.5 -2.5v-2v-96q-3 -6 -18 -9q-10 -3 -20 -3h-103l-10 3q-3 2 -9 2t-12 -1l-7 -1q-15 0 -18 1q-5 0 -7 1h-11q-10 2 -10 13v96v7v3l2 94q0 9 -1 18t-1 13q0 2 1 32t1 51z" />
<glyph unicode="&#xe9;" horiz-adv-x="275" d="M249 778l2 -10q-45 -65 -57 -85l-6 -7q-9 -11 -11 -11l-7 -1l-85 -2l1 2q0 5 1 6l36 53l6 10l1 1q6 10 14.5 22.5t13.5 19.5q0 4 10 4zM27 321v183q0 5 1 10v5q0 3 -0.5 6.5t-0.5 4.5q-1 4 -1 9v97q0 7 6 7q12 1 19 1h112l7 -1h59q20 0 20 -5v-97q1 -1 0 -2q-6 -6 -26 -6 h-8h-52q-5 0 -7 -1h-3q-3 -12 -4 -13v-95q1 -3 1.5 -5.5t1 -3.5t0.5 -2h77q11 0 10 -6v-97q0 -4 -4 -6.5t-6 -2.5q-6 -2 -13 -2h-1h-56q-3 -1 -5 -1h-1q-2 -6 -2 -12v-32q0 -19 -0.5 -47.5t-0.5 -39.5q0 -16 2 -58q6 -5 15 -5h23q15 0 20 -1h26q7 0 10.5 -1.5t3.5 -2.5v-2 v-96q-3 -6 -18 -9q-10 -3 -20 -3h-103l-10 3q-3 2 -9 2t-12 -1l-7 -1q-15 0 -18 1q-5 0 -7 1h-11q-10 2 -10 13v96v7v3l2 94q0 9 -1 18t-1 13q0 2 1 32t1 51z" />
<glyph unicode="&#xea;" horiz-adv-x="275" d="M169 776h1q14 -7 14 -9q6 -11 8 -13q12 -16 13 -21l30 -36l20 -33q-1 -2 -4 -2l-84 1l-30 55l-29 -52h-85q-4 0 -4 2l24 29l25 36q3 7 17 21q3 4 4 7t4 6q2 3 11 9h2q0 1 14 1q10 0 28.5 -0.5t20.5 -0.5zM27 321v183q0 5 1 10v5q0 3 -0.5 6.5t-0.5 4.5q-1 4 -1 9v97 q0 7 6 7q12 1 19 1h112l7 -1h59q20 0 20 -5v-97q1 -1 0 -2q-6 -6 -26 -6h-8h-52q-5 0 -7 -1h-3q-3 -12 -4 -13v-95q1 -3 1.5 -5.5t1 -3.5t0.5 -2h77q11 0 10 -6v-97q0 -4 -4 -6.5t-6 -2.5q-6 -2 -13 -2h-1h-56q-3 -1 -5 -1h-1q-2 -6 -2 -12v-32q0 -19 -0.5 -47.5t-0.5 -39.5 q0 -16 2 -58q6 -5 15 -5h23q15 0 20 -1h26q7 0 10.5 -1.5t3.5 -2.5v-2v-96q-3 -6 -18 -9q-10 -3 -20 -3h-103l-10 3q-3 2 -9 2t-12 -1l-7 -1q-15 0 -18 1q-5 0 -7 1h-11q-10 2 -10 13v96v7v3l2 94q0 9 -1 18t-1 13q0 2 1 32t1 51z" />
<glyph unicode="&#xeb;" horiz-adv-x="275" d="M223 722v-40v-12q-1 -8 -3 -8h-50q-4 0 -7 7q-1 3 -1 10v38v5l1 4q1 1 2 3l1 1h51q2 0 3 -1t2 -3l1 -2v-2zM113 722v-40v-12q-1 -8 -3 -8h-50q-4 0 -7 7q-1 3 -1 10v38v5l1 4q1 1 2 3l1 1h51q2 0 3 -1t2 -3l1 -2v-2zM27 321v183q0 5 1 10v5q0 3 -0.5 6.5t-0.5 4.5 q-1 4 -1 9v97q0 7 6 7q12 1 19 1h112l7 -1h59q20 0 20 -5v-97q1 -1 0 -2q-6 -6 -26 -6h-8h-52q-5 0 -7 -1h-3q-3 -12 -4 -13v-95q1 -3 1.5 -5.5t1 -3.5t0.5 -2h77q11 0 10 -6v-97q0 -4 -4 -6.5t-6 -2.5q-6 -2 -13 -2h-1h-56q-3 -1 -5 -1h-1q-2 -6 -2 -12v-32 q0 -19 -0.5 -47.5t-0.5 -39.5q0 -16 2 -58q6 -5 15 -5h23q15 0 20 -1h26q7 0 10.5 -1.5t3.5 -2.5v-2v-96q-3 -6 -18 -9q-10 -3 -20 -3h-103l-10 3q-3 2 -9 2t-12 -1l-7 -1q-15 0 -18 1q-5 0 -7 1h-11q-10 2 -10 13v96v7v3l2 94q0 9 -1 18t-1 13q0 2 1 32t1 51z" />
<glyph unicode="&#xec;" horiz-adv-x="179" d="M-26 778l81 2q7 0 11 -4q4 -5 7 -10q1 1 1 0l1 -3q7 -6 6 -8q-1 -1 1 -4q2 -2 12 -17v-1l7 -10l36 -53q2 -4 0 -6l1 -2l-84 2l-8 1q-1 0 -2 0.5t-1.5 1t-2.5 3.5t-5 6l-5 7q-8 13 -29 43.5t-28 41.5q-1 3 -1 5t1 3zM40 640h110q4 0 4 -6v-4v-96v-18v-1v-58l-2 -8 q2 -10 2 -23v-88q0 -22 -1 -70t-1 -68v-17q-1 -7 -1 -24v-27v-12l1 -1v-2v-88q0 -5 -0.5 -9t-0.5 -5l-1 -1v-9q0 -4 -10 -19q-2 -2 -5 -2h-73h-1h-1h-28q-6 0 -6 12v87q0 24 2 76.5t2 70.5l1 21q-1 15 -1 45v48v67v115v97q0 17 10 17z" />
<glyph unicode="&#xed;" horiz-adv-x="179" d="M210 778l2 -10q-45 -65 -57 -85l-6 -7q-9 -11 -11 -11l-7 -1l-85 -2l1 2q0 5 1 6l36 53l6 10l1 1q6 10 14.5 22.5t13.5 19.5q0 4 10 4zM40 640h110q4 0 4 -6v-4v-96v-18v-1v-58l-2 -8q2 -10 2 -23v-88q0 -22 -1 -70t-1 -68v-17q-1 -7 -1 -24v-27v-12l1 -1v-2v-88 q0 -5 -0.5 -9t-0.5 -5l-1 -1v-9q0 -4 -10 -19q-2 -2 -5 -2h-73h-1h-1h-28q-6 0 -6 12v87q0 24 2 76.5t2 70.5l1 21q-1 15 -1 45v48v67v115v97q0 17 10 17z" />
<glyph unicode="&#xee;" horiz-adv-x="179" d="M124 776h1q14 -7 14 -9q6 -11 8 -13q12 -16 13 -21l30 -36l20 -33q-1 -2 -4 -2l-84 1l-30 55l-29 -52h-85q-4 0 -4 2l24 29l25 36q3 7 17 21q4 4 4 7t4 6q2 3 11 9h2q0 1 14 1q10 0 28.5 -0.5t20.5 -0.5zM40 640h110q4 0 4 -6v-4v-96v-18v-1v-58l-2 -8q2 -10 2 -23v-88 q0 -22 -1 -70t-1 -68v-17q-1 -7 -1 -24v-27v-12l1 -1v-2v-88q0 -5 -0.5 -9t-0.5 -5l-1 -1v-9q0 -4 -10 -19q-2 -2 -5 -2h-73h-1h-1h-28q-6 0 -6 12v87q0 24 2 76.5t2 70.5l1 21q-1 15 -1 45v48v67v115v97q0 17 10 17z" />
<glyph unicode="&#xef;" horiz-adv-x="179" d="M178 722v-40v-12q-1 -8 -3 -8h-50q-3 0 -7 7q-1 3 -1 10v38q0 2 1 5v4q1 1 2 3q0 1 1 1h51q2 0 3 -1t2 -3l1 -2v-2zM68 722v-40v-12q-1 -8 -3 -8h-50q-3 0 -7 7q-1 3 -1 10v38q0 2 1 5v4q1 1 2 3q0 1 1 1h51q2 0 3 -1t2 -3l1 -2v-2zM40 640h110q4 0 4 -6v-4v-96v-18v-1 v-58l-2 -8q2 -10 2 -23v-88q0 -22 -1 -70t-1 -68v-17q-1 -7 -1 -24v-27v-12l1 -1v-2v-88q0 -5 -0.5 -9t-0.5 -5l-1 -1v-9q0 -4 -10 -19q-2 -2 -5 -2h-73h-1h-1h-28q-6 0 -6 12v87q0 24 2 76.5t2 70.5l1 21q-1 15 -1 45v48v67v115v97q0 17 10 17z" />
<glyph unicode="&#xf0;" d="M331 53q-3 -8 -7.5 -14l-7.5 -10t-9.5 -9t-8.5 -6.5t-11 -7t-11 -6.5q-6 -5 -34.5 -9t-36.5 -4h-102q-8 0 -20 2l-15 2q-9 1 -12.5 2t-6 5t-2.5 11q-4 23 -4 42v97q0 6 0.5 13t0.5 9q-2 54 -2 85v47h-19q-8 0 -16 2q-2 4 -2 5v51q0 6 10 6h22h1h5q0 19 0.5 52t0.5 47 q0 46 -3 85v66v10.5t1.5 8t1.5 6t3 4.5t3.5 3.5t4.5 3t5.5 1.5t7 1.5t7.5 2.5q20 3 26 3h5q10 0 41.5 1.5t48.5 1.5q52 0 65 -13q3 -3 16 -11t14 -9q9 -12 20 -31l6 -11q4 -5 5 -10t1 -6q10 -8 10 -10q4 -9 5.5 -22t2.5 -29.5t2 -23.5q10 -70 10 -181v-100q0 -43 -4 -101 q-1 -19 -18 -52zM167 118q3 1 12 1h10q29 0 32 12q6 5 8 17q6 14 6 48v74q-2 61 -4 84q-2 14 -4.5 70t-7.5 72q-3 14 -19.5 20t-30.5 6h-4q0 -62 -2 -118v-38h26q4 0 5 -1h1q7 -1 10 -4v-51q0 -3 -2 -4.5t-6 -1.5l-4 -1q-3 0 -11 -0.5t-9 -0.5h-8v-6v-9v-54q1 -1 1 -2v-50 l-1 -4v-1v-23q0 -17 2 -35z" />
<glyph unicode="&#xf1;" horiz-adv-x="410" d="M291 783v-80q0 -13 -9 -22l-4 3q-3 3 -4 2q-1 0 -2 -6.5t-3 -7.5q-12 -5 -22 -5q-18 1 -41 22.5t-41 21.5q-12 0 -28 -24.5t-17 -24.5t-1 5v86q0 19 13.5 31.5t32.5 12.5q17 0 32 -13q3 -2 4 -7.5t3 -7.5l12 -2q17 -13 31 -14h1q10 0 24.5 17.5t16.5 17.5t2 -5zM27 152 v10v72l-2 5v50q2 8 2 13v1v1q1 9 1 22q0 18 -0.5 49t-0.5 46v101v82q0 20 6 35l7 1h-1h114q4 0 7 -2t4 -4.5t2 -5.5t1 -4q1 -11 10 -60v-12l4 -7l76 -277v7v104v80q0 5 2 12t2 12l-4 67l1 2q0 3 1 5v79q0 7 3 10l1 1v1v1l69 -1l6 -3l10 3l27 1q3 0 5 -1t2.5 -2.5t1.5 -1.5h1 v-97q-3 -74 -3 -140v-31q0 -20 1 -28q1 -21 1 -69q0 -41 -1 -61l-2 -98q-2 -68 -2 -91q-4 -38 -10 -46l-104 1q-6 0 -11 4.5t-9.5 13t-7 15.5t-5.5 16t-4 11q0 2 -2 8l-2 6l-72 196v-130q0 -11 -1 -12v-6q0 -2 1 -6l1 -4q-2 -25 -2 -54q0 -16 2 -44q0 -4 -3.5 -7t-8.5 -5 l-5 -3q-7 -1 -27 -1l-70 3q-12 8 -12 17v150z" />
<glyph unicode="&#xf2;" horiz-adv-x="381" d="M82 792l81 2q7 0 11 -4q4 -5 7 -10q1 1 1 0l1 -3q7 -6 6 -8q-1 -1 1 -4q2 -2 12 -17v-1l7 -10l36 -53q2 -4 0 -6l1 -2l-84 2l-8 1q-1 0 -2 0.5t-1.5 1t-2.5 3.5t-5 6l-5 7q-8 13 -29 43.5t-28 41.5q-1 3 -1 5t1 3zM49 34q-4 6 -6 10.5t-2.5 5.5t-0.5 2l-1 2v1 q-4 3 -6.5 9.5t-3.5 17.5t-1.5 18.5t-1.5 23t-1 21.5q0 5 -0.5 13t-0.5 11v5l1 96v9l1 18q-3 47 -3 147q2 18 3 50t5 52q0 1 1 4l1 4h1q-1 0 -1 1v1q3 20 46 70q16 13 47 26q7 1 24.5 5.5t31.5 4.5h4q32 -1 69 -9.5t54 -21.5h1l3 -3q3 -4 7.5 -9t6.5 -9q17 -29 21 -71 q3 -26 5 -118q2 -26 2 -50q0 -8 0.5 -23t0.5 -21q0 -35 1 -48v-6q0 -3 -0.5 -6t-0.5 -4v-13v-21v-3q0 -8 1 -16l-1 -74q0 -120 -100 -156q-27 -11 -57 -11h-7q-50 0 -98 27q-38 21 -45 38zM233 357q-1 10 -1 31q0 9 0.5 25.5t0.5 24.5q0 13 -2 33q-1 5 -2 14t-1.5 12t-2 8.5 t-4 8t-6.5 6t-10 6.5q-6 2 -9 2q-30 0 -35 -15q-11 -36 -14 -114q2 -9 2 -17l-2 -111q0 -29 -4 -45q1 -8 1 -17q6 -75 15 -82q5 -10 5 -12v-1q2 -3 12 -6t20 -4l11 -2q5 5 13 7.5t14 13.5l2 39q-2 76 -3 85v10v14v86z" />
<glyph unicode="&#xf3;" horiz-adv-x="381" d="M308 794l2 -10q-45 -65 -57 -85l-6 -7q-9 -11 -11 -11l-7 -1l-85 -2l1 2q0 5 1 6l36 53l6 10l1 1q6 10 14.5 22.5t13.5 19.5q0 4 10 4zM49 34q-4 6 -6 10.5t-2.5 5.5t-0.5 2l-1 2v1q-4 3 -6.5 9.5t-3.5 17.5t-1.5 18.5t-1.5 23t-1 21.5q0 5 -0.5 13t-0.5 11v5l1 96v9 l1 18q-3 47 -3 147q2 18 3 50t5 52q0 1 1 4l1 4h1q-1 0 -1 1v1q3 20 46 70q16 13 47 26q7 1 24.5 5.5t31.5 4.5h4q32 -1 69 -9.5t54 -21.5h1l3 -3q3 -4 7.5 -9t6.5 -9q17 -29 21 -71q3 -26 5 -118q2 -26 2 -50q0 -8 0.5 -23t0.5 -21q0 -35 1 -48v-6q0 -3 -0.5 -6t-0.5 -4 v-13v-21v-3q0 -8 1 -16l-1 -74q0 -120 -100 -156q-27 -11 -57 -11h-7q-50 0 -98 27q-38 21 -45 38zM233 357q-1 10 -1 31q0 9 0.5 25.5t0.5 24.5q0 13 -2 33q-1 5 -2 14t-1.5 12t-2 8.5t-4 8t-6.5 6t-10 6.5q-6 2 -9 2q-30 0 -35 -15q-11 -36 -14 -114q2 -9 2 -17l-2 -111 q0 -29 -4 -45q1 -8 1 -17q6 -75 15 -82q5 -10 5 -12v-1q2 -3 12 -6t20 -4l11 -2q5 5 13 7.5t14 13.5l2 39q-2 76 -3 85v10v14v86z" />
<glyph unicode="&#xf4;" horiz-adv-x="381" d="M236 786h1q14 -7 14 -9q6 -11 8 -13q12 -16 13 -21l30 -36l20 -33q-1 -2 -4 -2l-84 1l-30 55l-29 -52h-85q-4 0 -4 2l24 29l25 36q3 7 17 21q4 4 4 7t4 6q2 3 11 9h2q0 1 14 1q10 0 28.5 -0.5t20.5 -0.5zM49 34q-4 6 -6 10.5t-2.5 5.5t-0.5 2l-1 2v1q-4 3 -6.5 9.5 t-3.5 17.5t-1.5 18.5t-1.5 23t-1 21.5q0 5 -0.5 13t-0.5 11v5l1 96v9l1 18q-3 47 -3 147q2 18 3 50t5 52q0 1 1 4l1 4h1q-1 0 -1 1v1q3 20 46 70q16 13 47 26q7 1 24.5 5.5t31.5 4.5h4q32 -1 69 -9.5t54 -21.5h1l3 -3q3 -4 7.5 -9t6.5 -9q17 -29 21 -71q3 -26 5 -118 q2 -26 2 -50q0 -8 0.5 -23t0.5 -21q0 -35 1 -48v-6q0 -3 -0.5 -6t-0.5 -4v-13v-21v-3q0 -8 1 -16l-1 -74q0 -120 -100 -156q-27 -11 -57 -11h-7q-50 0 -98 27q-38 21 -45 38zM233 357q-1 10 -1 31q0 9 0.5 25.5t0.5 24.5q0 13 -2 33q-1 5 -2 14t-1.5 12t-2 8.5t-4 8t-6.5 6 t-10 6.5q-6 2 -9 2q-30 0 -35 -15q-11 -36 -14 -114q2 -9 2 -17l-2 -111q0 -29 -4 -45q1 -8 1 -17q6 -75 15 -82q5 -10 5 -12v-1q2 -3 12 -6t20 -4l11 -2q5 5 13 7.5t14 13.5l2 39q-2 76 -3 85v10v14v86z" />
<glyph unicode="&#xf5;" horiz-adv-x="381" d="M284 789v-80q0 -13 -9 -22l-3 3q-4 3 -5 2q-1 0 -2 -6.5t-3 -7.5q-12 -5 -22 -5q-18 1 -41 22.5t-41 21.5q-12 0 -28 -24.5t-17 -24.5t-1 5v86q0 19 13.5 31.5t32.5 12.5q17 0 32 -13q3 -2 4 -7.5t3 -7.5l12 -2q17 -13 31 -14h1q10 0 24.5 17.5t16.5 17.5t2 -5zM49 34 q-4 6 -6 10.5t-2.5 5.5t-0.5 2l-1 2v1q-4 3 -6.5 9.5t-3.5 17.5t-1.5 18.5t-1.5 23t-1 21.5q0 5 -0.5 13t-0.5 11v5l1 96v9l1 18q-3 47 -3 147q2 18 3 50t5 52q0 1 1 4l1 4h1q-1 0 -1 1v1q3 20 46 70q16 13 47 26q7 1 24.5 5.5t31.5 4.5h4q32 -1 69 -9.5t54 -21.5h1l3 -3 q3 -4 7.5 -9t6.5 -9q17 -29 21 -71q3 -26 5 -118q2 -26 2 -50q0 -8 0.5 -23t0.5 -21q0 -35 1 -48v-6q0 -3 -0.5 -6t-0.5 -4v-13v-21v-3q0 -8 1 -16l-1 -74q0 -120 -100 -156q-27 -11 -57 -11h-7q-50 0 -98 27q-38 21 -45 38zM233 357q-1 10 -1 31q0 9 0.5 25.5t0.5 24.5 q0 13 -2 33q-1 5 -2 14t-1.5 12t-2 8.5t-4 8t-6.5 6t-10 6.5q-6 2 -9 2q-30 0 -35 -15q-11 -36 -14 -114q2 -9 2 -17l-2 -111q0 -29 -4 -45q1 -8 1 -17q6 -75 15 -82q5 -10 5 -12v-1q2 -3 12 -6t20 -4l11 -2q5 5 13 7.5t14 13.5l2 39q-2 76 -3 85v10v14v86z" />
<glyph unicode="&#xf6;" horiz-adv-x="381" d="M278 742v-40v-12q-1 -8 -3 -8h-50q-3 0 -7 7q-1 3 -1 10v38q0 2 1 5v4q1 1 2 3q0 1 1 1h51q2 0 3 -1t2 -3l1 -2v-2zM168 742v-40v-12q-1 -8 -3 -8h-50q-3 0 -7 7q-1 3 -1 10v38q0 2 1 5v4q1 1 2 3q0 1 1 1h51q2 0 3 -1t2 -3l1 -2v-2zM49 34q-4 6 -6 10.5t-2.5 5.5t-0.5 2 l-1 2v1q-4 3 -6.5 9.5t-3.5 17.5t-1.5 18.5t-1.5 23t-1 21.5q0 5 -0.5 13t-0.5 11v5l1 96v9l1 18q-3 47 -3 147q2 18 3 50t5 52q0 1 1 4l1 4h1q-1 0 -1 1v1q3 20 46 70q16 13 47 26q7 1 24.5 5.5t31.5 4.5h4q32 -1 69 -9.5t54 -21.5h1l3 -3q3 -4 7.5 -9t6.5 -9 q17 -29 21 -71q3 -26 5 -118q2 -26 2 -50q0 -8 0.5 -23t0.5 -21q0 -35 1 -48v-6q0 -3 -0.5 -6t-0.5 -4v-13v-21v-3q0 -8 1 -16l-1 -74q0 -120 -100 -156q-27 -11 -57 -11h-7q-50 0 -98 27q-38 21 -45 38zM233 357q-1 10 -1 31q0 9 0.5 25.5t0.5 24.5q0 13 -2 33q-1 5 -2 14 t-1.5 12t-2 8.5t-4 8t-6.5 6t-10 6.5q-6 2 -9 2q-30 0 -35 -15q-11 -36 -14 -114q2 -9 2 -17l-2 -111q0 -29 -4 -45q1 -8 1 -17q6 -75 15 -82q5 -10 5 -12v-1q2 -3 12 -6t20 -4l11 -2q5 5 13 7.5t14 13.5l2 39q-2 76 -3 85v10v14v86z" />
<glyph unicode="&#xf7;" horiz-adv-x="254" d="M185 177h-2q-3 -21 -8 -21h-102q-4 4 -4 13v32h-36q-4 0 -6 1.5t-2 3.5v1v96l2 4v1q8 3 20 3h22v31q0 9 6 9h102q3 0 5 -2h1l1 -1q0 -2 0.5 -7t0.5 -12v-19h4h17l9 -1q14 -1 14 -7v-96q-3 -4 -10 -4h-7l-1 -1h-26v-24z" />
<glyph unicode="&#xf8;" horiz-adv-x="387" d="M54 34q-4 6 -6 10.5t-2.5 5.5t-1.5 2v2v1q-4 3 -6.5 9.5t-3.5 17.5t-1.5 18.5t-1.5 23t-1 21.5q0 5 -1 15t0 14l1 96v9l1 18l1 96q0 7 1.5 25t1.5 26q2 18 3 50t5 52q0 1 1 4l1 4v1v1q4 30 39 70q16 13 47 26q7 1 24.5 5.5t31.5 4.5h4q54 -2 99 -19l13 36q0 8 6 14 q0 2 4 2h1h26h9l8 -2q4 -1 4 -6l-30 -76l1 -1q17 -29 21 -71q3 -26 5 -118q2 -26 2 -50q0 -23 -3 -44q1 -10 2.5 -25.5t2.5 -22.5v-6q0 -3 -0.5 -6t-0.5 -4v-13v-21q-1 -1 1 -19l-1 -74q-7 -61 -17 -79q-6 -6 -13 -22.5t-10 -21.5q-23 -20 -60 -33q-27 -11 -57 -11h-7 q-44 0 -92 24l-4 -10l-7 -17q-8 -17 -13 -24h-46q-10 1 -10 6l21 50v1l12 28q-1 1 -4 7zM233 494q0 11 -4 22l-19 10q-6 2 -9 2q-13 0 -27 -24q-4 -7 -17 -72q0 -4 -4 -10l-1 -23q2 -9 2 -17l-2 -111v-3q11 37 12 40q16 34 22 58q5 25 20 60zM159 133q1 -1 2.5 -3t2.5 -3 q6 -11 5 -13q2 -3 12 -6t21 -4l10 -2q5 5 13 7.5t14 13.5l2 39q-2 76 -3 85v9.5v8.5v6v73l-9 -26q-11 -25 -70 -185z" />
<glyph unicode="&#xf9;" horiz-adv-x="358" d="M61 778l81 2q7 0 11 -4q5 -5 7 -10q1 1 1 0l1 -3q7 -6 6 -8q-1 -1 1 -4q2 -2 12 -17v-1l7 -10l36 -53q2 -4 0 -6l1 -2l-84 2l-8 1q-1 0 -2 0.5t-1.5 1t-2.5 3.5t-5 6l-5 7q-8 13 -29 43.5t-28 41.5q-1 3 -1 5t1 3zM333 222v-63v-8q0 -32 -1.5 -50.5t-9.5 -43t-25 -45.5 q-32 -41 -100 -41h-14q-78 2 -109 20q-3 2 -3 3.5t-1 2.5q-4 0 -6.5 2.5t-3.5 4.5l-2 3q-21 12 -29 37q-4 13 -4 34v14q0 8 0.5 28t0.5 32q1 25 1 81q0 27 -0.5 74.5t-0.5 72.5v2q0 2 0.5 4.5t1.5 4.5v2l-3 34v92v8v7v97q0 16 8 16h43l15 -2l14 2h34q8 0 8 -16v-183 q0 -16 -2 -38v-20q-1 -31 -1 -85v-107v-53v-13v-9q4 -9 14 -20t16 -11q2 0 4 -0.5t4 -0.5q25 0 31 37q0 6 2 6v43v30v82q0 37 -4 93v53l2 14q-1 11 -1.5 33t-0.5 34v96q0 23 6 23h108q4 -2 4 -8q0 -5 1 -10.5t1 -6.5q2 -70 2 -130v-118q-1 -11 -1 -43q0 -21 0.5 -50.5 t0.5 -46.5z" />
<glyph unicode="&#xfa;" horiz-adv-x="358" d="M297 778l2 -10q-45 -65 -57 -85l-6 -7q-9 -11 -11 -11l-7 -1l-85 -2l1 2q0 5 1 6l36 53l6 10l1 1q6 10 14.5 22.5t13.5 19.5q0 4 10 4zM333 222v-63v-8q0 -32 -1.5 -50.5t-9.5 -43t-25 -45.5q-32 -41 -100 -41h-14q-78 2 -109 20q-3 2 -3 3.5t-1 2.5q-4 0 -6.5 2.5 t-3.5 4.5l-2 3q-21 12 -29 37q-4 13 -4 34v14q0 8 0.5 28t0.5 32q1 25 1 81q0 27 -0.5 74.5t-0.5 72.5v2q0 2 0.5 4.5t1.5 4.5v2l-3 34v92v8v7v97q0 16 8 16h43l15 -2l14 2h34q8 0 8 -16v-183q0 -16 -2 -38v-20q-1 -31 -1 -85v-107v-53v-13v-9q4 -9 14 -20t16 -11 q2 0 4 -0.5t4 -0.5q25 0 31 37q0 6 2 6v43v30v82q0 37 -4 93v53l2 14q-1 11 -1.5 33t-0.5 34v96q0 23 6 23h108q4 -2 4 -8q0 -5 1 -10.5t1 -6.5q2 -70 2 -130v-118q-1 -11 -1 -43q0 -21 0.5 -50.5t0.5 -46.5z" />
<glyph unicode="&#xfb;" horiz-adv-x="358" d="M219 776h1q14 -7 14 -9q6 -11 8 -13q12 -16 13 -21l30 -36l20 -33q-1 -2 -4 -2l-84 1l-30 55l-29 -52h-85q-4 0 -4 2l24 29l25 36q3 7 17 21q3 4 4 7t4 6q2 3 11 9h2q0 1 14 1q10 0 28.5 -0.5t20.5 -0.5zM333 222v-63v-8q0 -32 -1.5 -50.5t-9.5 -43t-25 -45.5 q-32 -41 -100 -41h-14q-78 2 -109 20q-3 2 -3 3.5t-1 2.5q-4 0 -6.5 2.5t-3.5 4.5l-2 3q-21 12 -29 37q-4 13 -4 34v14q0 8 0.5 28t0.5 32q1 25 1 81q0 27 -0.5 74.5t-0.5 72.5v2q0 2 0.5 4.5t1.5 4.5v2l-3 34v92v8v7v97q0 16 8 16h43l15 -2l14 2h34q8 0 8 -16v-183 q0 -16 -2 -38v-20q-1 -31 -1 -85v-107v-53v-13v-9q4 -9 14 -20t16 -11q2 0 4 -0.5t4 -0.5q25 0 31 37q0 6 2 6v43v30v82q0 37 -4 93v53l2 14q-1 11 -1.5 33t-0.5 34v96q0 23 6 23h108q4 -2 4 -8q0 -5 1 -10.5t1 -6.5q2 -70 2 -130v-118q-1 -11 -1 -43q0 -21 0.5 -50.5 t0.5 -46.5z" />
<glyph unicode="&#xfc;" horiz-adv-x="358" d="M269 728v-40v-12q-1 -8 -3 -8h-50q-4 0 -7 7q-1 3 -1 10v38v5l1 4q1 1 2 3l1 1h51q2 0 3 -1t2 -3l1 -2v-2zM159 728v-40v-12q-1 -8 -3 -8h-50q-4 0 -7 7q-1 3 -1 10v38v5l1 4q1 1 2 3l1 1h51q2 0 3 -1t2 -3l1 -2v-2zM333 222v-63v-8q0 -32 -1.5 -50.5t-9.5 -43t-25 -45.5 q-32 -41 -100 -41h-14q-78 2 -109 20q-3 2 -3 3.5t-1 2.5q-4 0 -6.5 2.5t-3.5 4.5l-2 3q-21 12 -29 37q-4 13 -4 34v14q0 8 0.5 28t0.5 32q1 25 1 81q0 27 -0.5 74.5t-0.5 72.5v2q0 2 0.5 4.5t1.5 4.5v2l-3 34v92v8v7v97q0 16 8 16h43l15 -2l14 2h34q8 0 8 -16v-183 q0 -16 -2 -38v-20q-1 -31 -1 -85v-107v-53v-13v-9q4 -9 14 -20t16 -11q2 0 4 -0.5t4 -0.5q25 0 31 37q0 6 2 6v43v30v82q0 37 -4 93v53l2 14q-1 11 -1.5 33t-0.5 34v96q0 23 6 23h108q4 -2 4 -8q0 -5 1 -10.5t1 -6.5q2 -70 2 -130v-118q-1 -11 -1 -43q0 -21 0.5 -50.5 t0.5 -46.5z" />
<glyph unicode="&#xfd;" horiz-adv-x="370" d="M304 778l2 -10q-45 -65 -57 -85l-6 -7q-9 -11 -11 -11l-7 -1l-85 -2l1 2q0 5 1 6l36 53l6 10l1 1q6 10 14.5 22.5t13.5 19.5q0 4 10 4zM238 151v-90v-13v-1v-50q0 -8 -4 -10h-114q-4 0 -4 28v96v4v6v27q-1 12 -1.5 41t-2.5 43q-1 11 -10 38.5t-10 32.5l-19 61 q-2 10 -5.5 23t-4.5 19q-2 7 -4 18.5t-4 15.5q-11 43 -14 62q-2 7 -4 11t-2 5l-10 46l-11 43q0 2 -1.5 8t-1.5 8q0 3 2 7q3 4 14 4h93q3 0 6.5 -6.5t6 -17.5t4.5 -21.5t4 -24t3 -18.5l7 -32q1 -2 3 -28q4 -24 7 -27l5 -25l12 -55l33 133l11 44l3 16q7 22 12 43q3 19 14 19 l4 2h102q4 0 4 -6l-13 -50l-9 -23q-7 -25 -11 -30q-8 -38 -12 -49l-36 -118q-1 -5 -6 -17t-5 -17l-1 -1v-1q-2 -12 -6 -20q-6 -21 -8 -25q-2 -10 -6.5 -26t-5.5 -19l-4 -16v-10q0 -7 -0.5 -20.5t-0.5 -19.5q0 -12 1 -17z" />
<glyph unicode="&#xfe;" horiz-adv-x="319" d="M149 389v-57v-18v-76v-8q2 -1 6 -1q10 0 22.5 6t12.5 13q1 4 1.5 10t1 10t0.5 5v1l-2 65v7q-1 4 -1 5q-3 12 -9.5 24t-8.5 12q-2 3 -13 3h-6zM31 31v207q0 58 -2 168t-2 161v97q6 8 8 8h102q2 0 8 -9q2 -20 2 -22q2 -20 2 -60v-38v-1h39q19 0 46 -9q39 -17 61 -93 q7 -26 7 -66v-14v-97q0 -55 -2 -63q-11 -44 -20 -59q-2 -4 -6 -5l-4 -2q-3 -3 -3 -7v-2q0 -1 -1 -2q-24 -20 -86 -20h-29v-5v-5v-47q0 -6 0.5 -14.5t0.5 -10.5v-50l-1 -9h-110l-6 1q-4 6 -4 17v43v8z" />
<glyph unicode="&#xff;" horiz-adv-x="370" d="M272 722v-40v-12q-1 -8 -3 -8h-50q-3 0 -7 7q-1 3 -1 10v38q0 2 1 5v4q1 1 2 3q0 1 1 1h51q2 0 3 -1t2 -3l1 -2v-2zM162 722v-40v-12q-1 -8 -3 -8h-50q-3 0 -7 7q-1 3 -1 10v38q0 2 1 5v4q1 1 2 3q0 1 1 1h51q2 0 3 -1t2 -3l1 -2v-2zM238 151v-90v-13v-1v-50q0 -8 -4 -10 h-114q-4 0 -4 28v96v4v6v27q-1 12 -1.5 41t-2.5 43q-1 11 -10 38.5t-10 32.5l-19 61q-2 10 -5.5 23t-4.5 19q-2 7 -4 18.5t-4 15.5q-11 43 -14 62q-2 7 -4 11t-2 5l-10 46l-11 43q0 2 -1.5 8t-1.5 8q0 3 2 7q3 4 14 4h93q3 0 6.5 -6.5t6 -17.5t4.5 -21.5t4 -24t3 -18.5 l7 -32q1 -2 3 -28q4 -24 7 -27l5 -25l12 -55l33 133l11 44l3 16q7 22 12 43q3 19 14 19l4 2h102q4 0 4 -6l-13 -50l-9 -23q-7 -25 -11 -30q-8 -38 -12 -49l-36 -118q-1 -5 -6 -17t-5 -17l-1 -1v-1q-2 -12 -6 -20q-6 -21 -8 -25q-2 -10 -6.5 -26t-5.5 -19l-4 -16v-10 q0 -7 -0.5 -20.5t-0.5 -19.5q0 -12 1 -17z" />
<glyph unicode="&#x152;" horiz-adv-x="467" d="M263 649h51h6h2h21l13 2h1h73q2 0 3.5 -3t2.5 -3v-97q-3 -10 -12 -10h-4h-48q-10 0 -12 -1q-5 -21 -5 -36l-1 -1v-43q0 -11 -0.5 -32t-0.5 -32q0 -21 1 -30q4 -3 6 -3h39q15 0 27 -2v-97q-1 -12 -18 -12h-28q-2 -1 -4 -1h-2h-10l-6 -1l-4 -2q0 -11 -1 -29t-1 -25l-2 -2 v-40v-11q1 -22 3 -50h10h73h2q4 0 4 -2v-101q0 -6 -4 -6h-1h-22q-18 -6 -63 -6h-102q-6 0 -11.5 0.5t-6.5 0.5q-27 -3 -53 -3q-36 0 -81 17q-22 8 -28 13q-7 4 -11.5 10.5t-8.5 14t-6 10.5q-16 31 -16 37q0 7 -2 19t-2 18v96q0 18 1.5 57t1.5 61v17q1 23 1 66t1 64.5t6 51.5 t15 53q0 2 2 2h1h1v1v2q0 5 10 20l10 15q3 4 5.5 7t4.5 5q58 37 113 37h3h4q35 0 59 -16zM220 128v20q3 20 6 86v6l1 5h1q2 26 2 29v1v25q2 30 2 39q-2 16 -2 17q0 11 -0.5 17t-1.5 13.5t-2 17.5q-9 66 -10 70q-1 3 -2.5 14.5t-1.5 12.5v1q0 5 -4.5 14t-11.5 9 q-15 -1 -24.5 -17t-9.5 -24q-2 -6 -3.5 -12t-2.5 -8q-6 -27 -10 -66q-5 -43 -5 -80q0 -7 0.5 -23.5t0.5 -27.5v-6v-9.5v-9.5l1 -4l1 -3v-66v-2q0 -24 14 -52t31 -28h1q10 0 18 7.5t10 17.5q0 4 0.5 7.5t1.5 6.5v2z" />
<glyph unicode="&#x153;" horiz-adv-x="475" d="M225 113l2 94q0 9 -1 18t-1 13q0 2 1 32t1 51v166q-2 18 -5 29l-19 10q-6 2 -9 2q-13 0 -27 -24q-4 -7 -17 -72q0 -4 -4 -10l-1 -23q2 -9 2 -17l-2 -111q0 -29 -4 -45q1 -8 1 -17q6 -75 15 -82q5 -10 5 -12v-1q2 -3 12 -6t20 -4l11 -2q4 6 10.5 7.5t9.5 3.5zM47 34 q-4 6 -6 10.5t-2.5 5.5t-0.5 2l-1 2v1q-4 3 -6.5 9.5t-3.5 17.5t-1.5 18.5t-1.5 23t-1 21.5q0 5 -0.5 13t-0.5 11v5l1 96v9l1 18l1 96q0 7 1.5 25t1.5 26q2 18 3 50t5 52q0 1 1 4l1 4v1v1q4 30 39 70q16 13 47 26q7 1 24.5 5.5t31.5 4.5h4q56 -2 97 -18h82l7 -1h59 q20 0 20 -5v-97v-1v-1q-6 -6 -26 -6h-8h-52q-5 0 -7 -1h-3q-3 -12 -4 -13v-12q1 -18 1.5 -46.5t0.5 -39.5v-6q0 -1 0.5 -1t0.5 -1h77q10 0 10 -5v-1v-97q0 -4 -4 -6.5t-6 -2.5q-6 -2 -13 -2h-1h-56q-4 -1 -6 -1q2 -14 2 -19q-2 -14 -2 -21q0 -4 0.5 -14t0.5 -15v-3 q-1 -4 -1 -6t0.5 -7.5t0.5 -8.5v-68q0 -6 -2 -22v-5q6 -5 15 -5h23q15 0 20 -1h26q14 0 14 -5v-1v-96q-3 -6 -18 -9q-10 -3 -20 -3h-103l-10 3q-3 2 -14 2q-12 -7 -31 -14q-27 -11 -57 -11h-7q-50 0 -98 27q-38 21 -45 38z" />
<glyph unicode="&#x178;" horiz-adv-x="355" d="M264 725v-40v-12q-1 -8 -3 -8h-50q-3 0 -7 7q-1 2 -1 10v38q0 2 1 6v3q1 1 2 3q0 1 1 1h51q2 0 3 -1t2 -3l1 -2v-2zM154 725v-40v-12q-1 -8 -3 -8h-50q-3 0 -7 7q-1 2 -1 10v38q0 2 1 6v3q1 1 2 3q0 1 1 1h51q2 0 3 -1t2 -3l1 -2v-2zM168 411q3 10 14 64q13 39 32 134 l10 40q1 0 2 1h2h109q8 0 8 -10l-16 -50l-12 -46l-4 -14q-1 -5 -25 -87l-20 -66q-2 -7 -6 -17.5t-6 -17.5v-2q-1 -3 -1 -5l-1 -1v-1q-2 -6 -3 -11.5t-3 -10.5q-1 -2 -19 -66v-20q0 -17 0.5 -45.5t0.5 -41.5v-51v-84v-1q0 -11 -10 -11h-106q-6 1 -6 12v97v5.5t0.5 4.5t0.5 4 v1q0 3 -1 7v4v50v12l1 6l-3 9v15q0 1 -1 4l-1 3l-4 41q0 2 -3 14l-3 11q-1 13 -7 35.5t-7 26.5q-7 34 -22 96q-2 5 -3.5 13t-2.5 13q-4 17 -13 45l-16 62l-8 35q-2 12 -2 14q0 7 16 7h81q9 0 11.5 -3t3.5 -9q0 -5 1 -8q1 -8 17 -78.5t16 -71.5l6 -33z" />
<glyph unicode="&#x2c6;" horiz-adv-x="286" d="M175 779h1q14 -7 14 -9q6 -11 8 -13q12 -16 13 -21l30 -36l20 -33q-1 -2 -4 -2l-84 1l-30 55l-29 -52h-85q-4 0 -4 2l24 29l25 36q3 7 17 21q3 3 4 6t4 7q2 3 11 9h2q0 1 14 1q10 0 28.5 -0.5t20.5 -0.5z" />
<glyph unicode="&#x2dc;" horiz-adv-x="222" d="M197 676v-80q0 -13 -9 -22l-4 3q-3 3 -4 2q-1 0 -2 -6.5t-3 -7.5q-12 -5 -22 -5q-18 1 -41 22.5t-41 21.5q-12 0 -28 -24.5t-17 -24.5t-1 5v86q0 19 13.5 31.5t32.5 12.5q17 0 32 -13q3 -2 4 -7.5t3 -7.5l12 -2q17 -13 31 -14h1q10 0 24.5 17.5t16.5 17.5t2 -5z" />
<glyph unicode="&#x2000;" horiz-adv-x="403" />
<glyph unicode="&#x2001;" horiz-adv-x="806" />
<glyph unicode="&#x2002;" horiz-adv-x="403" />
<glyph unicode="&#x2003;" horiz-adv-x="806" />
<glyph unicode="&#x2004;" horiz-adv-x="268" />
<glyph unicode="&#x2005;" horiz-adv-x="201" />
<glyph unicode="&#x2006;" horiz-adv-x="134" />
<glyph unicode="&#x2007;" horiz-adv-x="134" />
<glyph unicode="&#x2008;" horiz-adv-x="100" />
<glyph unicode="&#x2009;" horiz-adv-x="161" />
<glyph unicode="&#x200a;" horiz-adv-x="44" />
<glyph unicode="&#x2010;" horiz-adv-x="236" d="M193 273h-160q-4 0 -6 2.5t-2 4.5v2v84q0 4 1 6v1h1q6 3 16 3h102q6 0 9.5 -0.5t4.5 -0.5h18q5 0 9 -0.5t6.5 -0.5h3.5h1q12 -2 14 -9v-84q-1 -4 -2 -5.5t-1.5 -1.5h-1.5h-10q-1 -1 -3 -1z" />
<glyph unicode="&#x2011;" horiz-adv-x="236" d="M193 273h-160q-4 0 -6 2.5t-2 4.5v2v84q0 4 1 6v1h1q6 3 16 3h102q6 0 9.5 -0.5t4.5 -0.5h18q5 0 9 -0.5t6.5 -0.5h3.5h1q12 -2 14 -9v-84q-1 -4 -2 -5.5t-1.5 -1.5h-1.5h-10q-1 -1 -3 -1z" />
<glyph unicode="&#x2012;" horiz-adv-x="236" d="M193 273h-160q-4 0 -6 2.5t-2 4.5v2v84q0 4 1 6v1h1q6 3 16 3h102q6 0 9.5 -0.5t4.5 -0.5h18q5 0 9 -0.5t6.5 -0.5h3.5h1q12 -2 14 -9v-84q-1 -4 -2 -5.5t-1.5 -1.5h-1.5h-10q-1 -1 -3 -1z" />
<glyph unicode="&#x2013;" horiz-adv-x="336" d="M293 296h-122h-32h-32h-72q-10 0 -10 6v96q0 1 2 5q9 3 16 3h182q2 0 19 -0.5t22 -0.5h1h10q7 0 13 -1h7q14 0 14 -7v-96q-3 -2 -5 -3t-4 -1h-1q-5 0 -7 -1h-1z" />
<glyph unicode="&#x2014;" horiz-adv-x="422" d="M397 301q-3 -3 -8 -4h-2q-6 0 -6 -1q-3 0 -6 -2h-136q-28 0 -118 2h-86q-10 0 -10 6v96q0 1 2 5q9 3 16 3h268q3 0 20 -0.5t22 -0.5h12q6 0 12 -1h6q14 0 14 -7v-96z" />
<glyph unicode="&#x2018;" horiz-adv-x="151" d="M37 477h-10q-2 4 -2 5l1 50v19l2 17q2 13 4 13l3 15l11 24q0 13 2 15q4 15 4 20q4 11 10 11h54q4 0 6 -4l-15 -37l-15 -43h22q6 0 10 -11q2 -5 2 -16v-59q0 -12 -2 -14q-3 -6 -4 -6h-79q-3 0 -4 1z" />
<glyph unicode="&#x2019;" horiz-adv-x="151" d="M114 665h10q2 -4 2 -5l-1 -50v-19l-2 -17q-2 -13 -4 -13l-3 -15l-11 -24q0 -13 -2 -15q-4 -15 -4 -20q-4 -11 -10 -11h-58q-4 0 -6 4l15 37l19 43h-22q-6 0 -10 11q-2 5 -2 16v59q0 12 2 14q3 6 4 6h79q3 0 4 -1z" />
<glyph unicode="&#x201a;" horiz-adv-x="151" d="M114 188h10q2 -4 2 -5l-1 -50v-19l-2 -17q-2 -13 -4 -13l-3 -15l-11 -24q0 -13 -2 -15q-4 -15 -4 -20q-4 -11 -10 -11h-58q-4 0 -6 4l15 37l19 43h-22q-6 0 -10 11q-2 5 -2 16v59q0 12 2 14q3 6 4 6h79q3 0 4 -1z" />
<glyph unicode="&#x201c;" horiz-adv-x="281" d="M167 477h-10q-2 4 -2 5l1 50v19l2 17q2 13 4 13l3 15l11 24q0 13 2 15q4 15 4 20q4 11 10 11h54q4 0 6 -4l-15 -37l-15 -43h22q6 0 10 -11q2 -5 2 -16v-59q0 -12 -2 -14q-3 -6 -4 -6h-79q-3 0 -4 1zM37 477h-10q-2 4 -2 5l1 50v19l2 17q2 13 4 13l3 15l11 24q0 13 2 15 q4 15 4 20q4 11 10 11h54q4 0 6 -4l-15 -37l-15 -43h22q6 0 10 -11q2 -5 2 -16v-59q0 -12 -2 -14q-3 -6 -4 -6h-79q-3 0 -4 1z" />
<glyph unicode="&#x201d;" horiz-adv-x="281" d="M114 665h10q2 -4 2 -5l-1 -50v-19l-2 -17q-2 -13 -4 -13l-3 -15l-11 -24q0 -13 -2 -15q-4 -15 -4 -20q-4 -11 -10 -11h-54q-4 0 -6 4l15 37l15 43h-22q-6 0 -10 11q-2 5 -2 16v59q0 12 2 14q3 6 4 6h79q3 0 4 -1zM244 665h10q2 -4 2 -5l-1 -50v-19l-2 -17q-2 -13 -4 -13 l-3 -15l-11 -24q0 -13 -2 -15q-4 -15 -4 -20q-4 -11 -10 -11h-54q-4 0 -6 4l15 37l15 43h-22q-6 0 -10 11q-2 5 -2 16v59q0 12 2 14q3 6 4 6h79q3 0 4 -1z" />
<glyph unicode="&#x201e;" horiz-adv-x="281" d="M114 195h10q2 -4 2 -5l-1 -50v-19l-2 -17q-2 -13 -4 -13l-3 -15l-11 -24q0 -13 -2 -15q-4 -15 -4 -20q-4 -11 -10 -11h-54q-4 0 -6 4l15 37l15 43h-22q-6 0 -10 11q-2 5 -2 16v59q0 12 2 14q3 6 4 6h79q3 0 4 -1zM244 195h10q2 -4 2 -5l-1 -50v-19l-2 -17q-2 -13 -4 -13 l-3 -15l-11 -24q0 -13 -2 -15q-4 -15 -4 -20q-4 -11 -10 -11h-54q-4 0 -6 4l15 37l15 43h-22q-6 0 -10 11q-2 5 -2 16v59q0 12 2 14q3 6 4 6h79q3 0 4 -1z" />
<glyph unicode="&#x2022;" horiz-adv-x="262" d="M199 455q14 -2 24 -15q10 -15 14 -58v-103q0 -18 -4 -40q-3 -27 -6 -31q-2 -4 -3 -7q0 -2 -1 -2l-2 -2v-1v-1h-2q-3 -1 -5 -2t-4 -1l-1 -1q-3 -4 -7 -5t-8 -1h-5l-3 -1h-1h-104q-17 0 -22 4q-5 1 -6 5l-6 4q-6 4 -6 6v5h-4q-10 14 -10 40v14v16q-2 12 -2 17v96 q0 34 20 48q7 7 16 10q6 2 9 5q1 0 2 0.5t3 0.5h124z" />
<glyph unicode="&#x2026;" horiz-adv-x="427" d="M402 90v-63v-18q-2 -13 -4 -13h-61q-13 0 -21 6q-9 8 -9 21v59q0 12 2 14q3 6 4 6h79q2 0 4 -1t3 -2.5t2 -2.5l1 -2v-4zM263 98v-63v-18q-2 -13 -4 -13h-79q-6 0 -10 11q-2 5 -2 16v59q0 12 2 14q3 6 4 6h79q2 0 4 -1t3 -2.5t2 -2.5l1 -2v-4zM120 90v-63v-18 q-1 -6 -5 -9.5t-7 -3.5h-4h-67q-6 0 -10 11q-2 5 -2 16v59q0 12 2 14q3 6 14 6h69q2 0 4 -1t3 -2.5t2 -2.5l1 -2v-4z" />
<glyph unicode="&#x202f;" horiz-adv-x="161" />
<glyph unicode="&#x2039;" horiz-adv-x="255" d="M120 622l8 6h94q8 -1 8 -10l-37 -96q-11 -26 -12 -27l-34 -98l-10 -17l-10 -29l-1 -5l11 -31l6 -26l10 -17l34 -98q7 -16 12 -32l31 -96l-4 -7h-90l-6 3q-6 6 -8 13q-5 15 -8.5 22.5t-4.5 9t-3 8.5t-6 23q-2 8 -10 30l-8 15q0 2 -1 6l-1 4q-4 11 -5 17q0 2 -3 6 q-8 12 -12 24t-7 25t-5 19q-1 2 -3 8t-3.5 11.5t-3.5 10.5t-2 6q-3 12 -5.5 20.5t-3 10.5t-1.5 5t-1 8q0 10 17 61q1 4 8 30.5t16 38.5l4 10t4 12q1 6 8 9v7q0 7 2 9q3 8 10 30q6 23 8 28.5t5 11t9 23.5z" />
<glyph unicode="&#x203a;" horiz-adv-x="255" d="M135 622l4 -8q6 -19 10.5 -27t11.5 -36q7 -22 10 -30q2 -2 2 -9v-7q7 -3 8 -9q2 -7 4 -12l4 -10q9 -12 16 -38.5t8 -30.5q17 -51 17 -61q0 -5 -1 -8t-1.5 -5t-3 -10.5t-5.5 -20.5l-3 -8q-2 -9 -5 -17t-4 -11q-2 -6 -5 -19t-7 -25t-12 -24q-2 -3 -2 -3.5t-0.5 -1.5 t-0.5 -2.5t-1.5 -5.5t-3.5 -10l-1 -4q-1 -4 -1 -6l-8 -15q-8 -22 -10 -30q-4 -16 -6 -23t-3 -8.5t-4.5 -9t-8.5 -22.5q-3 -7 -8 -13l-6 -3h-90l-4 7l31 96q5 16 12 32l34 98l10 17l6 26l11 31l-1 5l-10 29l-10 17l-34 98q-1 1 -12 27l-37 96q0 9 8 10h94z" />
<glyph unicode="&#x205f;" horiz-adv-x="201" />
<glyph unicode="&#x20ac;" horiz-adv-x="410" d="M52 372q4 85 16 154v3v16q0 8 2 12l4 4l2 9q1 8 3.5 19t6.5 15l4 10q2 4 4 7.5t2 4.5q2 4 3.5 9t2.5 6q0 3 2.5 5.5t5 4t2.5 2.5q17 17 105 17q80 0 106 -12q16 -10 18 -12q17 -14 20 -30q3 -9 6 -16q2 -8 4 -26l2 -12q1 -4 2.5 -11t1.5 -8q1 -5 2 -13t2 -10 q0 -4 0.5 -9.5t1 -8t0.5 -5.5v-5v-76q-1 -10 -6 -10h-104q-5 0 -7 3.5t-2 9t-1 6.5v6v15q0 39 -15 69q-2 3 -13 6.5t-21 3.5q-15 0 -15 -10q0 -1 -4 -10l-4 -9q0 -12 -4 -12l5 -5l-10 -25v-1l-4 -40q-2 -26 -4 -38v-3h63q4 0 5 -1h1q7 -1 10 -4l-12 -51q0 -3 -2 -4.5 t-6 -1.5l-4 -1q-3 0 -11 -0.5t-9 -0.5h-36q0 -4 -1 -6v-18q-1 -1 -1.5 -4t-0.5 -4h35q4 0 5 -1h1q7 -1 10 -4l-14 -51q0 -3 -2 -4.5t-6 -1.5l-4 -1q-3 0 -11 -0.5t-9 -0.5h-5q1 -4 3.5 -20.5t4.5 -23.5q1 -4 3 -19.5t5.5 -28.5t8.5 -19q4 -4 16 -4q5 0 16 1t15 1q8 0 10 -3 l5 8q2 2 2 3v21v5l2 17v34v3v1v46q0 18 8 18h112q2 0 3 -2t1 -4v-3v-4v-2v-103v-5v-51q0 -55 -14 -70q-6 -7 -10 -15q-6 -7 -22 -13l-48 -9l-117 -1q-42 7 -64 19q-3 4 -8.5 10.5t-8.5 11.5t-5 12q-1 4 -7.5 12t-6.5 10q0 4 -2 11t-2 9q-1 4 -3 9t-3 8t-3 8t-3 8q-1 8 -6 15 q-3 25 -4 38q-1 7 -2.5 16t-1.5 12v33h-1q-8 0 -16 2q-2 4 -2 5v51q0 6 10 6h9q0 12 4 32h-5q-8 0 -16 2q-2 4 -2 5v51q0 6 10 6h17z" />
<glyph unicode="&#x2122;" horiz-adv-x="423" d="M398 433v-38l-4 -4h-52q-4 1 -4 6v119q-1 -2 -16 -59l-14 -57l-34 -4l-24 130q0 -136 -5 -136h-54l-4 1v17v1q0 47 3 83v11v18q0 15 -0.5 45.5t-0.5 49.5q0 11 1 15v1l76 3q11 -38 11 -53q2 -2 3 -6t1 -9.5v-7.5l13 -67q1 2 10.5 39t9.5 38q4 10 4 13q4 8 4 18q1 4 3 9.5 t3 8.5q6 20 8 20h54q6 0 6 -10v-8q2 -4 2 -16v-18v-7v-19v-55v-15v-12v-36v-9zM156 644l4 -2v-49q0 -4 -10 -4h-6h-6l-2 -1q-12 -1 -14 -3v-4v-6v-29v-31q1 -6 1 -16v-93q0 -6 -6 -8h-54v2v1q0 5 -0.5 16.5t-0.5 15.5v33v14v8q1 8 1 28q0 9 -0.5 32.5t-0.5 36.5v1h-34l-2 2 l-1 2v37h1v12q0 3 6 3h4q5 2 10 2h4h106z" />
</font>
</defs>
</svg>
