<?xml version="1.0" encoding="utf-8"?>
<!-- Generator: Adobe Illustrator 15.0.2, SVG Export Plug-In  -->
<!DOCTYPE svg PUBLIC "-//W3C//DTD SVG 1.1//EN" "http://www.w3.org/Graphics/SVG/1.1/DTD/svg11.dtd" [
	<!ENTITY ns_flows "http://ns.adobe.com/Flows/1.0/">
]>
<svg version="1.1"
	 xmlns="http://www.w3.org/2000/svg" xmlns:xlink="http://www.w3.org/1999/xlink" xmlns:a="http://ns.adobe.com/AdobeSVGViewerExtensions/3.0/"
	 x="0px" y="0px" width="160px" height="160px" viewBox="-24.4 -14.9 160 160"
	 overflow="visible" enable-background="new -24.4 -14.9 160 160" xml:space="preserve">
<defs>
</defs>
<path fill="#3C3C3B" d="M85.3,65.9L83,64.9l-11.9-5.4l-0.6-0.3l0,0.1l-1,2.4l-2.5-1l-11.8-4.7l-7.4,0.6L54,78.5l-9.1-21.4l-16.4-8
	l-9.4,0.6l5-2.9l-3.6-2.4l25.1,0.1l-4.1-16.3L7,32.1L0,60.9l18.4,23.4l18.8,5.1l-16.9-0.6L6.6,145.1h60.7l5.9-51.5l-12.5-2.4
	l21.2-3.1l6.4-27.7l-1.6,3.1L85.3,65.9z M40.9,2.9L23.6,1.8l-5.9,26.5l18.3-2L40.9,2.9z M41.2,25.7l2.2-0.2l0.6,2.2l4.1,16.3
	l0.8,3.2l-3.3,0l-12,0l-0.4,1.5l5.4,2.6l8.3,2.9l0.6,0l3.5-0.3L67,7.1L47,0l-7.3,25.9L41.2,25.7z M67.9,58.2l16.8-39.1l-15.4-6.6
	L55,53.1L67.9,58.2z M84.1,62.4L99,33.1l-11.8-6.8L72.2,57L84.1,62.4z"/>
</svg>
