<?xml version="1.0" encoding="utf-8"?>
<!-- Generator: Adobe Illustrator 15.0.2, SVG Export Plug-In  -->
<!DOCTYPE svg PUBLIC "-//W3C//DTD SVG 1.1//EN" "http://www.w3.org/Graphics/SVG/1.1/DTD/svg11.dtd" [
	<!ENTITY ns_flows "http://ns.adobe.com/Flows/1.0/">
]>
<svg version="1.1"
	 xmlns="http://www.w3.org/2000/svg" xmlns:xlink="http://www.w3.org/1999/xlink" xmlns:a="http://ns.adobe.com/AdobeSVGViewerExtensions/3.0/"
	 x="0px" y="0px" width="150px" height="200px" viewBox="-20.7 -21.9 150 200"
	 overflow="visible" enable-background="new -20.7 -21.9 150 200" xml:space="preserve">
<defs>
</defs>
<path fill="#688C84" d="M82.6,39.4l-5.1-25.7l12.7-1l-0.5-4.1L61.8,2.9l0.5,12l8.4-0.6L76,41.1L0,60.5l16.7,117.5H95l8.4-144
	L82.6,39.4z M54.7,16.7c1.7,0,3.3-0.6,4.7-1.5c0-1.8,0.2-3.6,0.3-5.6c0.1-2.7-0.1-5.4-0.1-8.1c-1.4-1-3-1.5-4.8-1.5
	c-4.6,0-8.4,3.7-8.4,8.4S50.1,16.7,54.7,16.7z"/>
</svg>
