<?xml version="1.0" encoding="utf-8"?>
<!-- Generator: Adobe Illustrator 15.0.2, SVG Export Plug-In  -->
<!DOCTYPE svg PUBLIC "-//W3C//DTD SVG 1.1//EN" "http://www.w3.org/Graphics/SVG/1.1/DTD/svg11.dtd" [
	<!ENTITY ns_flows "http://ns.adobe.com/Flows/1.0/">
]>
<svg version="1.1"
	 xmlns="http://www.w3.org/2000/svg" xmlns:xlink="http://www.w3.org/1999/xlink" xmlns:a="http://ns.adobe.com/AdobeSVGViewerExtensions/3.0/"
	 x="0px" y="0px" width="160px" height="160px" viewBox="-14.6 -13.5 160 160"
	 overflow="visible" enable-background="new -14.6 -13.5 160 160" xml:space="preserve">
<defs>
</defs>
<path fill="#3C3C3B" d="M129.5,54.3c-0.1-3.4-0.8-6.2-1-9.4c-0.2-0.7-0.3-1.4-0.5-2.1c-2.1-8-6.2-13.7-11.2-18.6
	c-9.7-9.6-24.2-16-38.5-20.7c-7.2-2.3-16-4.2-25.7-3.3C37.2,1.6,26.9,7.3,17.9,14.6C13.7,18.3,9.5,22.3,6,26.8
	c-2.6,3.4-4.4,8.5-5.3,14.1c-1.6,9.9-0.4,21.4,4.4,28.4c3.7,6.4,8.6,11.5,14,16c11,8.9,24.3,15.3,38.9,20.3c1,5.9,2.5,18,2.9,18.3
	c0.4,0.2,6.9,1.3,6.9,1.3s1.1-5.6,1.7-5.5c0.6,0.1,0.5,5.6,0.5,5.6l6.5,1.1c0,0,1-6.3,1.7-6.2c0.6,0.1,0.4,6.6,0.4,6.6l6.1,0.9
	c0,0,1-5.9,1.8-5.6c0.7,0.2,0.4,5.8,0.4,5.8l6.7,0.9c0,0,0.9-5.7,1.5-5.5c0.6,0.2,0.3,5.4,0.3,5.4l6.2,0.8c0,0,1.2-6.2,1.6-6.1
	c0.4,0.2,0.6,6.3,0.6,6.3l5.6,0.1c0,0,0.9-5.6,1.5-5.5c0.5,0.1,0.5,5.4,0.5,5.4s1.9,0.2,2.5-0.2c1.6-3.1,1.8-8.9,1.1-13.4
	c-0.2-1.2-0.8-2.8-0.7-3.9c0.7-5.3,2.7-10.9,4-16c0.3-1.2,1.1-3.1,1-4.2c-0.1-1.1-0.9-2.4-1.2-3.6c-1.7-6.4-3.3-15.1,2.5-18
	c2.2-1.1,5.1-1.2,6.5-3.1c2.1-2.1,3.3-5.1,4.1-8.5C131.1,57.5,130.7,55.4,129.5,54.3z M112.8,110.3c-3.3-0.1-5.6-3.2-4.1-6.5
	c1.7-3.8,5.1-6.9,7.8-9.8c0-0.1,0.2-0.1,0.3-0.1C115.8,99.4,114.4,105.1,112.8,110.3z M113.3,85.8c0.2,0.6,1.2,2.1,0.9,2.7
	c-0.4,0.7-3.3,0.3-4.1,0.2c-7.6-0.5-14.3-4.3-12.8-13.8c1.2-7.5,12-8.7,19.7-6.5C112.9,71.9,111.2,78.8,113.3,85.8z"/>
</svg>
