<?xml version="1.0" encoding="utf-8"?>
<!-- Generator: Adobe Illustrator 15.0.2, SVG Export Plug-In  -->
<!DOCTYPE svg PUBLIC "-//W3C//DTD SVG 1.1//EN" "http://www.w3.org/Graphics/SVG/1.1/DTD/svg11.dtd" [
	<!ENTITY ns_flows "http://ns.adobe.com/Flows/1.0/">
]>
<svg version="1.1"
	 xmlns="http://www.w3.org/2000/svg" xmlns:xlink="http://www.w3.org/1999/xlink" xmlns:a="http://ns.adobe.com/AdobeSVGViewerExtensions/3.0/"
	 x="0px" y="0px" width="100px" height="130px" viewBox="0 -6.3 100 130"
	 overflow="visible" enable-background="new 0 -6.3 100 130" xml:space="preserve">
<defs>
</defs>
<path fill="#997671" d="M38.5,0.3l-2.8,123.4H49L47,0L38.5,0.3z M90.2,2.4L49,4.8v16.1l39.8,4L98,14.1L90.2,2.4z M4.8,10.5L0,21.7
	l6,8l29.5-1.2L36,14.1L4.8,10.5z M50.5,29.4L50,43.8l31.2,3.6L86,36.2l-6-8L50.5,29.4z"/>
<path fill="#FFFFFF" d="M62.8,13.7c0,0.3-0.2,5.8,0,5.8h1.9c0.1,0,0.1-0.1,0.1-0.2c0-1,0.3-11,0-11c-0.6,0-1.2,0.1-1.8,0v0
	c-0.5,0.3-0.2,2.7-0.2,3.3l0,0c-0.2,0-0.3,0-0.5,0c-0.4,0-0.6,0.1-0.6,0.1c0-0.7,0-1.3,0-2c0,0,0,0,0,0c0.1-0.4,0.1-1,0-1.4
	c0-0.2-1.9-0.1-2.1-0.1c-0.2,0.7-0.1,1.5-0.1,2.2c0,1.3,0,2.7,0,4c0,1.6,0,3.2,0,4.8c0,0.7,1.4,0.4,1.9,0.4l0,0h0.1
	c0,0,0.2-5.4,0.2-5.7C61.7,13.6,62.6,13.6,62.8,13.7C62.8,13.7,62.7,13.6,62.8,13.7z M66,14.5c0,0.7-0.3,3.5,0.2,3.9
	c0.4,1.4,2.5,1.8,3.7,1.3c1.2-0.4,1.7-1.3,1.7-2.7c0-1,0-2,0-2.9c0-1.5,0.4-4.5-0.8-5.6c-1.4-0.8-4.5-0.8-4.8,1.3v0c0,0,0,0,0,0h0
	C65.8,11.3,66.1,12.9,66,14.5L66,14.5z M68.1,14.6c0-0.9,0-1.8,0-2.7c0-0.6-0.1-1.7,0.8-1.7c0.5,0,0.5,0.6,0.6,1
	c0.2,1.9,0.1,4.1,0.1,6c-0.1,0.2-0.3,0.3-0.5,0.4c-0.2,0-0.6,0-0.7-0.2C67.9,16.5,68.1,15.5,68.1,14.6
	C68.1,14.6,68.1,14.9,68.1,14.6z M77.1,8.2c-1.4,0-2.9-0.1-4.3,0c-0.1,0-0.2,0.1-0.2,0.2v0.7h0c0,0.2-0.1,0.8,0,1c0,0,0,0.1,0.1,0.1
	h1.2c0,0.3-0.1,9.2,0.1,9.2v0.1h1.9c0.6-0.2,0.1-3.4,0.1-4c0-1.7-0.3-3.6,0-5.3c0.1,0,1.3,0.1,1.3-0.1V8.3
	C77.2,8.3,77.2,8.2,77.1,8.2C77.1,8.2,77.2,8.2,77.1,8.2z M81.8,17.5c-0.4,0-1.2,0.1-1.5-0.1c0-1-0.3-2.3,0-3.3
	c0.2,0,1.5,0.1,1.5-0.2v-1.7c0-0.1-1.4-0.1-1.5-0.1c0-0.7-0.2-1.4,0-2.1c0.4,0,1.4,0.2,1.7-0.1c0.2-0.2,0-1.4,0-1.7
	c0-0.2-3.6-0.1-3.7-0.1c-0.1,0-0.1,0-0.1,0.1c0,3.6,0,7.2,0,10.9c0,0.1,0.1,0.2,0.2,0.2c0.7,0,3.4,0.5,3.7-0.1v-1.7
	C81.9,17.5,81.9,17.5,81.8,17.5C81.8,17.5,81.9,17.5,81.8,17.5z M86.8,17.8c-0.5,0-1,0.1-1.5-0.1c0-3.1,0-6.2,0-9.3
	c-0.2-0.3-1.9-0.1-2.1-0.1c-0.2,0,0,8,0,9.2l0,0c-0.1,0.6-0.2,1.4,0,2c0.3,0.3,1.2,0.1,1.6,0.1v0c0.6,0,1.4,0.1,2,0
	c0.1,0,0.1-0.1,0.1-0.2v-1.6C86.9,17.8,86.8,17.8,86.8,17.8C86.7,17.8,86.8,17.8,86.8,17.8z M12.5,24.2c-0.2-0.7-0.7-1.8-1.2-2.3
	c1.6-0.3,1.8-4.2,0.2-4.7c0,0,0,0,0,0C10.7,16.8,9.6,17,8.8,17c-0.1,0.1-0.1,0.2-0.1,0.2c0,1.9-0.2,3.8,0,5.7c-0.1,0.6,0,1.2,0,1.8
	c0,0.1,0,0.1,0.1,0.1h1.2c0.3-0.1,0.1-2.5,0.1-2.8c0.1,0.3,1,2.8,1.2,2.8c0.2,0,1.5,0.1,1.6-0.1C12.7,24.6,12.6,24.3,12.5,24.2
	C12.5,24.1,12.5,24.2,12.5,24.2z M11.1,19.8c-0.1,0.6-0.4,0.7-1.1,0.7c0-0.7-0.1-1.4,0-2.1c0.2,0,0.8-0.1,0.9,0.2
	C10.9,19,11.2,19.4,11.1,19.8C11.1,20,11.1,19.8,11.1,19.8z M14.8,23.6c0-0.4,0-0.8,0-1.2l0,0c0-0.2,0-0.4,0-0.6
	c0.2,0,0.4-0.1,0.6,0c0.1,0,0.2,0,0.2-0.1v-1.2c-0.2,0-0.7,0.1-0.9-0.1c-0.1-0.5,0-1.1,0-1.6l0,0c0-0.1,0-0.3,0.1-0.4
	c0.2-0.1,0.8,0.2,0.9-0.1V17c0,0,0-0.1-0.1-0.1c-0.7,0-1.4,0-2.1,0c-0.5,0-0.3,1.3-0.3,1.7c0,1.6,0,3.1,0,4.7l0,0
	c0,0.5-0.1,1.1,0,1.7c0.8,0.2,1.7,0,2.5-0.1c0,0,0.1,0,0.1-0.1v-1.2C15.9,23.6,14.9,23.6,14.8,23.6C14.8,23.4,14.8,23.6,14.8,23.6z
	 M20.4,21c-0.1-0.1-0.1-0.2-0.1-0.3l0,0c0,0,0,0,0,0c-0.2-0.1-0.3-0.2-0.5-0.3c0.1-0.4,0.4-0.6,0.5-1.1c0.1-0.5,0-1.3-0.3-1.8
	c-0.5-0.8-1.3-0.6-2.1-0.6c-0.7,0-1.2-0.1-1.2,0.7c0,0.8,0,1.7,0,2.5h0c0,0.4-0.1,4.8,0.1,4.8c0.9,0.1,2.8,0.3,3.4-0.5
	C20.7,23.6,20.6,21.9,20.4,21C20.4,21,20.4,21.2,20.4,21z M18.1,18.4c-0.1-0.5,0.7,0.1,0.7,0.4c0.1,0.3,0,1-0.3,1
	c-0.1,0-0.3,0-0.4,0C18.1,19.4,18.1,18.9,18.1,18.4C18.1,18.3,18.1,18.4,18.1,18.4z M19,22.5c0,0.5-1,1.3-1,0.9c0-0.8,0-1.5,0-2.3
	C19,21,19.1,21.7,19,22.5C19,22.7,19,22.5,19,22.5z M22.6,23.6c0-0.4,0-0.8,0-1.2l0,0c0-0.2,0-0.4,0-0.6c0.2,0,0.4-0.1,0.6,0
	c0.1,0,0.2,0,0.2-0.1v-1.2c-0.2,0-0.7,0.1-0.9-0.1c-0.1-0.5,0-1.1,0-1.6l0,0c0-0.1,0-0.3,0.1-0.4c0.2-0.1,0.8,0.2,0.9-0.1V17
	c0,0,0-0.1-0.1-0.1c-0.7,0-1.4,0-2.1,0c-0.5,0-0.3,1.3-0.3,1.7c0,1.6,0,3.1,0,4.7l0,0c0,0.5-0.1,1.1,0,1.7c0.8,0.2,1.7,0,2.5-0.1
	c0,0,0.1,0,0.1-0.1v-1.2C23.7,23.6,22.7,23.6,22.6,23.6C22.6,23.4,22.6,23.6,22.6,23.6z M27.1,23.6c-0.2-0.2-1-0.1-1.2-0.1
	c0-0.6,0.1-6.5,0-6.5c-0.5,0-0.9,0-1.4,0c0,0-0.3,7.2-0.1,7.8c0.9,0,1.8,0,2.6,0c0.1,0,0.1,0,0.1-0.1C27.2,24.5,27.2,24,27.1,23.6
	C27.2,23.6,27.1,23.6,27.1,23.6C27.1,23.6,27.1,23.6,27.1,23.6z M31.6,18.1c0-1.9-3.1-1.5-3.6-0.2c-0.1,0.3-0.2,0.7-0.2,1
	c0,0.4,0.1,1,0.4,1.2c0.1,0.1,0.6,0.4,0.6,0.6v0c0,0.1,0.3,0.4,0.4,0.4c0.5,0.5,1,1,1,1.7c0,0.6-0.3,0.8-0.8,0.8
	c-0.1-0.1-0.2-1.7-0.2-1.7h-1.3c-0.2,0-0.1,1.7-0.1,1.9c0.3,1.6,3.4,1.8,3.8,0.1c0.3-1.2-0.1-2.3-0.8-3.3c-0.4-0.5-1.1-0.9-1.4-1.5
	c0,0,0,0,0,0c0-0.2-0.1-0.4,0.1-0.7c0.1-0.2,0.3-0.3,0.5-0.2c0.2,0.1,0.2,0.6,0.2,0.8c0,0.4,0.9,0.3,1.2,0.3c0.1,0,0.2-0.1,0.3-0.2
	C31.7,19,31.6,18.4,31.6,18.1C31.6,17.9,31.6,18.1,31.6,18.1z M56.3,40l-0.8-0.1c0.1-1,0.2-1.9,0.2-2.9c0.1-1,0.5-2.5,0.3-3.5
	c0,0,0,0,0,0c-0.5-0.1-0.9-0.1-1.4-0.1c0,0-0.8,7.1-0.6,7.8c0.9,0.1,1.7,0.1,2.6,0.2c0.1,0,0.1,0,0.1-0.1c0-0.4,0.1-0.8,0.1-1.2
	c0,0,0,0,0,0C56.6,40,56.5,40,56.3,40C56.3,40,56.5,40,56.3,40z M61.5,34l-1.3-0.1c-0.1,0-0.2,3.1-0.3,3.4l0,0
	c0,0.6-0.1,1.1-0.1,1.7c0,0.4,0,1.2-0.6,1.2c-0.6,0-0.5-0.5-0.5-0.9c0-0.8,0.1-1.7,0.2-2.5c0-0.6,0.6-2.7,0.2-3.1
	c-0.2-0.2-1.1-0.1-1.3-0.1c-0.1,0-0.3,3.1-0.3,3.6c-0.1,1-0.8,3.9,0.5,4.2c0,0,0,0,0,0c0.6,0.2,1.7,0.4,2.3,0.1
	c0.9-0.5,0.8-1.7,0.9-2.5c0.1-1.6,0.3-3.3,0.3-4.9C61.6,34,61.6,34,61.5,34C61.5,34,61.6,34,61.5,34z M66.6,34.1
	c0-0.1-0.4-0.1-0.5,0L66,34L65.2,34l0,0c-0.1,0.4-0.1,0.8-0.2,1.2c0,1.1-0.2,2.3-0.2,3.4c-0.2-0.9-0.3-1.7-0.5-2.6
	c-0.1-0.3-0.2-1.8-0.3-1.9c-0.2-0.2-1.2-0.1-1.5-0.1l0,0l-0.1,0c-0.6,1.2,0,2.9-0.4,4.2c-0.1,1.1-0.1,2.3-0.2,3.4
	c0,0.1,0,0.1,0.1,0.2c0.4,0,0.8,0.1,1.2,0.1c0.4-0.2,0.2-0.9,0.3-1.3c0-0.6,0.1-1.3,0.1-1.9c0.2,0.8,0.5,1.6,0.7,2.4
	c0.3,1,0.6,0.9,1.7,1c0.6-0.7,0.4-3.3,0.5-4.1C66.5,36.6,66.6,35.4,66.6,34.1L66.6,34.1C66.7,34.1,66.6,34.1,66.6,34.1
	C66.6,34.1,66.6,34.1,66.6,34.1z M71.2,35.5c0-0.5-0.2-1-0.7-1.1c-0.5-0.2-1.9-0.4-2.3,0c0,0.2-0.5,0.8-0.5,1.1l0,0
	c-0.4,0.6-0.3,1.8-0.4,2.5l0,0c0,1.5-0.4,2.8,0.4,4.1c0.6,0.4,2.9,0.8,3.2-0.2c0.2-0.5,0.4-2.2,0.3-2.7c0,0,0,0,0,0
	c-0.9-0.1-1.3-0.4-1.4,0.6c-0.1,0.4,0,0.8-0.3,1.1c-1.1,0.1-0.9-1.1-0.9-1.9c0,0,0,0,0,0c0.1-0.8,0.1-1.6,0.3-2.3
	c0.1-0.3,0.5-1.5,0.9-0.7c0.1,0.5,0.1,1,0.1,1.6c0,0.3,1.1,0.2,1.3,0.2C71.3,37.8,71.2,35.8,71.2,35.5
	C71.2,35.4,71.2,35.5,71.2,35.5z M75.7,34.7c-0.4,0-0.9-0.1-1.3-0.1c-0.5,0.2,0,3-0.3,3.6c-0.2,0-0.4,0-0.7,0c0-0.3,0.3-3.6,0.1-3.6
	l-1.3-0.1l-0.1,0.1c-0.3,0.5-0.1,1.7-0.1,2.2l0,0c0,0.5-0.7,5.5-0.3,5.7l1.3,0.1c0,0,0.1,0,0.1-0.1c0.1-0.9,0-1.8,0.2-2.7l0.6,0
	c0,0.2-0.3,2.7-0.1,2.7l1.3,0.1C75.5,42.3,75.9,34.7,75.7,34.7C75.7,34.7,75.8,34.7,75.7,34.7z M72,36.7C72,36.7,72,36.7,72,36.7
	C72,36.7,72,36.7,72,36.7C72,36.7,72,36.7,72,36.7z"/>
</svg>
