<?xml version="1.0" encoding="utf-8"?>
<!-- Generator: Adobe Illustrator 15.0.2, SVG Export Plug-In  -->
<!DOCTYPE svg PUBLIC "-//W3C//DTD SVG 1.1//EN" "http://www.w3.org/Graphics/SVG/1.1/DTD/svg11.dtd" [
	<!ENTITY ns_flows "http://ns.adobe.com/Flows/1.0/">
]>
<svg version="1.1"
	 xmlns="http://www.w3.org/2000/svg" xmlns:xlink="http://www.w3.org/1999/xlink" xmlns:a="http://ns.adobe.com/AdobeSVGViewerExtensions/3.0/"
	 x="0px" y="0px" width="250px" height="250px" viewBox="0 0 250 250" overflow="visible" enable-background="new 0 0 250 250"
	 xml:space="preserve">
<defs>
</defs>
<rect fill="#3C3C3B" width="250" height="250"/>
<path fill="#FFFFFF" d="M206.5,108.4c-0.1-4.3-1-8-1.3-12.1c-0.2-0.9-0.4-1.8-0.7-2.7c-2.7-10.2-8-17.6-14.5-24
	C177.6,57.3,159,49,140.6,43.1c-9.3-3-20.6-5.4-33.1-4.3c-19.8,1.8-33.1,9.2-44.6,18.6C57.5,62,52.1,67.2,47.7,73
	c-3.3,4.4-5.7,10.9-6.9,18.1c-2.1,12.7-0.6,27.5,5.7,36.6c4.8,8.2,11,14.8,18.1,20.6c14.1,11.5,31.3,19.7,50,26.1
	c1.3,7.6,3.2,23.2,3.7,23.5c0.5,0.3,8.8,1.6,8.8,1.6s1.5-7.2,2.2-7.1c0.7,0.1,0.6,7.2,0.6,7.2l8.3,1.4c0,0,1.3-8.1,2.2-8
	c0.8,0.1,0.5,8.5,0.5,8.5l7.8,1.2c0,0,1.3-7.6,2.3-7.2c1,0.3,0.5,7.5,0.5,7.5l8.6,1.2c0,0,1.1-7.3,2-7.1c0.8,0.2,0.4,7,0.4,7l8,1
	c0,0,1.5-8,2.1-7.8c0.6,0.2,0.8,8.1,0.8,8.1l7.2,0.1c0,0,1.2-7.2,1.9-7.1c0.7,0.1,0.7,7,0.7,7s2.4,0.3,3.2-0.2
	c2-4,2.4-11.4,1.4-17.2c-0.3-1.5-1-3.6-0.9-5c1-6.8,3.4-14,5.2-20.6c0.4-1.6,1.4-3.9,1.3-5.4c-0.1-1.5-1.2-3.1-1.6-4.6
	c-2.2-8.3-4.2-19.4,3.2-23.2c2.8-1.4,6.5-1.5,8.4-4c2.7-2.7,4.2-6.5,5.2-10.9C208.6,112.5,208.1,109.7,206.5,108.4z M185,180.4
	c-4.2-0.1-7.2-4.1-5.3-8.3c2.2-4.9,6.6-8.9,10-12.6c0-0.1,0.2-0.1,0.4-0.1C188.9,166.3,187,173.7,185,180.4z M185.6,148.9
	c0.2,0.8,1.5,2.7,1.1,3.4c-0.5,0.9-4.2,0.4-5.3,0.3c-9.8-0.6-18.4-5.6-16.4-17.7c1.6-9.6,15.5-11.1,25.3-8.3
	C185.2,131,182.9,139.9,185.6,148.9z"/>
</svg>
