<?xml version="1.0" encoding="utf-8"?>
<!-- Generator: Adobe Illustrator 15.0.2, SVG Export Plug-In  -->
<!DOCTYPE svg PUBLIC "-//W3C//DTD SVG 1.1//EN" "http://www.w3.org/Graphics/SVG/1.1/DTD/svg11.dtd" [
	<!ENTITY ns_flows "http://ns.adobe.com/Flows/1.0/">
]>
<svg version="1.1"
	 xmlns="http://www.w3.org/2000/svg" xmlns:xlink="http://www.w3.org/1999/xlink" xmlns:a="http://ns.adobe.com/AdobeSVGViewerExtensions/3.0/"
	 x="0px" y="0px" width="250px" height="250px" viewBox="0 0 250 250" overflow="visible" enable-background="new 0 0 250 250"
	 xml:space="preserve">
<defs>
</defs>
<rect fill="#FFFFFF" width="250" height="250"/>
<path fill="#3C3C3B" d="M87.2,166.1c-0.5-6.2-4.7-26.7-4.7-32.9c0-5.3,3.3-7.8,16.3-16.4c10.7-7.1,20.7-11.6,30-16.1
	c3.8-1.8,5.8-2.9,5.8-7.3c0-2.2-0.5-5.2-1.5-9.5c-2.8-12.1-6.1-18.4-9.8-18.4c-0.7,0-1.4,0.2-2.1,0.6c-2.3,1.4-3.2,4.7-3.9,14.4
	l-0.3,4.1c-0.6,9.2-1.9,8.4-11.2,8.7l-7.1,0.2c-5,0.1-8.9,0.3-12.1,0.3c-13.2,0-12.9-2.2-13.8-14.6c-0.5-7.3-1.4-18.6-2-25.2
	c-0.3-3.5-0.5-6-0.5-8c0-4,0.8-5.5,2.8-7.5c4.9-4.9,33.8-13.7,49.1-15c3.6-0.3,6.2-0.5,8.3-0.5c5.8,0,8.9,1.5,20,7.1
	c20.6,10.3,24.9,13.4,28.6,28.3c3.6,14,4.4,30,6.1,48.9c0.3,3,0.5,5.3,0.5,7.1c0,6.9-3.7,6.3-23.8,15.9c-5.1,2.4-12.1,5.5-12.6,6.1
	c-0.5,0.6-4.9,2.1-9.6,4.5c-9,4.7-10.9,5.1-10.9,11c0,2.4,0.3,5.7,0.6,10.5l0.6,10.1c0.1,2.4,0.3,4.2,0.3,5.5c0,3.9-1.3,4.6-7.9,5.2
	l-23.7,2.2c-1.6,0.1-2.9,0.2-4,0.2c-6.2,0-5.7-2.7-6.8-12.2C87.6,170.6,87.4,167.9,87.2,166.1z M133.2,206.6c0,1.4-0.2,3-0.6,4.7
	c-2.2,10.8-4.4,15.6-5.3,16.8c-0.9,1.3-21.7,3.5-27.3,3.5c-1.4,0-2.3-0.1-2.6-0.4c-0.6-0.6-8.1-5.8-8.1-13.4c0-0.3,0-0.6,0-0.8
	c1.2-13.6,1.4-10.9,5.3-16.4c4.5-6.4,9.6-8.3,14.6-8.3c3.2,0,6.4,0.8,9.2,1.6C128.4,196.1,133.2,199.4,133.2,206.6z"/>
</svg>
