<?xml version="1.0" encoding="utf-8"?>
<!-- Generator: Adobe Illustrator 15.0.2, SVG Export Plug-In  -->
<!DOCTYPE svg PUBLIC "-//W3C//DTD SVG 1.1//EN" "http://www.w3.org/Graphics/SVG/1.1/DTD/svg11.dtd" [
	<!ENTITY ns_flows "http://ns.adobe.com/Flows/1.0/">
]>
<svg version="1.1"
	 xmlns="http://www.w3.org/2000/svg" xmlns:xlink="http://www.w3.org/1999/xlink" xmlns:a="http://ns.adobe.com/AdobeSVGViewerExtensions/3.0/"
	 x="0px" y="0px" width="1450px" height="450px" viewBox="23 0 1450 450" overflow="visible" enable-background="new 23 0 1450 450"
	 xml:space="preserve">
<defs>
</defs>
<rect x="23" y="0" fill="#FFFFFF" width="1450" height="450"/>
<polyline fill="#4F4F4A" points="1473,0 23,0 23,450 477.5,373.3 1050.5,388.8 1144.6,413.8 1281.3,412 1473,450 1473,0 "/>
<polygon fill="#494945" points="386,370.3 353,190.3 311.5,295.3 211,169.3 174.5,256.3 143.5,110.8 109,248.8 71.5,11.8 23,450 
	468.5,374.8 469.6,374.8 477.5,373.3 540.6,375 986,376.3 1226.7,412.7 1281.3,412 1473,450 1473.4,193.3 1381.4,399.7 1377.8,11 
	1326.4,300 1312.6,224 1263.4,350.7 1283.3,171.3 1177.3,309.3 1039,103.3 1003,254.8 982,110.8 937,227.8 907.7,61.7 833.9,212.4 
	790.4,108.8 751.7,226.7 733.6,174.5 715.5,217.2 692.3,138.2 659.3,338.9 577,71 530,195 474,4.3 "/>
<polygon fill="#8E8E87" points="935.2,237.8 934.4,223.3 977.8,224 978.2,391.8 953,391.4 "/>
<polygon fill="#CECECE" points="1044.7,198.4 974.2,198.9 977.4,276.9 975.9,394.8 990.5,396.2 992,366 1017,363.5 1017,398.7 
	1045.5,401.3 1049.6,276 1069.6,276.9 1082.6,196.1 "/>
<polygon fill="#FFFFFF" points="992,366 990.5,396.2 1017,398.7 1017,363.5 "/>
<path opacity="0.15" d="M1233.9,145.6l-4.2-1.9l-21.2-9.6l-1.1-0.5l-0.1,0.2l-1.9,4.3l-4.4-1.8l-21-8.4l-13.3,1l11.2,39.1
	l-16.2-38.2l-29.4-14.3l-16.7,1.1l8.9-5.1l-6.5-4.4l44.8,0.2l-7.3-29l-61.6,6.8l-12.5,51.4l32.9,41.9l33.6,9l-30.2-1.1l-24.5,101.3
	L1199,308l13.1-112.9l-22.3-4.3l37.8-5.5l11.4-49.5l-2.8,5.6L1233.9,145.6z M1154.6,33l-30.8-2l-10.5,47.4l32.7-3.6L1154.6,33z
	 M1155.2,73.7l4-0.4l1,3.9l7.3,29l1.4,5.7l-5.9,0l-21.4-0.1l-0.8,2.7l9.7,4.7l14.8,5.1l1.1-0.1l6.3-0.5l28.6-83.3l-35.8-12.7
	L1152.3,74L1155.2,73.7z M1202.9,131.8l29.9-69.8l-27.5-11.8l-25.6,72.4L1202.9,131.8z M1231.7,139.2l26.5-52.4l-21.1-12.2l-26.6,55
	L1231.7,139.2z"/>
<polygon opacity="0.15" points="426.8,218.4 446.1,219.6 444.7,239.7 466.6,239.5 472.1,258.3 500.2,252 527.5,275.6 535.9,268.6 
	555.3,284.4 564.1,250.7 568.2,263.2 577,232.8 608.3,220.8 602.2,201.8 620.1,196.5 605.5,181 630.6,162.7 586.7,159.3 550.3,229 
	546.6,219.9 541.4,233 531.1,225.5 533,233.6 513.6,224.4 478.6,196.8 "/>
<polygon opacity="0.15" points="1432.4,100.5 1420.9,109.4 1430.2,121.2 1416.5,130.3 1421,144.3 1400.9,152.1 1393.9,178.2 
	1385.7,177.4 1380.3,195.3 1360.7,178.1 1363.4,187.6 1345.2,172.4 1320.7,178.1 1316.5,163.7 1303.2,167.9 1305.7,152.2 
	1282.5,151.3 1308.3,130.8 1360.1,158.8 1358.7,151.6 1367.3,157.6 1370.6,148.6 1372.8,154.4 1381,140.6 1391.2,108.7 "/>
<polygon opacity="0.15" points="713.2,188 715.1,195 712.5,196.8 716.7,200.2 713.4,204.6 720.8,211.8 715.8,223.3 722.6,224 
	719.2,227 732.4,227 744.4,216.1 756.3,209.9 759.2,202 755.9,194.8 752.8,202.5 744.9,203.9 743.6,210.5 736.5,211.6 732.5,218.9 
	725.9,205.9 "/>
<path opacity="0.15" d="M299.1,173.9c-0.2-7.7-1.8-14.4-2.4-21.6c-0.4-1.7-0.7-3.3-1.2-4.8c-4.9-18.4-14.4-31.6-26-43
	c-22.5-22.2-55.9-37.1-88.8-47.8c-16.7-5.4-36.9-9.7-59.4-7.7C86,52.1,62,65.3,41.3,82.2c-9.8,8.4-19.4,17.6-27.4,28.1
	c-6,7.8-10.2,19.5-12.3,32.5c-3.8,22.8-1,49.4,10.2,65.7c8.6,14.7,19.8,26.6,32.4,37c25.3,20.6,56.1,35.3,89.8,46.8
	c2.4,13.7,5.7,41.7,6.6,42.2c0.9,0.5,15.9,2.9,15.9,2.9s2.7-13,3.9-12.7c1.3,0.3,1,12.9,1,12.9l14.9,2.5c0,0,2.4-14.5,3.9-14.3
	c1.5,0.2,0.8,15.3,0.8,15.3l14,2.2c0,0,2.4-13.6,4.1-13c1.7,0.6,0.9,13.5,0.9,13.5l15.5,2.1c0,0,2-13.1,3.5-12.7
	c1.5,0.4,0.7,12.5,0.7,12.5l14.3,1.8c0,0,2.7-14.4,3.7-14c1,0.4,1.4,14.6,1.4,14.6l12.9,0.3c0,0,2.1-12.9,3.4-12.7
	c1.3,0.2,1.2,12.5,1.2,12.5s4.3,0.5,5.7-0.4c3.6-7.1,4.2-20.4,2.5-30.8c-0.5-2.7-1.9-6.5-1.5-9c1.7-12.2,6.2-25.2,9.3-37.1
	c0.8-2.9,2.4-7.1,2.3-9.6c-0.2-2.7-2.1-5.6-2.9-8.3c-3.9-14.8-7.6-34.8,5.7-41.6c5.1-2.6,11.7-2.7,15-7.3c4.9-4.8,7.6-11.8,9.4-19.5
	C302.8,181.3,301.9,176.2,299.1,173.9z M260.5,303.2c-7.6-0.2-12.9-7.3-9.4-15c4-8.9,11.8-16,18-22.7c0.1-0.2,0.4-0.2,0.7-0.2
	C267.5,277.9,264.1,291.1,260.5,303.2z M261.6,246.5c0.4,1.4,2.7,4.9,2,6.1c-0.9,1.6-7.5,0.7-9.4,0.5c-17.5-1-33-10-29.5-31.8
	c2.8-17.3,27.8-20,45.5-14.9C260.8,214.4,256.8,230.4,261.6,246.5z"/>
<polygon opacity="0.15" points="66.5,277.2 118.1,301.1 116.9,324.8 63.1,303.5 "/>
<polygon opacity="0.15" points="62.7,312.4 109,331 109,350.5 58.4,343.2 55.4,324.6 "/>
<polygon opacity="0.15" points="62.9,351.6 62.6,372.4 110.1,373.2 110.7,356.7 "/>
<polygon opacity="0.15" points="55.9,376.4 55.4,395.8 109.3,403.6 108.8,382 "/>
<polygon opacity="0.15" points="58.1,408.7 56.4,437.1 109.1,425.7 104.5,408.5 "/>
<polygon fill="#997671" points="1056.4,283.9 1057.4,412 1203.4,421.7 1214.8,277.1 "/>
<polygon fill="#8E8E87" points="567,277.8 595.5,279.4 595.5,385.9 567,384.3 "/>
<polygon fill="#8E8E87" points="647.5,277.6 675.8,276.4 676.2,385.3 646.8,384.4 "/>
<polygon fill="#8E8E87" points="727.5,276.2 756,272 756,391.3 725.3,390.5 "/>
<polygon fill="#8E8E87" points="806.7,264.5 835.8,263.2 836.1,391.5 805.5,393 "/>
<polygon fill="#8E8E87" points="887.2,243 910.7,243 910.4,391.5 888.2,392.3 "/>
<polygon fill="#8E8E87" points="487.3,276.5 514.9,275.8 514,385.3 485.6,383.9 "/>
<path fill="#CECECE" d="M1047,193.3c0.2,0.2,0.9,0.7,1.1,0.9c0.5,0.6,0.8,0.7,1,1.6c0,0.2,0.1,0.3,0.1,0.4c0,0.2,0.1,0.4,0.1,0.5
	c0,0.5-0.1,0.9-0.2,1.1c-0.1,0.1-0.2,0.2-0.3,0.3c-0.1,0.1-0.4,0.2-0.4,0.2c0,0-0.5,0.2-0.9,0.2l-0.1,0c-0.4,0-0.7,0-0.8,0
	c-0.5-0.1-0.8-0.4-1-1.1l-0.1-0.7l0-0.6c0-0.2,0,0,0-0.2l0-0.2c0-0.1,0-0.1,0.1-0.1l1.2-0.1c0,0,0.1,0.1,0.1,0.1l0,0.3l0,0.5
	c0,0.1,0,0.2,0,0.2c0,0.1,0.1,0.3,0.1,0.3c0,0,0.2,0.1,0.2,0.1l0,0l0.1,0c0.2-0.1,0.3-0.2,0.3-0.2c0.1-0.1,0.1-0.3,0.1-0.3l0,0
	c0-0.1,0-0.1,0-0.2c0-0.1-0.2-0.7-0.4-0.9c-0.3-0.4-0.5-0.5-0.8-0.8c-0.1-0.1-0.1-0.1-0.2-0.2c-0.1,0-0.1,0-0.1-0.1c0,0,0,0,0,0v0
	c0,0,0,0,0,0c0,0-0.2-0.2-0.3-0.3c-0.2-0.2-0.3-0.1-0.4-0.5c-0.1-0.2-0.2-0.5-0.2-0.9c0-0.1,0-0.1,0-0.2c0-0.2,0.1-0.6,0.1-0.6
	c0,0,0.1-0.1,0.1-0.1c0,0,0,0,0,0l0,0c0,0,0.1-0.1,0.1-0.2c0.1-0.3,0.3-0.3,0.4-0.5c0.1-0.1,0.1-0.1,0.1-0.1c0.1-0.1,0.5-0.3,1-0.4
	l0.1,0c0.5,0,0.9,0.1,1.1,0.2c0.1,0,0.2,0.1,0.2,0.1c0.1,0.1,0.2,0.2,0.2,0.2c0,0.1,0,0.1,0.1,0.2c0,0,0.1,0.3,0.1,0.4l0,0.1
	c0,0.1,0,0.2,0,0.2l0,0.3l0,0.1c0,0.1,0,0.2,0,0.3c0,0.1-0.1,0.2-0.2,0.2l-0.9,0l-0.1,0c-0.1,0-0.1,0-0.2-0.2l0-0.1
	c0-0.1,0-0.1,0-0.1l0-0.2c0-0.1,0-0.1,0-0.1c-0.1-0.1-0.1-0.2-0.2-0.3c-0.1-0.1-0.1-0.1-0.2-0.1c-0.1,0-0.2,0.1-0.3,0.2
	c-0.1,0.1-0.1,0.2-0.1,0.3c0,0.1,0,0.2,0,0.3c0,0,0,0,0,0c0,0.1,0,0,0,0.1L1047,193.3z"/>
<path fill="#CECECE" d="M1052.2,196.1c0.1,0.2,0.2,0.6,0.3,0.7c0.1,0.1,0.2,0.1,0.3,0.1c0.1,0,0.2,0,0.3,0l0,0
	c0.1-0.1,0.1-0.1,0.1-0.1c0,0,0,0,0,0l0-0.2l0-0.1l0-0.2l0-0.4l0,0c0,0,0,0,0,0l0-0.5c0-0.2,0.2-0.2,0.2-0.2l1.1,0
	c0,0,0.1,0.1,0.1,0.1l0,0c0,0,0,0,0,0l0,1.1l0,0.1l0,0.6c0,0.4,0,0.6-0.1,0.8c-0.1,0.1-0.1,0.2-0.1,0.2c-0.1,0.1-0.2,0.1-0.2,0.2
	l-0.5,0.1l-1.3,0.1c-0.5-0.1-0.5-0.1-0.7-0.2c-0.1-0.2-0.2-0.2-0.3-0.4c0-0.1-0.2-0.2-0.2-0.2c0-0.1-0.1-0.2-0.1-0.2
	c0-0.1-0.1-0.1-0.1-0.2c0-0.1-0.1-0.1-0.1-0.2c0-0.1-0.1-0.1-0.1-0.2c0-0.1,0-0.3-0.1-0.4c0-0.2,0-0.4-0.1-0.6c0-0.4,0-0.8,0-1.2
	c0-0.1,0-0.2,0-0.2c0,0,0,0,0,0l0,0c0,0,0-1.1,0.1-2l0,0l0-0.2c0-0.1,0-0.1,0-0.1c0,0,0,0,0,0c0,0,0-0.4,0.1-0.5l0-0.1
	c0-0.1,0.1-0.1,0.1-0.1c0-0.1,0-0.2,0.1-0.2c0-0.1,0.1-0.1,0.1-0.1c0.1-0.1,0.6-0.2,1.2-0.3c0.5,0,1,0,1.2,0.1
	c0.1,0.1,0.2,0.1,0.2,0.1c0.2,0.1,0.2,0.2,0.2,0.3c0,0.1,0.1,0.1,0.1,0.2c0,0.1,0,0.2,0.1,0.3c0,0.1,0,0.1,0,0.1
	c0,0.1,0,0.2,0.1,0.2c0,0.2,0,0.3,0,0.4l0,0.2c0,0.1,0,0.3,0,0.5c0,0.1,0.1,0.7,0,0.7l-1.2,0.1c-0.1,0-0.1-0.2-0.1-0.2l0-0.1l0-0.3
	c-0.1-0.3,0-0.4-0.1-0.6c0-0.1-0.1-0.3-0.1-0.5c0,0-0.1-0.2-0.3-0.2c-0.1,0-0.3,0.2-0.3,0.2c0,0-0.1,0.2-0.1,0.2c0,0.1,0,0.1,0,0.1
	l0,0.2l0,0.2l0,0l0,0.5c0,0.2,0,0.3,0,0.4c0,0.3,0,0.4,0,0.7l0,0.2c0,0.1,0,0.2,0,0.2c0,0,0,0.1,0,0.2c0,0,0,0,0,0l0,0.2
	C1052.2,195.6,1052.2,195.9,1052.2,196.1z"/>
<path fill="#CECECE" d="M1059.5,191.9l0,0.1c0,0.1,0,0.1,0,0.2c0,0.1,0.1,0.3,0.1,0.3c0.1,0.6,0.2,1.3,0.4,2.1
	c0,0.1,0.1,0.1,0.1,0.2l0,0.2c0.1,0.4,0.2,0.7,0.2,1.1l0,0.1c0,0,0,0.2,0.1,0.3l0.1,0.5l0,0.1l0,0l0.1,0.5c0,0,0,0,0,0l-1.3,0.1
	c-0.1,0-0.2-0.3-0.2-0.4c-0.1-0.2-0.1-0.3-0.1-0.4c-0.1-0.7-0.2-1-0.3-1.6l-0.8,0c0,0-0.1,0.4-0.1,0.4c0,0,0,0.2,0,0.3l0,0.1
	c0,0.1,0,0.2,0,0.3c0,0.5-0.1,0.8-0.1,1.3c0,0,0,0,0,0l0,0l-0.7,0l0,0l-0.2,0c-0.4,0-0.5,0-0.5-0.1l0,0l0.1-0.6l0-0.4c0,0,0,0,0-0.1
	c0,0,0,0,0,0c0-0.1,0-0.2,0-0.3c0-0.2,0-0.1,0-0.2c0.1-1.2,0.2-2,0.3-3.1l0.1-0.7l0-0.2c0-0.6,0.2-1.2,0.2-1.7
	c0-0.2,0.1-0.2,0.2-0.2l0.7,0l0.2,0.1l0.2-0.1l0.8,0c0.1,0,0.1,0,0.1,0c0,0.1,0,0.1,0,0.1C1059.2,190.9,1059.4,191.4,1059.5,191.9z
	 M1058.6,194.2c0,0-0.1-0.7-0.2-1.1c0-0.2-0.1-0.3-0.1-0.4l0,0l0-0.1l0,0c0-0.1-0.1-0.1-0.1-0.2c-0.1-0.2-0.1-0.6-0.1-0.6l-0.2,2.5
	L1058.6,194.2z"/>
<path fill="#CECECE" d="M1065.8,191.3c0,0.1,0,0.2,0,0.3l0.1,1.1l0,0.1c0,0.2,0,0.4,0.1,0.6c0,0.3,0,0.6,0,0.9l0.1,1.1l0,0.3l0,0.1
	l0,0.6c0,0.2,0,0.4,0,0.5l0,0.1c0,0.1,0,0.2-0.1,0.2l-1.3,0.1c-0.1,0-0.2-0.3-0.2-0.4c0-0.2-0.1-0.2-0.1-0.3c0-0.1-0.1-0.2-0.1-0.2
	l-0.9-2.1l0,0l0,0.1c0,0.1,0,0.1,0,0.1l0.1,2.7c0,0.1,0,0.1-0.1,0.1l-1.2,0.1c-0.1,0-0.1-0.1-0.1-0.1l-0.1-1.8l0-0.1c0,0,0,0,0,0v0
	l0-0.6l-0.1-1.6l0-0.2l0-0.6l-0.1-1.4l0,0l0-0.4c0-0.2,0-0.3,0.1-0.3l0,0c0,0,0,0,0,0l1.2-0.1c0.1,0,0.2,0.2,0.2,0.2
	c0.1,0.1,0.1,0.2,0.1,0.3c0.1,0.3,0.1,0.5,0.1,0.6c0,0,0.7,2.2,0.7,2.2c0,0.1,0.1,0.2,0.1,0.2c0-0.1,0-0.1,0-0.1l0-0.1l0,0l-0.2-3.6
	c0-0.1,0.2-0.1,0.2-0.1l0,0l0.3,0l0.8,0l0,0.1c0.1,0.1,0.1,0.2,0.1,0.3v0l0,0.4c0,0.1,0,0.2,0,0.3
	C1065.7,191,1065.8,191.2,1065.8,191.3z"/>
<path fill="#CECECE" d="M1070.8,190.1c0.1,0.1,0.1,0.1,0.1,0.2c0,0.1,0.1,0.1,0.1,0.1c0.1,0.2,0.1,0.4,0.2,0.6
	c0,0.1,0.1,0.3,0.1,0.3c0,0,0.2,2,0.2,2.6l0.1,1.1c0,0.2,0,0.4,0,0.5c0,0.4-0.2,0.7-0.3,1c-0.3,0.5-1,0.6-1.7,0.6l-0.5,0
	c-0.4,0-0.6,0-0.9,0c-0.2,0-0.3,0-0.3-0.3l0-0.9c0-0.4,0-0.9,0-1.2c-0.1-1.4-0.2-2.7-0.3-4l0-0.9c0-0.1,0-0.2,0-0.2
	c0.1-0.1,0.1-0.1,0.3-0.1c0.2-0.1,0.3-0.1,0.5-0.1c0.8,0,2.2,0,2.4,0.5C1070.8,190,1070.8,190.1,1070.8,190.1z M1069.2,195.9
	c0.2,0,0.6-0.1,0.6-0.1c0.2-0.1,0.2-0.2,0.3-0.3c0.1-0.1,0.1-0.3,0-0.4c0-0.4-0.1-0.9-0.1-1.3l0-0.1l0-0.5c0-0.5-0.1-0.8-0.1-1.4
	c0-0.2,0-0.2,0-0.2c-0.1-0.3-0.1-0.3-0.2-0.4c-0.1-0.2-0.5-0.3-0.7-0.3c-0.1,0-0.1,0-0.1,0.1l0,0.3c0,0,0,0,0,0l0,0.5
	c0,0.2,0,0.4,0,0.5l0,0.5c0,0.3,0.1,0.6,0.1,0.8l0,0.5l0,0.9l0,0.3C1069.2,195.4,1069.2,195.7,1069.2,195.9L1069.2,195.9z"/>
<path fill="#CECECE" d="M1074.4,191.7l0,0.5c0,0.3,0,0.5,0,0.7c0,0.1,0,0.1,0,0.2c0,0.1,0,0.2,0,0.3l0,0.6l0,0.5c0,0.1,0,0.3,0,0.4
	l0,0.3l0,0.2l0,0.8c0,0,0,0,0,0.1v0l0,0.6c0,0,0,0-0.1,0l0,0l-0.8,0c0,0,0,0-0.1,0l-0.3,0c-0.1,0-0.1-0.1-0.1-0.2c0-0.1,0-0.2,0-0.3
	l0-0.7c0,0,0-0.9,0-1.5c0,0,0-0.1,0-0.1c0-0.8,0-1.2-0.1-2c0-0.1,0-0.2,0-0.3c0,0,0-0.1,0-0.1c0-0.2,0-0.5,0-0.5l0-0.1l-0.1-1.4
	c0-0.2,0.3-0.2,0.3-0.2l1-0.1c0.1,0,0.1,0.2,0.1,0.3l0.1,1.3l0,0.2L1074.4,191.7z"/>
<path fill="#CECECE" d="M1079.9,194.8c0,0.6,0,1.1-0.1,1.4c-0.1,0.3-0.1,0.3-0.2,0.4c-0.1,0.1-0.3,0.1-0.3,0.1l-0.2,0l0,0l0,0
	l-0.5,0c-0.3,0-0.6,0-0.8,0c-0.2,0-0.4,0-0.5-0.1c-0.1,0,0,0-0.1-0.1c0,0-0.1-0.1-0.1-0.1c-0.1,0-0.1-0.1-0.1-0.2
	c-0.1-0.1-0.1-0.1-0.1-0.1c-0.1-0.2-0.2-0.2-0.2-0.3c-0.1-0.2-0.1-0.4-0.1-0.5l0,0l0-0.2c0-0.1,0-0.2,0-0.2c0-0.4-0.1-0.8-0.1-1.1
	l-0.1-1.1c0-0.6,0-1.2,0-1.6c0-0.2,0-0.5,0-0.6c0-0.3,0.1-0.6,0.2-0.8c0.1-0.2,0.1-0.2,0.2-0.3l0.1-0.1v0c0.2-0.2,0.7-0.3,1.2-0.4
	c0.5,0,0.9,0,1.1,0.1c0.2,0.2,0.3,0.5,0.4,0.8c0.1,0.3,0.1,0.5,0.2,0.7l0.1,1.1c0,0.1,0,0.2,0,0.2c0,0.1,0,0.1,0,0.1l-1.1,0.1
	c-0.2,0-0.2-0.1-0.2-0.1c0-0.1,0-0.2,0-0.3c0-0.1,0-0.1,0-0.1l0-0.3c0-0.1-0.1-0.5-0.1-0.5c0-0.1-0.1-0.2-0.2-0.2
	c-0.1,0-0.2,0.1-0.2,0.3c0,0,0,0,0,0v0c0,0,0,0.6,0,0.6c0,0.3,0,0.8,0,1v0v0c0,0.1,0,0.1,0,0.1l0,0.6c0,0.1,0,0.2,0,0.2
	c0,0.1,0,0.2,0,0.3c0,0.4,0.1,0.6,0.1,0.8c0,0.2,0,0.3,0.1,0.5c0,0.2,0.1,0.4,0.2,0.6c0.1,0.1,0.2,0.1,0.2,0.1
	c0.1,0,0.2-0.2,0.2-0.2c0-0.1,0.1-0.3,0.1-0.3c0-0.1,0-0.2,0-0.2c0-0.3,0-0.5,0-0.8c0,0,0-0.2,0-0.2c0-0.1,0.3-0.1,0.3-0.1l0.5,0
	l0.3,0c0.2,0,0.2,0,0.2,0.1l0,0.1l0,0.1l0,0.7L1079.9,194.8z"/>
<polygon fill="#CCBEA8" points="434,386.7 432.3,269.5 489.5,270.4 487.8,388.8 "/>
<polygon fill="#CECECE" points="511.7,269.4 512.9,388 567.1,387.1 568.9,267.6 "/>
<polygon fill="#CECECE" points="592.3,267.1 594.1,388.4 648.1,387.5 650.2,268.4 "/>
<polygon fill="#CCBEA8" points="672.8,268.4 673.7,388 728.1,395.3 730.2,266.3 "/>
<polygon fill="#CECECE" points="754,251.5 754,394.8 807.7,395.7 810,249.3 "/>
<polygon fill="#CCBEA8" points="831.7,234.2 833.5,394.5 888.5,394.1 889.4,235.4 "/>
<polygon fill="#CCBEA8" points="909,214.4 909,394.9 955.3,395.8 958.2,215.2 "/>
<polygon opacity="0.2" fill="#020202" points="982.1,205 982.3,217.2 1079.6,218.9 1081.8,202.9 "/>
<polygon opacity="0.2" fill="#020202" points="982,221.6 1078.9,222.4 1076.6,237 982,237 "/>
<polygon opacity="0.2" fill="#020202" points="982.6,240.4 983.6,253.7 1073.6,253.9 1076.2,239.5 "/>
<polygon opacity="0.2" fill="#020202" points="983.4,258.4 982.8,272.3 1070.5,272.6 1073.1,257.6 "/>
<polygon opacity="0.2" fill="#020202" points="982.3,276.7 981.5,290.8 1046.4,290.6 1046,276.2 "/>
<polygon opacity="0.2" fill="#020202" points="983,294.9 982.8,312.1 1046,312.5 1046.2,293.6 "/>
<polygon opacity="0.2" fill="#020202" points="983.6,320.1 983.2,333.1 1042.1,333.6 1042.5,318.6 "/>
<polygon opacity="0.2" fill="#020202" points="983.2,335.8 1043.1,336.8 1041.2,351 982.3,351.4 "/>
<polygon fill="#CECECE" points="1049.4,273.6 1050,256.3 1046.7,255.6 1045.8,272.8 "/>
<polygon fill="#CECECE" points="1045.8,239 1047.2,254.5 1050.3,254.4 1049.1,238.8 "/>
<polygon fill="#CECECE" points="1046,220.4 1046,237.4 1049.8,237.4 1048.4,220.4 "/>
<polygon fill="#CECECE" points="1045.3,201.7 1045.8,218.9 1048.1,219.1 1048.7,201.1 "/>
<polygon opacity="0.2" fill="#020202" points="439.7,277.1 439.2,291 457.9,291 458.3,276.5 "/>
<polygon opacity="0.2" fill="#020202" points="464.4,277 464.9,289.2 480.5,290.7 481.8,277 "/>
<polygon opacity="0.2" fill="#020202" points="438,295.4 459.5,294.5 459.2,306.7 438,307.1 "/>
<polygon opacity="0.2" fill="#020202" points="464.9,295 465.3,305 481.8,308 481.4,295 "/>
<polygon opacity="0.2" fill="#020202" points="439.1,312.3 459,311 459,324 437.8,325.3 "/>
<polygon opacity="0.2" fill="#020202" points="463,311.9 463,324 479.4,325.3 479.6,311.4 "/>
<polygon opacity="0.2" fill="#020202" points="519.7,275.8 519.1,290.6 538,290.1 538,274.9 "/>
<polygon opacity="0.2" fill="#020202" points="545,275.8 545,289.7 559.9,289.3 561.1,274.9 "/>
<polygon opacity="0.2" fill="#020202" points="519.6,294.9 538.7,294 539.6,307 517.8,307 "/>
<polygon opacity="0.2" fill="#020202" points="544.3,294.1 543.9,305.8 560.4,307.1 560.8,293.6 "/>
<polygon opacity="0.2" fill="#020202" points="520,314.9 520,322.3 559.3,322.7 559.6,313.6 "/>
<polygon opacity="0.2" fill="#020202" points="518.9,328.4 518.3,344.2 538.7,344.9 539.1,327.9 "/>
<polygon opacity="0.2" fill="#020202" points="544.8,328.8 544.6,344 560,343.6 560.6,328.1 "/>
<polygon opacity="0.2" fill="#020202" points="599,278 599,290.1 620,290.6 620,278 "/>
<polygon opacity="0.2" fill="#020202" points="625.6,277 625.1,290 640.8,290 641.2,277 "/>
<polygon opacity="0.2" fill="#020202" points="599.3,295.9 599.5,309 619,309 619,294.9 "/>
<polygon opacity="0.2" fill="#020202" points="624.7,295 625.1,309 642.1,309 640.8,295 "/>
<polygon opacity="0.2" fill="#020202" points="600.2,312.3 619,311.9 619,323.6 599,324.5 "/>
<polygon opacity="0.2" fill="#020202" points="625,311.6 625,324.2 642.3,324.5 641.8,312.3 "/>
<polygon opacity="0.2" fill="#020202" points="681.6,275.8 681.1,289.9 697.9,290.1 698.1,276.5 "/>
<polygon opacity="0.2" fill="#020202" points="704.7,275.8 704.5,288.6 723,289.1 723,274.7 "/>
<polygon opacity="0.2" fill="#020202" points="681.4,294.1 697.9,293.4 698.3,306.4 680.7,307.1 "/>
<polygon opacity="0.2" fill="#020202" points="703.5,293.2 703.7,306.7 722.4,306.4 722.6,292.8 "/>
<polygon opacity="0.2" fill="#020202" points="682.5,313.6 682.2,321.2 722.2,321.4 722.6,312.9 "/>
<polygon opacity="0.2" fill="#020202" points="681.8,329.2 682,343.8 699,344.9 698.7,328.4 "/>
<polygon opacity="0.2" fill="#020202" points="704,328.8 704,344 722.7,343.8 722.6,328.4 "/>
<polygon opacity="0.2" fill="#020202" points="758.2,258.2 758,272.3 778.2,272.1 778.7,257.6 "/>
<polygon opacity="0.2" fill="#020202" points="783.6,258.2 784.3,270.6 800.4,271.5 801,257.8 "/>
<polygon opacity="0.2" fill="#020202" points="758.7,276.9 758.2,288.6 778.7,289.9 778.9,276.2 "/>
<polygon opacity="0.2" fill="#020202" points="783.6,276.2 784.3,288.4 800.6,288.8 801,275.6 "/>
<polygon opacity="0.2" fill="#020202" points="758,294.5 757.8,307.5 777.6,307.7 778,294.3 "/>
<polygon opacity="0.2" fill="#020202" points="783.2,294 783.3,306.4 801,307.3 801,294 "/>
<polygon opacity="0.2" fill="#020202" points="758.2,312 758.7,324.7 777.3,324.9 778.2,312 "/>
<polygon opacity="0.2" fill="#020202" points="783.2,311.9 783.4,325.5 799.9,324.5 800.4,311 "/>
<polygon opacity="0.2" fill="#020202" points="758.7,332.5 758.8,345.3 798,345.1 798,332.3 "/>
<polygon opacity="0.2" fill="#020202" points="841,241.3 840.3,254.8 857,255.4 857.5,241.9 "/>
<polygon opacity="0.2" fill="#020202" points="862.5,241.1 863.3,253.2 882,254.3 882.9,240.6 "/>
<polygon opacity="0.2" fill="#020202" points="841.2,259.7 840.6,271.9 857,272.1 857,258.7 "/>
<polygon opacity="0.2" fill="#020202" points="863.3,259.5 863.3,271.9 881,271.3 881,258.4 "/>
<polygon opacity="0.2" fill="#020202" points="840.8,278.9 840.5,287.1 881.4,288.2 881.6,278.2 "/>
<polygon opacity="0.2" fill="#020202" points="841,293.8 841,306.9 857.7,307.1 858,292.8 "/>
<polygon opacity="0.2" fill="#020202" points="863,293.6 863,306.2 881,306.9 881,293.8 "/>
<polygon opacity="0.2" fill="#020202" points="841.2,312.1 840.3,325.5 857.7,325.1 857,311.9 "/>
<polygon opacity="0.2" fill="#020202" points="863.3,311.9 862.9,324 881.6,324.7 882,311.6 "/>
<polygon opacity="0.2" fill="#020202" points="840.3,332.9 840.8,344 882,343.8 881.6,331.8 "/>
<polygon opacity="0.2" fill="#020202" points="917,222 917.2,235.9 928.5,235.2 929.6,221.5 "/>
<polygon opacity="0.2" fill="#020202" points="934.6,222 934.8,235.6 949.3,235.4 949.8,221.3 "/>
<polygon opacity="0.2" fill="#020202" points="918.2,241.1 918,253.7 930,254.1 930,240.4 "/>
<polygon opacity="0.2" fill="#020202" points="935,240.9 934.8,253.7 948.7,254.1 949.6,240.2 "/>
<polygon opacity="0.2" fill="#020202" points="918,259.7 917.8,272.1 930,271.9 930,259.1 "/>
<polygon opacity="0.2" fill="#020202" points="935,259.4 934.8,272 948.7,272 949.3,258.7 "/>
<polygon opacity="0.2" fill="#020202" points="917.6,278 918.3,290.9 930,290.8 930,278 "/>
<polygon opacity="0.2" fill="#020202" points="935,278 935,289.3 949.1,290.7 949.6,278 "/>
<polygon opacity="0.2" fill="#020202" points="918.1,297.4 916.5,312 948,312 948.3,296.8 "/>
<polygon opacity="0.2" fill="#020202" points="917.6,321 917.2,334.2 929.6,334.7 929.8,320.1 "/>
<polygon opacity="0.2" fill="#020202" points="934.1,320.5 933.9,333.8 949.3,333.6 949.6,319.2 "/>
<polygon opacity="0.2" fill="#020202" points="917.6,339 917,351.2 928.7,351.6 929.1,338.1 "/>
<polygon opacity="0.2" fill="#020202" points="936,339.4 936,351.8 948.6,351 949.1,339.2 "/>
<polygon fill="#FFFFFF" points="990.1,405.2 1017,405.7 1017,398.7 990.5,396.2 "/>
<path fill="#9B9B9B" d="M1131.1,299.3c21.7,3.5,62.4-5.4,63.3-4.3c0.5,0.6,0,24.4,0.8,48c0.6,16.3,1.1,44.7-0.2,45.7
	c-1.3,1-23.1-2.8-36.8-3.7c-13.3-0.8-29.1-0.1-42.3,1.4c-2.8,0.3-8.7-0.9-10.5-2.2c-1.2-0.9,0.7-20.1,0.3-47.6
	c-0.2-13.5-2.4-41.4-2.2-41.7C1104,294,1122.8,297.9,1131.1,299.3z"/>
<path fill="#FFFFFF" d="M1031.4,372.6c0,0.2,0.1,0.6,0.1,0.9c0,0.3,0,0.4,0,0.6c0,0,0,0.1,0,0.2c0.1,0.4,0.5,4.2,0.5,4.6
	c0-0.3,0.2-0.7,0.3-1.5c0,0,0-0.2,0.1-0.5c0-0.1,0-0.2,0-0.3c0-0.3,0.1-0.7,0.1-1c0-0.2,0.1-0.5,0.1-0.5l0.2-1.1
	c0-0.1,0.1-0.2,0.1-0.3v-0.1l0-0.3l0-0.1c0.1-0.8,0.2-1.2,0.3-1.5c0,0,0,0,0,0l1,0h0h0l0.7,0c0,0,0,0,0.1,0c0,0,0,0.1,0,0.2
	l-0.2,0.8l-0.1,0.7c0,0.1,0,0.1,0,0.1l0,0c-0.1,0.4-0.1,0.5-0.2,0.9c0,0.1-0.1,0.6-0.1,0.6c0,0-0.1,0.4-0.2,1.1v0
	c0,0.2-0.1,0.6-0.2,0.9v0c-0.1,0.5-0.2,1.2-0.3,1.7c0,0.1-0.1,0.2-0.1,0.2c0,0.3-0.1,0.5-0.1,0.7c0,0.2,0,0.3-0.1,0.4
	c0,0.1,0,0.2,0,0.3c0,0,0,0,0,0c0,0,0,0-0.2,0.7c0,0.2,0,0.2-0.1,0.3l0,0c0,0,0,0-0.1,0l-2.4,0c-0.1,0-0.2-0.2-0.2-0.3
	c-0.1-0.3-0.1-0.4-0.1-0.6c-0.1-0.7-0.2-1.3-0.3-1.9c-0.1-0.6-0.1-1.1-0.3-1.6c0-0.2,0-0.3,0-0.4c-0.1-0.6-0.2-1.2-0.2-1.9
	c-0.1-0.8-0.1-0.9-0.1-1.5c0-0.2,0-0.2,0-0.2l0-0.7l-0.1-0.8c0-0.1,0-0.1,0.1-0.1c0,0,0,0,0,0l0.5,0l1.1,0c0,0,0.1,0.1,0.1,0.1
	C1031.4,372.1,1031.4,372.2,1031.4,372.6z"/>
<polygon fill="#FFFFFF" points="1072.4,416.5 1072.2,384.6 1093.6,385.7 1091.5,417.9 "/>
<path fill="#EAEAEA" d="M1198.7,278.2l-1.1,0.1c0.3,4.6-0.3,13.9-4.9,16l0,0c-4.8,0-41.7,7.6-62,4.4c-7.4-1.2-23.1-4.5-26.6-4.5
	c-1.4-1.5-2.5-7.6-2.6-11.6l-1.1,0c0.1,2.1,0.8,10.3,3,12.4c0.2,4.5,2,28.3,2.2,40.4c0.4,27.2-1.5,46.1-0.3,47
	c1.8,1.3,7.6,2.5,10.4,2.2c13.1-1.5,28.6-2.2,41.8-1.4c13.5,0.8,35.1,4.6,36.3,3.6c1.2-1,0.8-29,0.2-45.1
	c-0.8-21.1-0.4-42.3-0.7-46.6C1198.3,292.7,1199,283.4,1198.7,278.2z"/>
<path fill="#B5B5B5" d="M1210,419.3l0.6,12.1l68.3,0.2l1.4-9.9L1210,419.3z M1276.2,418.3l0.5-9.2l-65.3-0.9l0.4,9.2L1276.2,418.3z
	 M1276,398.8l-63.2-3.5l-0.5,10.6l62.6,1.2L1276,398.8z M1271.2,389.4l-56-4l-1.6,8.1l58.8,3.5L1271.2,389.4z M1269.7,386.3l1.8-5.5
	l-56.3-5.1l0.2,7.9L1269.7,386.3z M1270,370.8l-54.6-5.3l-0.2,7.7l54,3.9L1270,370.8z M1266.7,361.6l-50-1.1l-1.2,3.5l51.9,4.2
	L1266.7,361.6z M1266.9,357.8l1.4-4.6l-50.5-1.9l0.4,6.7L1266.9,357.8z M1265.9,347.6l-46.6-2.3l-0.2,4.4l46.5,0.2L1265.9,347.6z
	 M1263.6,346l0.5-3.6l-43.1-2.1l0.4,2.9L1263.6,346z M1262.2,340.2l0.9-4.2l-39.9-0.4l0.2,1.4L1262.2,340.2z M1262.8,331.1l-39-0.1
	l-0.3,2.6l38.5,0.8L1262.8,331.1z"/>
<polygon fill="#FFFFFF" points="543.1,371.2 559.6,371.4 556.9,367.2 553.9,365 545.8,366.5 "/>
<polygon opacity="0.5" fill="#FFFFFF" points="542.2,372.4 542.7,375.1 560.4,375.5 560.7,372.8 "/>
<polygon fill="#FFFFFF" points="543.3,376.1 543.6,380.2 558,380.2 559.6,376.3 "/>
<path fill="#515151" d="M1184.8,329.1c-0.1-1-0.3-2.6-1.2-3.2c-0.6-0.4-1.8-0.9-2.4-1.4c0.1-0.4,0.7-0.6,0.9-0.8
	c0.7-0.7,1.1-1.7,1.2-2.6c0.3-3,0.3-5.9-0.2-8.9c-0.3-1.7-0.8-3.6-2.4-4.4c-1.9-1.1-3.1-0.7-5.1-0.6c-2.3,0.3-4.8,0.7-7.1,0.9
	c-2.3,0.2-3.1,0-3.1,2.6c0,5.1-0.1,10.2,0.2,15.2c0.3,4.5-0.2,9.1-0.2,13.6c0,1.9-0.7,5.7,0.4,7.4c0.8,1.2,7.2,0.3,8.5,0.3
	c4.6,0,8.3,0.5,9.7-4.6C1185.3,338.3,1185.1,333.5,1184.8,329.1C1184.7,328.6,1184.9,329.9,1184.8,329.1z M1173,320.1
	c0.6-0.6,0.1-4,0.1-4.9c0-2.2,3.1-0.4,3.4,0.9c0.7,1.4,0.3,4-0.5,5.3c-0.5,0.8-1,0.8-1.8,0.8C1172.7,322.3,1173,321.6,1173,320.1
	C1173,320.1,1173,320.8,1173,320.1z M1177.8,333.6c0,2.2-0.3,6.6-3.5,6.6c-2.4,0-1.8-3.3-1.8-5.1c0-1.7,0-3.5,0-5.2
	c0-1.6,0.1-1.5,1.6-1.5C1177.3,328.3,1177.8,330.5,1177.8,333.6C1177.8,333.8,1177.8,332.4,1177.8,333.6z M1143.5,345.5
	c0.6-6.9,2-13.8,2.7-20.7c0.2-1.8,0.4-3.8,0.6-5.5c0.2-1.1,0.3-2.3,0.3-3.5c0-0.6,0.5-1.5,0.4-2c0-0.5,0.9-4-0.1-4
	c-2.2,0-4.5-0.1-6.7-0.2c-0.3,0-0.6,4.3-0.7,4.6c-0.8,6.3-1.3,12.6-2,19c-1-5.5-2.1-11-3.1-16.5c-0.2-1.1-0.1-4.6-1.6-4.7
	c-1.3-0.1-2.7-0.2-4-0.3c-0.7-0.1-1.9,8.4-2.2,9.7c-0.6,3.2-1.8,7-1.8,10.3c0-2-0.4-4.1-0.5-6.1c-0.3-2.9-0.5-5.6-0.7-8.5
	c-0.1-1.3,0-8.6-1.6-8.8c-1.2-0.1-7.3-1.6-7.2-0.1c0.1,2.1,0.6,4.2,0.9,6.3c0.5,3.7,1.1,7.5,1.5,11.2c1,5.7,1.4,11.6,2,17.4
	c0.2,2.2-0.1,2.5,2.4,2.5c2,0,4.1-0.1,6.1-0.1c1.6,0,1.9-14.5,3.4-14.4c0.7,1,0.7,3,1,4.2c0.5,2.6,1,5.2,1.5,7.8
	c0.3,1.4,0.1,3.6,1.7,3.7C1136.9,346.7,1143.5,347.7,1143.5,345.5C1143.6,344.8,1143.5,346.1,1143.5,345.5z M1163.4,345.9
	c0-1.5,0-2.9,0-4.4c0-1.6-0.1-1.4-1.7-1.4c-1.1,0-2.3,0-3.4,0c-1.6,0-1-2.5-1-3.6c0-0.9-0.3-7.3,0.3-7.5c1.1-0.3,2.6-0.1,3.8-0.1
	c1.8,0,1.4-1.5,1.4-2.9c0-1.1,0.2-2.4,0-3.5c-0.1-0.5-3.7-0.1-4.2-0.1c-1.9,0-1.4-1-1.4-2.8c0-1.4-0.1-2.7,0.2-4
	c0.6,0,5.9,0.1,5.9-0.7c0-1.9,0-3.7,0-5.6c0-0.5-4.4-0.1-4.8-0.1c-2.7,0.1-5.4,0-8,0.1c-1.4,0.1-1.1,5.3-0.7,6.5
	c0,5.5-0.1,11.1-0.1,16.6c0,2.4,0,4.8,0,7.3c0,1.8-1.2,6.6,1.3,6.6c0.9,0.4,2.9,0.3,3.9,0.3C1156,346.6,1162.7,347.5,1163.4,345.9
	C1163.4,344.1,1163.2,346.2,1163.4,345.9z M1130.8,372c-0.5-1.3-0.9-2.7-1.4-4c-0.3-0.9-0.7-1.8-1.1-2.7c-0.1-0.2,1.5-1.2,1.7-1.5
	c1.8-2.1,1.3-8.8-0.4-10.8c-1.8-2.1-6.3-1.3-8.8-1c-1.9,0.2-1.4,1.6-1.4,3.2c0,1.8,0,3.6,0,5.4c0,2.3,0,4.5,0,6.8
	c0,2-0.7,5.3,0.1,7.1c0.1,0.3,3.8,0,4-0.4c0.7-1.5,0-4.9,0-6.5c0-2.1,0.7-1.8,1.3,0.1c0.7,0.3,1,3.4,1.1,4.1
	c0.2,2.2,0.7,2.5,2.6,2.3c0.9,0,2.1,0.1,2.9-0.2C1131.9,373.6,1130.8,372.3,1130.8,372C1130.6,371.5,1130.8,372,1130.8,372z
	 M1126.7,359.2c-0.1,0.4,0,2.3-0.6,2.4c-0.7,0.1-2,0-2.7,0.4c-0.1-0.8,0.3-5.5,0.1-5.6C1125.5,357.1,1126.5,356.2,1126.7,359.2
	C1126.7,359.2,1126.7,358.7,1126.7,359.2z M1139.6,351.7c-1.8,0-3.5,0-5.2,0.1c-1.6,0-1.9-0.3-1.8,1.4c0,3.7,0.1,7.4,0,11.1
	c0,1.4,0,2.8-0.1,4.2c0,1.3-0.5,3.8,0,4.8c0.4,0.8,6.9-0.1,7.2-0.2c0.9-0.2,1.1-3.2,0.6-3.6c-0.4-0.3-1.6-0.1-2,0
	c-1.6,0.1-1.4-0.5-1.4-2c0-0.5,0.1-4.3,0.2-4.3c0.2,0,3,0.2,3-0.5c0-1.7,0.8-3.4-1.2-3.4c-0.6,0-1.7,0.4-1.9-0.3
	c0-1.1-0.2-2.5,0.1-3.6c1,0,2,0,3-0.1C1140.7,355.1,1140.9,351.7,1139.6,351.7C1138.9,351.7,1140.1,351.7,1139.6,351.7z
	 M1182.9,356.6c0-4.3-4.3-6.3-8.1-4.7c-5.1,2.2-2.6,7.6-0.2,10.7c0.7,0.9,6.1,6.8,3.3,7.7c-1.6,0.5-2-1.6-1.9-2.7
	c0.1-1.4-4.3-1.2-4.3-0.8c0,4.4,1.3,7.7,6.4,7.8c5.2,0.1,5.8-4.4,3.8-8.4c-1-1.7-6.8-7.5-5.4-9.8c0.4-0.7,1.1-0.8,1.7-0.3
	c0.8,0.6,0.3,2,0.5,2.9c0.1,0.6,3,0.5,3.5,0.5C1183.4,359.6,1182.9,357.3,1182.9,356.6C1182.9,356.3,1182.9,357.1,1182.9,356.6z
	 M1152.5,362.4c-0.6-1.1-1-0.9-1.9-1.7c0.3-0.9,1.2-1.2,1.3-2.5c0.2-1.7,0.1-3.9-0.7-5.4c0-2-3.6-1.7-4.8-1.7
	c-0.6,0-4.9-0.2-4.9,0.9c0.1,2.9,0,5.8,0,8.6c0.1,2.6-0.1,5.1-0.1,7.7c0,1.4-0.3,3.3,0.2,4.7c0.3,0.8,5.1,0.1,5.9,0.1
	c3.2-0.1,3.5-0.7,4.8-3.1C1153.3,368.2,1153,364.4,1152.5,362.4C1152.4,362.3,1152.6,362.9,1152.5,362.4z M1145.9,358.1
	c0.6-0.5-0.5-2.5,0.1-3.1c0.9-0.8,1.8,0.8,2,1.4c0,0.8,0.2,2.6-0.9,2.8C1145.9,359.3,1145.9,359.6,1145.9,358.1
	C1145.9,358.1,1145.9,358.5,1145.9,358.1z M1148.6,365.6c0,1.3-0.1,2.7-1.4,3.4c-1.7,1-1.3-0.9-1.6-2c0-0.7-0.3-4.4,0.4-4.4
	C1148.1,362.7,1148.6,363.5,1148.6,365.6C1148.6,365.7,1148.6,365,1148.6,365.6z M1170.5,370c-0.6-0.6-2.7-0.3-3.5-0.4
	c0-1.5,0-3.1,0-4.6c0-1.3-0.2-3.1,0-4.4c0.4-1.9,0.1-3.9,0.1-5.8c0-1.2,0.6-2.8-0.8-3c-0.7,0-3.7-0.5-3.7,0.5
	c0,5.9,0.4,11.8-0.1,17.7c-0.1,0.8-0.3,2.2-0.1,3c0.2,0.6,4.1,0.3,4.7,0.4c0.3,0,3.3,0.3,3.3,0
	C1170.6,372.8,1170.8,370.2,1170.5,370C1170.3,369.9,1170.5,370.1,1170.5,370z M1160.9,351.4c-0.8,0-7-0.6-7,0.4
	c-0.4,3.3,0,6.6,0,9.9c0,3.3-0.1,6.6-0.1,9.9c0,2.3,1,1.6,3.2,1.7c0.4,0,4.3,0.2,4.3-0.3c0-2.5,0.7-3.4-1.9-3.4
	c-1.9,0-1.3-1.5-1.3-3.2c0.7-0.7-0.6-1.9,0.8-1.9c2.1,0,1.8-0.4,1.8-2.5c0-2.3-1.2-0.3-2.5-1.3c-0.1-0.6-0.4-4.1,0-4.5
	c0-1.7,0.8-1.2,2.3-1.2C1161.7,355.1,1161.1,351.4,1160.9,351.4C1160.1,351.5,1161,351.4,1160.9,351.4z"/>
</svg>
