<?xml version="1.0" encoding="utf-8"?>
<!-- Generator: Adobe Illustrator 15.0.2, SVG Export Plug-In  -->
<!DOCTYPE svg PUBLIC "-//W3C//DTD SVG 1.1//EN" "http://www.w3.org/Graphics/SVG/1.1/DTD/svg11.dtd" [
	<!ENTITY ns_flows "http://ns.adobe.com/Flows/1.0/">
]>
<svg version="1.1"
	 xmlns="http://www.w3.org/2000/svg" xmlns:xlink="http://www.w3.org/1999/xlink" xmlns:a="http://ns.adobe.com/AdobeSVGViewerExtensions/3.0/"
	 x="0px" y="0px" width="100px" height="80px" viewBox="-8.7 -9.2 100 80"
	 overflow="visible" enable-background="new -8.7 -9.2 100 80" xml:space="preserve">
<defs>
</defs>
<polygon fill="#688C84" points="54.9,0.2 32.4,0.4 23.5,0.4 1.6,0.6 0,58.1 77.5,64.6 83.6,0 65.5,0.1 "/>
<path fill="#FFFFFF" d="M52.7,40.3c-0.7,0-1.4-0.1-2.2-0.1c-1,0-1.1,1.2-1.3,2.1c-0.5,1.9-1.3,3.7-1.7,5.6c0-0.1-0.1-0.5-0.1-0.5
	c-0.2-1.1-0.3-2.2-0.4-3.2c-0.2-1.3-0.6-2.6-0.6-3.9l0,0l0,0c-1.3-0.2-2.6-0.2-3.8-0.2l0,0c-0.5,1-0.3,2.8-0.3,3.9
	c0,1.2-0.1,2.4-0.1,3.7c-0.1,1.9-0.2,3.9-0.3,5.8c0,0.4-0.4,3.6,0,3.6l2.3,0.1c0.1,0,0.4,0.1,0.5-0.1c0.1-0.4,0.1-0.9,0.1-1.3
	c0.2-2.9,0.4-5.8,0.6-8.7c0.4,2.1,0.4,4.4,0.6,6.6c0.1,1,0.1,2,0.3,2.9c0,0.2,1.5,0.2,1.7-0.1c0.2-0.2,0.2-0.9,0.3-1.2
	c0.2-1,0.4-2,0.7-3c0.2-1.1,0.5-2.2,0.7-3.2c0.1-0.3,0.1-0.7,0.2-1c-0.1,1.6-0.1,3.1-0.2,4.7c0,0.4-0.5,4.4,0.1,4.5
	c0.5,0,1,0,1.6,0.1c0.2,0,1,0.2,1.2,0c0.5-0.2,0.2-2.4,0.3-2.9c0.1-2.5,0.2-5,0.3-7.5C52.9,46,53.4,40.3,52.7,40.3z M62,40.8
	c0,0,0,0.1,0,0.1C62,40.9,62,40.8,62,40.8z M62,41c0,0.1,0,0.1,0-0.1c0-0.6-2-0.6-2.5-0.4c-0.5-0.2-0.8-0.2-1.3-0.3
	c-0.6,0-1.1-0.2-1.2,0.5c-0.2,1.4-0.6,2.9-0.9,4.3c-0.6,2.9-1.4,5.8-1.8,8.7c-0.1,0.9-0.4,1.8-0.6,2.7c-0.2,0.7,1.5,0.5,2,0.5
	c0.2,0,1,0.2,1.2,0c0.2-1,0.4-1.9,0.5-2.9c0.1-0.8,0.3-1.6,0.5-2.4c0.4,0,0.9,0,1.3,0.1c0.1,0,0.5,0,0.5,0c0.1,0.5,0.1,1,0.2,1.4
	c0,0.4,0.1,3.9,0.7,4c0.3,0,3,0.2,3,0c-0.3-2.3-0.3-4.7-0.7-6.9C62.6,47.2,62.2,44.1,62,41z M58.3,49.1c0.3-1.9,0.6-3.8,1-5.7
	c0.2,1.9,0.4,3.9,0.6,5.8L58.3,49.1z M72.3,40.7c-0.6,0-1.3-0.1-1.9-0.1c-0.7,0-1-0.2-1.2,0.5c-0.5,1.8-0.9,3.8-1.5,5.6
	c0,0,0.1-0.2,0,0c-0.1-1-0.3-2-0.4-3c-0.1-0.8-0.4-1.6-0.4-2.4c-0.2-0.6-0.3-0.5-0.9-0.5c-0.5,0-1.1,0-1.6-0.1
	c-0.7,0-0.4,0.6-0.3,1.1c0.2,1.1,0.5,2.1,0.7,3.2c0.2,1.7,0.6,3.4,0.9,5c0.2,0.8,0,1.6,0.3,2.3c0,0.6-0.5,5.2-0.1,5.3
	c0.4,0,3,0.4,3-0.2c0.1-1.1,0.1-2.2,0.1-3.4c0-0.9,0-1.8,0.1-2.6c0-0.9,0.6-1.7,0.8-2.5c0.4-1.4,1.1-2.8,1.5-4.3
	c0.2-0.7,0.4-1.5,0.7-2.2C72.1,42,72.8,40.7,72.3,40.7z"/>
<path fill="#FFFFFF" d="M38.9,24.3l-4.1,2.5l-3-3.7l-0.5,0.8l2.7,3.5l-4.6,2.8l0.5,1.1l4.7-3.1l3.2,4.1l1.1-0.8l-3.3-4l4-2.6
	L38.9,24.3z M27,24.3l-4.1,2.5l-3-3.7l-0.5,0.8l2.6,3.5l-4.6,2.8l0.5,1.1l4.7-3.1l3.2,4.1l1.1-0.8l-3.3-4l4-2.6L27,24.3z M53,24.3
	l-4.1,2.5l-3-3.7l-0.5,0.8l2.6,3.5l-4.6,2.8l0.5,1.1l4.7-3.1l3.2,4.1l1.1-0.8l-3.3-4l4-2.6L53,24.3z M66.1,25l-0.6-0.7l-4.1,2.5
	l-3-3.7l-0.5,0.8l2.6,3.5L56,30.2l0.5,1.1l4.7-3.1l3.2,4.1l1.1-0.8l-3.3-4L66.1,25z"/>
</svg>
