<?xml version="1.0" encoding="utf-8"?>
<!-- Generator: Adobe Illustrator 15.0.2, SVG Export Plug-In  -->
<!DOCTYPE svg PUBLIC "-//W3C//DTD SVG 1.1//EN" "http://www.w3.org/Graphics/SVG/1.1/DTD/svg11.dtd" [
	<!ENTITY ns_flows "http://ns.adobe.com/Flows/1.0/">
]>
<svg version="1.1"
	 xmlns="http://www.w3.org/2000/svg" xmlns:xlink="http://www.w3.org/1999/xlink" xmlns:a="http://ns.adobe.com/AdobeSVGViewerExtensions/3.0/"
	 x="0px" y="0px" width="140px" height="240px" viewBox="-29.8 0 140 240"
	 overflow="visible" enable-background="new -29.8 0 140 240" xml:space="preserve">
<defs>
</defs>
<path fill="#997671" d="M0,118.1l6.4,108.7l73,7.2l10.7-118.3L0,118.1z M40.1,131.2c-2.8,0-5-2.2-5-5s2.2-5,5-5s5,2.2,5,5
	S42.8,131.2,40.1,131.2z"/>
<path fill="#FFFFFF" d="M32.8,153.4c-0.2-2.5-1.2-4.5-3.8-4.8c-2.4-0.3-6-0.2-6.9,2.6c-0.6,1.8-0.2,3.5-0.3,5.2
	c-0.2,1.8,1.5,1.1,3.1,1.1c2.5,0-0.5-5.5,2.3-5.5c1.5,0,1.4,2.8,1.4,3.8c-0.2,2.7-1.8,4.5-3.6,6.4c-2.9,2.8-3.5,5.1-3.5,8.9
	c0,2.5,4.6,1.5,6.5,1.4c1.5-0.1,2.9-0.2,4.3-0.2c0.9,0,0.5-3,0.5-3.7c0-1.2-5.6-0.9-6.6-0.6c1.1-2.1,3.1-4.4,4.8-6.1
	C33.2,159.6,33.1,156.4,32.8,153.4C32.6,150.4,32.9,153.8,32.8,153.4z M47,158.4c-0.1-3.1,0.2-8.2-3.1-9.6c-6.6-2.8-9.2,3.8-9.2,8.8
	c0,1.6-0.9,9.8,0.6,10.7c0.5,2.1,1,3.9,3.4,4.6c2.3,0.6,7.2,0.3,7.2-3C47.2,167.3,47,161.8,47,158.4C46.9,157.6,47,158.4,47,158.4z
	 M41.9,167.4c-0.4,3.4-2.4-0.3-2.5-1.6c-0.3-3-0.6-5.9-0.4-8.9c0.2-2.5,2.3-6.8,2.9-2.2C42.5,158.7,43.1,163.4,41.9,167.4
	C41.9,167.4,42.9,164.1,41.9,167.4z M54.4,149c-1.1-0.3-2.4-0.2-3.6-0.2c0,0,0.1,0,0.1,0c-1.2,0.7-2.4,1.3-2.4,2.9
	c0,0.8-0.3,2.1,0.1,2.8c0.6,1.3,1.7-1.3,1.6,1.9c0,4-0.3,8.1-0.4,12.1c0,3.4-0.7,3.5,2.6,3.5c2.3,0,1.2-0.9,1.5-3.1
	c0.3-1.8-0.1-3.5-0.1-5.3C54,161.7,55.3,149,54.4,149C54.4,149,54.6,149,54.4,149z M66.7,160c0-3.2-2.9-3.2-5.4-3.3
	c-1.4-0.1-0.7-2.4-0.7-3.6c0-0.9,2.7-0.1,3.3-0.3c1.6,0,2.6,0.5,2.6-1.4c0-0.4,0.3-2-0.1-2.2c-1.9-1-6.8-0.1-8.9-0.2
	c-2.1-0.1-1.1,4.3-1.2,5.8c0,1.3,0,2.6,0,3.9c0,2.3-0.2,2.8,2.2,2.8c2.4,0,4.4-2.3,4.5,2.2c0,1.1-0.2,2.3-0.4,3.4
	c-0.3,1.8-1.1,1-2.3,1.6c0-0.6,0.3-2.3-0.5-2.3c-0.2-0.2-3.4-0.2-3.5,0.1c-0.6,2.1-0.6,5.9,2,6.3c2.5,0.3,8,0.7,8.1-3.2
	C66.3,166.3,67.1,163.3,66.7,160C66.7,159.6,66.8,161,66.7,160z"/>
<path fill="#997671" d="M70.9,0h-5.8C67,8,59.8,71.8,56,89.2c-0.1,0.6-0.3,1.5-0.5,2.5c-4.8,24.4-9.3,30.9-12.1,32
	c-0.3,0.1-1.1,0.4-2.6-0.7l-3.5,4.9c2,1.5,3.9,1.9,5.4,1.9c1.1,0,2.1-0.2,2.9-0.6c8.2-3.2,12.6-20.2,15.8-36.4
	c0.2-1,0.4-1.8,0.5-2.4C65.2,75,73.3,10.2,70.9,0z M38.8,121.4c-1.3-1.8-3.1-5.4-4.9-12.4c-2.4-9.2-4.1-20.9-5.5-30.2
	c-0.3-2.3-0.7-4.5-1-6.4c-2.6-17-5-51.3-5-72.3h-6c0,22,2.4,55.9,5.1,73.3c0.3,1.9,0.6,4.1,1,6.4c3.2,21.9,6.3,39.8,12.6,46.6
	c0,0,0-0.1,0-0.1C35.1,123.9,36.7,121.9,38.8,121.4z"/>
</svg>
